<svg width="244" height="244" viewBox="0 0 244 244" fill="none" xmlns="http://www.w3.org/2000/svg">
<path d="M213.063 206.716C206.758 213.207 201.118 217.022 196.799 219.902C154.678 247.992 106.528 239.896 91.6419 237.129C67.6243 232.664 47.3502 229.514 29.9311 213.796C-9.6504 178.08 -7.72521 103.573 22.5198 57.4196C26.106 51.9471 56.3052 7.23758 104.559 0.937671C105.739 0.783602 106.619 0.695849 107.391 0.614283C114.855 -0.175057 161.113 -4.34119 198.831 27.2201C204.23 31.7379 212.919 39.8869 220.976 52.3155C250.437 97.76 250.531 168.144 213.063 206.716Z" fill="url(#paint0_linear_388_2074)"/>
<g opacity="0.3">
<path d="M59.8037 37.5381C59.5534 37.9515 59.0148 38.0838 58.6012 37.8337C57.7971 37.3481 56.9601 36.8899 56.1132 36.4722C55.6846 36.2609 55.5059 35.7461 55.7084 35.3161C55.7108 35.3109 55.7132 35.3059 55.7157 35.3007C55.9298 34.8676 56.4551 34.69 56.8888 34.9039C57.7802 35.3436 58.6614 35.8258 59.5078 36.3372C59.8948 36.5709 60.0356 37.0568 59.8473 37.4567C59.8343 37.4843 59.82 37.5116 59.8037 37.5381ZM51.8512 34.7215C50.9556 34.4231 50.0387 34.1602 49.1253 33.9399C48.6555 33.8266 48.3662 33.3541 48.4796 32.8845C48.5952 32.4136 49.0665 32.1263 49.5367 32.2398C50.4977 32.4715 51.4628 32.7482 52.4052 33.062C52.864 33.2148 53.1119 33.7103 52.9588 34.1685C52.9477 34.2018 52.9348 34.234 52.9202 34.265C52.7338 34.6604 52.2766 34.8632 51.8512 34.7215ZM44.5836 33.1738C43.6466 33.0823 42.6942 33.0304 41.7524 33.0197C41.2689 33.0142 40.8813 32.618 40.8868 32.1351C40.8929 31.6526 41.2888 31.2653 41.7724 31.2706C42.7642 31.2819 43.7674 31.3366 44.754 31.4331C45.2353 31.4801 45.5872 31.908 45.5404 32.3887C45.5302 32.4912 45.5029 32.5878 45.4614 32.6759C45.3084 33.001 44.9623 33.2109 44.5836 33.1738ZM37.1521 33.2884C36.2171 33.4085 35.2766 33.5708 34.3563 33.7701C33.8837 33.8724 33.4173 33.5727 33.3148 33.1007C33.2128 32.6287 33.5129 32.1633 33.985 32.0605C34.954 31.8507 35.9442 31.6801 36.9281 31.5533C37.4077 31.4917 37.8468 31.8301 37.9085 32.3091C37.9305 32.4805 37.9014 32.6467 37.8328 32.7923C37.7098 33.0538 37.46 33.2486 37.1521 33.2884ZM29.9313 35.0537C29.0485 35.3774 28.167 35.7435 27.3117 36.1421C26.8732 36.3461 26.3523 36.1567 26.1479 35.719C25.9433 35.281 26.1331 34.7606 26.5716 34.5569C27.4714 34.1376 28.3989 33.7525 29.3278 33.4118C29.7817 33.2452 30.2849 33.4778 30.4515 33.9314C30.5355 34.1599 30.5181 34.4008 30.4219 34.605C30.3273 34.8059 30.1565 34.9712 29.9313 35.0537ZM23.2816 38.3708C22.4911 38.8821 21.7131 39.4338 20.9686 40.0106C20.5865 40.3067 20.0362 40.2373 19.74 39.8558C19.4435 39.4741 19.5127 38.9248 19.895 38.6286C20.6783 38.0215 21.4976 37.4409 22.3294 36.9026C22.7353 36.6401 23.2773 36.7558 23.5405 37.1612C23.7113 37.4246 23.722 37.7453 23.5975 38.0098C23.5304 38.1524 23.424 38.2787 23.2816 38.3708ZM7.24905 66.627C6.76551 66.6207 6.37856 66.224 6.38484 65.741C6.39793 64.7516 6.45455 63.7492 6.55306 62.7621C6.60105 62.2813 7.03006 61.9306 7.51133 61.9787C7.99235 62.0264 8.34362 62.4549 8.29563 62.9355C8.20201 63.8727 8.14844 64.8245 8.13614 65.7641C8.13439 65.893 8.10498 66.0149 8.05333 66.1244C7.9119 66.4252 7.60364 66.6318 7.24905 66.627ZM17.5369 43.0746C16.8806 43.7484 16.2455 44.4589 15.6495 45.1866C15.343 45.5604 14.7913 45.6155 14.417 45.3096C14.0426 45.0036 13.9895 44.454 14.294 44.0788C14.9217 43.3127 15.5905 42.5644 16.2818 41.8549C16.6191 41.5087 17.1735 41.5011 17.5202 41.838C17.7951 42.1051 17.8567 42.5089 17.7021 42.8371C17.6619 42.9226 17.6066 43.003 17.5369 43.0746ZM8.01372 59.0427C7.54397 58.9284 7.25577 58.4551 7.37016 57.9858C7.60478 57.0245 7.88407 56.0606 8.19965 55.1209C8.35155 54.6618 8.85002 54.4165 9.30852 54.5699C9.76693 54.7235 10.0139 55.2194 9.86012 55.6774C9.56006 56.5705 9.29464 57.4866 9.07198 58.4001C9.05776 58.4584 9.03778 58.5137 9.01318 58.5659C8.83955 58.9345 8.42502 59.1429 8.01372 59.0427ZM12.9898 48.9416C12.5012 49.7446 12.0409 50.5793 11.6218 51.4227C11.407 51.8556 10.8816 52.0322 10.4482 51.8175C10.0207 51.6055 9.84276 51.0915 10.045 50.6621C10.0476 50.6565 10.0503 50.6508 10.0532 50.6454C10.4941 49.7573 10.9787 48.8785 11.4927 48.0333C11.7442 47.6206 12.2827 47.4893 12.6961 47.74C13.0821 47.9742 13.2222 48.4593 13.0342 48.8587C13.0209 48.8868 13.006 48.9145 12.9898 48.9416Z" fill="#A2C3F2"/>
<path d="M8.52922 72.2473C8.6026 72.0915 8.63096 71.9124 8.5999 71.7297C8.52425 71.2851 8.45698 70.8316 8.39905 70.3815C8.33771 69.9025 7.89893 69.5637 7.4194 69.6251C6.93961 69.6863 6.59985 70.1245 6.66215 70.6038C6.7227 71.0772 6.79373 71.5542 6.87313 72.0221C6.95401 72.4982 7.40623 72.819 7.8827 72.7382C8.17673 72.6885 8.41126 72.4977 8.52922 72.2473Z" fill="#A2C3F2"/>
</g>
<g opacity="0.3">
<path d="M22.9181 94.7078C23.098 94.3258 22.979 93.8594 22.6186 93.6138C22.2456 93.3598 21.8717 93.0937 21.5074 92.823C21.1193 92.5345 20.5708 92.615 20.2821 93.0024C19.9922 93.3916 20.074 93.938 20.4618 94.2262C20.8454 94.5112 21.2392 94.7915 21.6319 95.059C22.0314 95.3311 22.5762 95.2282 22.8488 94.8292C22.8755 94.79 22.8984 94.7493 22.9181 94.7078Z" fill="#A2C3F2"/>
<path d="M72.231 82.6494C72.0041 83.0759 71.4738 83.2379 71.0465 83.0109C70.6196 82.7841 70.4581 82.2554 70.6846 81.8282C71.1168 81.0162 71.5211 80.1731 71.8913 79.3132C72.0799 78.871 72.5975 78.6644 73.0417 78.8553C73.486 79.046 73.6913 79.5604 73.5005 80.0043C73.3401 80.3769 73.1742 80.7454 73.0027 81.1095C72.758 81.629 72.4984 82.1472 72.231 82.6494ZM74.0058 76.117C73.5399 75.988 73.2668 75.5061 73.396 75.0408C73.6437 74.147 73.8567 73.2333 74.0282 72.3248C74.1162 71.8505 74.5757 71.5379 75.051 71.6274C75.526 71.7169 75.8387 72.1743 75.7491 72.6489C75.5684 73.6054 75.3446 74.5674 75.0835 75.5078C75.07 75.5566 75.0525 75.6033 75.0317 75.6475C74.8535 76.0259 74.4232 76.2325 74.0058 76.117ZM69.7076 86.6945C69.137 87.4831 68.5248 88.2584 67.8875 88.9982C67.5721 89.3645 67.0192 89.4059 66.6524 89.0909C66.2859 88.776 66.2448 88.2242 66.5596 87.8575C67.1649 87.1549 67.7463 86.419 68.288 85.67C68.5714 85.2786 69.1187 85.1904 69.5109 85.4733C69.8576 85.7236 69.9664 86.1804 69.7907 86.5536C69.7678 86.6021 69.7402 86.6494 69.7076 86.6945ZM75.3925 68.7449C74.9095 68.7213 74.5368 68.311 74.5607 67.8286C74.6061 66.9038 74.6123 65.966 74.5793 65.0415C74.5618 64.5583 74.9396 64.1535 75.4233 64.1363C75.9065 64.1191 76.3122 64.4963 76.3294 64.979C76.3642 65.9527 76.3576 66.9403 76.3099 67.9141C76.304 68.0318 76.2755 68.143 76.2281 68.2434C76.0816 68.5545 75.7575 68.7627 75.3925 68.7449ZM64.537 92.3868C63.8071 93.0305 63.0393 93.6518 62.255 94.2337C61.8668 94.5218 61.3185 94.4411 61.0301 94.0535C60.7413 93.6657 60.8224 93.1179 61.2106 92.8298C61.9555 92.2769 62.6848 91.6867 63.3779 91.0754C63.7405 90.7557 64.294 90.7901 64.614 91.1523C64.8525 91.4222 64.8941 91.7977 64.75 92.1038C64.7007 92.2086 64.6294 92.3054 64.537 92.3868ZM58.2418 96.8086C57.3866 97.2783 56.5017 97.7175 55.6115 98.1141C55.1696 98.3107 54.652 98.1126 54.4549 97.6714C54.2578 97.2296 54.4562 96.7127 54.8983 96.5165C55.7441 96.1397 56.5851 95.7223 57.3978 95.276C57.8216 95.0431 58.3541 95.1975 58.5872 95.6208C58.7275 95.8759 58.7272 96.1704 58.6119 96.415C58.5359 96.5766 58.41 96.7162 58.2418 96.8086ZM51.131 99.7552C50.1933 100.028 49.2333 100.264 48.2787 100.458C47.8044 100.553 47.3426 100.247 47.2465 99.7741C47.1503 99.3001 47.457 98.8392 47.9308 98.7432C48.8382 98.5598 49.7499 98.3351 50.6413 98.0758C51.1056 97.9407 51.5917 98.2072 51.7269 98.6709C51.7891 98.8839 51.7664 99.1014 51.6788 99.2874C51.5755 99.5066 51.3821 99.6821 51.131 99.7552ZM43.5462 101.082C42.5714 101.144 41.5828 101.164 40.6077 101.143C40.1242 101.133 39.7406 100.733 39.7511 100.25C39.7616 99.7677 40.1623 99.3842 40.6457 99.3945C41.5715 99.4145 42.5102 99.395 43.4362 99.3367C43.9189 99.3062 44.3348 99.6722 44.3651 100.154C44.3747 100.307 44.3447 100.452 44.284 100.581C44.1524 100.86 43.8766 101.061 43.5462 101.082ZM35.8508 100.712C34.8888 100.558 33.9207 100.361 32.9731 100.125C32.5037 100.009 32.2176 99.5343 32.3344 99.0656C32.4509 98.5983 32.9259 98.3112 33.3954 98.4278C34.2956 98.6513 35.2151 98.8387 36.1288 98.9855C36.6062 99.0619 36.9312 99.5108 36.8544 99.9876C36.8411 100.071 36.8165 100.149 36.7824 100.222C36.6204 100.565 36.2451 100.776 35.8508 100.712ZM28.4322 98.6657C27.7651 98.4006 27.0979 98.1117 26.4494 97.807C26.2145 97.6967 25.9818 97.5841 25.7505 97.4693C25.3176 97.2543 25.1299 96.7306 25.3564 96.2969C25.5715 95.8644 26.0972 95.6881 26.5304 95.903C26.7501 96.0121 26.9717 96.1194 27.1949 96.2243C27.8115 96.5139 28.4454 96.7885 29.0797 97.0406C29.529 97.2191 29.7483 97.7277 29.5695 98.1764C29.5627 98.1933 29.5556 98.2099 29.548 98.2262C29.3525 98.6412 28.8645 98.8377 28.4322 98.6657Z" fill="#A2C3F2"/>
<path d="M75.7583 60.7378C75.8324 60.5805 75.8605 60.3998 75.8284 60.2158C75.7468 59.7493 75.6538 59.2758 75.5519 58.8083C75.4491 58.3363 74.9827 58.0368 74.5101 58.1396C74.0376 58.2424 73.7376 58.7077 73.8406 59.1801C73.9372 59.6241 74.0255 60.074 74.1032 60.5168C74.1862 60.9925 74.6399 61.3109 75.1163 61.2278C75.4084 61.1767 75.6411 60.9866 75.7583 60.7378Z" fill="#A2C3F2"/>
</g>
<path d="M63.4836 52.1058C63.408 51.9485 63.2411 51.8564 63.0676 51.8764L58.119 52.4455C56.6621 50.6342 54.9055 49.0419 52.8885 47.7541L52.9216 42.7822C52.9227 42.6078 52.8129 42.452 52.6482 42.394L47.0127 40.4112C46.848 40.3532 46.6646 40.406 46.5561 40.5427L43.4619 44.4375C41.082 44.1783 38.714 44.3194 36.442 44.8188L32.9432 41.2776C32.8205 41.1535 32.6325 41.1208 32.4751 41.1961L27.0864 43.7741C26.929 43.8494 26.8366 44.0163 26.8567 44.1895L27.4265 49.132C25.6129 50.5871 24.0186 52.3415 22.7292 54.3561L17.7512 54.3231C17.5766 54.322 17.4205 54.4315 17.3625 54.596L15.3772 60.2247C15.3193 60.3892 15.3722 60.5723 15.5089 60.6807L19.4086 63.7712C19.1491 66.1481 19.2903 68.5133 19.7904 70.7823L16.2448 74.2768C16.1205 74.3993 16.0876 74.587 16.1632 74.7443L18.7443 80.1265C18.8197 80.2837 18.9868 80.3759 19.1601 80.3559L24.1089 79.7868C25.5657 81.5981 27.3224 83.1904 29.3394 84.4782L29.3064 89.4501C29.3052 89.6244 29.415 89.7804 29.5796 89.8383L35.2152 91.821C35.3799 91.879 35.5633 91.8262 35.6717 91.6895L38.766 87.7947C41.1459 88.0539 43.514 87.9127 45.7859 87.4134L49.2847 90.9546C49.4073 91.0788 49.5952 91.1114 49.7528 91.0362L55.1415 88.4581C55.299 88.3827 55.3912 88.2159 55.3712 88.0427L54.8014 83.1001C56.615 81.645 58.2092 79.8907 59.4987 77.8761L64.4767 77.9091C64.6512 77.9102 64.8073 77.8006 64.8654 77.6362L66.8506 72.0075C66.9086 71.8431 66.8558 71.6599 66.7189 71.5515L62.8194 68.4611C63.0789 66.0842 62.9374 63.719 62.4375 61.4499L65.9831 57.9554C66.1074 57.8329 66.1401 57.6451 66.0647 57.4879L63.4836 52.1058Z" fill="#A2C3F2"/>
<path d="M46.118 69.4332C44.2865 72.189 40.552 72.943 37.7925 71.1138C36.4558 70.2278 35.5446 68.8748 35.2269 67.3043C34.9091 65.7341 35.2223 64.1338 36.11 62.7989C37.9415 60.0432 41.676 59.2891 44.4355 61.1183C46.9457 62.7825 47.797 66.0198 46.5508 68.6658C46.4274 68.928 46.2831 69.1847 46.118 69.4332ZM36.6004 67.0271C36.844 68.2313 37.5426 69.2685 38.5676 69.948C40.683 71.3502 43.5467 70.7723 44.9508 68.6594C46.356 66.5464 45.7761 63.6864 43.6605 62.284C41.5451 60.8817 38.6814 61.4596 37.2773 63.5725C37.15 63.7642 37.0384 63.9626 36.9422 64.1669C36.5243 65.0543 36.4025 66.0483 36.6004 67.0271Z" fill="#BDD0FB"/>
<path d="M54.348 72.4642C54.562 72.0097 54.7544 71.5419 54.9238 71.0618C54.9772 70.9107 55.028 70.7586 55.0765 70.6059C55.3152 69.8525 55.4935 69.0813 55.6088 68.3043C55.6104 68.2938 55.6119 68.2831 55.6136 68.2726C55.618 68.2425 55.6222 68.2125 55.6262 68.1823C55.6345 68.1238 55.6421 68.065 55.6497 68.0065C55.6694 67.8522 55.5854 67.7088 55.4517 67.6458C55.4193 67.6305 55.3838 67.6201 55.3463 67.6153C55.1544 67.5909 54.9795 67.7269 54.9549 67.9183C54.8295 68.9046 54.5966 69.8839 54.263 70.8291C52.6075 75.5252 48.6917 78.7929 44.1632 79.8461C41.6444 80.4323 38.9359 80.3329 36.321 79.4128C35.8624 79.2516 35.4154 79.0683 34.9815 78.8643C32.0609 77.4919 29.7212 75.1774 28.3082 72.2307C26.6849 68.8462 26.4785 65.0326 27.7268 61.4931C30.3059 54.1832 38.3532 50.3355 45.6688 52.9095C46.1199 53.0682 46.5613 53.2491 46.9911 53.4512C48.854 54.3268 50.5045 55.5997 51.8194 57.1845C51.8534 57.2253 51.8947 57.2566 51.9399 57.2777C52.0587 57.3335 52.2046 57.32 52.3126 57.2305C52.4612 57.1066 52.4827 56.8868 52.3586 56.7377C50.9781 55.074 49.2453 53.7373 47.2895 52.8182C46.8383 52.606 46.3751 52.4162 45.9017 52.2495C38.2209 49.547 29.7709 53.5919 27.0659 61.2604C25.7552 64.9763 25.9721 68.9796 27.6762 72.5328C29.1596 75.6262 31.6159 78.056 34.6818 79.4969C35.1375 79.7109 35.6068 79.9032 36.0879 80.0726C39.8087 81.3816 43.817 81.1652 47.3744 79.4633C50.4725 77.9815 52.9056 75.5272 54.348 72.4642Z" fill="#BDD0FB"/>
<g opacity="0.3">
<path d="M93.4481 20.2587C93.5477 20.0472 93.5014 19.7876 93.3172 19.6247C92.9736 19.3204 92.616 19.0225 92.2546 18.7392C92.0196 18.5551 91.6799 18.596 91.4952 18.8308C91.3096 19.0651 91.352 19.4051 91.5869 19.5892C91.9314 19.8592 92.2722 20.1431 92.6001 20.4333C92.8233 20.6312 93.1652 20.6104 93.3637 20.3874C93.3987 20.3477 93.4267 20.3043 93.4481 20.2587Z" fill="#A2C3F2"/>
<path d="M90.0682 17.8487C89.914 18.1042 89.582 18.1869 89.3259 18.0331C88.6797 17.6453 88.0061 17.2861 87.324 16.9656C87.1801 16.8981 87.0349 16.832 86.8887 16.7669C86.6161 16.6456 86.4932 16.3263 86.6147 16.0538C86.7397 15.8006 87.0558 15.6587 87.3291 15.7799C87.482 15.8479 87.6339 15.9172 87.7844 15.988C88.4994 16.3238 89.2057 16.7005 89.8832 17.1075C90.1231 17.2514 90.2109 17.552 90.0942 17.7998C90.0864 17.8162 90.0776 17.8324 90.0682 17.8487ZM84.3159 15.8064C83.4418 15.5394 82.5433 15.324 81.6456 15.1667C81.3513 15.115 81.1549 14.8353 81.2064 14.5412C81.2583 14.2489 81.5383 14.0509 81.8326 14.1025C82.7735 14.2674 83.7156 14.493 84.632 14.7731C84.9177 14.8604 85.0784 15.1624 84.9913 15.448C84.9836 15.4729 84.9739 15.4972 84.963 15.5204C84.8504 15.7596 84.5762 15.8858 84.3159 15.8064ZM78.9157 14.8619C78.0041 14.817 77.0803 14.829 76.1691 14.8973C75.8715 14.9196 75.6117 14.6964 75.5895 14.3991C75.5672 14.1006 75.7899 13.8421 76.0882 13.8199C77.0436 13.7481 78.013 13.7359 78.9687 13.7826C79.267 13.7974 79.4974 14.0508 79.4825 14.3487C79.4787 14.4213 79.461 14.4899 79.4317 14.5519C79.3413 14.7441 79.1411 14.8728 78.9157 14.8619ZM73.4481 15.2715C72.552 15.4515 71.6587 15.6889 70.7946 15.977C70.5108 16.0714 70.2046 15.9184 70.1102 15.6354C70.0162 15.3531 70.1686 15.0467 70.4519 14.952C71.3588 14.6499 72.2948 14.4012 73.2348 14.2123C73.5276 14.1534 73.8129 14.3431 73.8719 14.6355C73.8952 14.7534 73.8788 14.8701 73.831 14.9714C73.7606 15.121 73.6228 15.2364 73.4481 15.2715ZM68.2462 17.0019C67.4213 17.394 66.6132 17.8407 65.8435 18.3298C65.5919 18.4899 65.2574 18.4156 65.0969 18.1638C64.9365 17.9121 65.0103 17.5781 65.263 17.4182C66.0694 16.9056 66.9168 16.4374 67.7811 16.0261C68.051 15.8981 68.3736 16.0125 68.5019 16.2816C68.5744 16.4338 68.5695 16.6029 68.5029 16.7442C68.4516 16.8531 68.3637 16.9458 68.2462 17.0019ZM63.6226 19.941C62.9187 20.5211 62.2446 21.1506 61.6189 21.8124C61.4141 22.0292 61.0715 22.0391 60.8545 21.8343C60.6375 21.6294 60.6276 21.2887 60.8325 21.0705C61.4885 20.3766 62.1958 19.716 62.9342 19.1074C63.1648 18.9178 63.5056 18.9502 63.6955 19.1802C63.833 19.3468 63.854 19.5712 63.7678 19.7543C63.7348 19.8243 63.6865 19.8885 63.6226 19.941ZM59.8607 23.9185C59.3225 24.6512 58.8233 25.4275 58.3771 26.2261C58.2312 26.4864 57.9018 26.5797 57.6411 26.4342C57.3803 26.2891 57.2907 25.9624 57.4322 25.699C57.9005 24.8621 58.4239 24.0481 58.9883 23.2797C59.1652 23.0391 59.5036 22.9872 59.7445 23.1636C59.9563 23.3187 60.022 23.5994 59.9141 23.8285C59.8996 23.8595 59.8819 23.8897 59.8607 23.9185ZM55.6479 31.6795C55.3594 31.6017 55.189 31.3054 55.2669 31.0173C55.4824 30.2199 55.7457 29.4207 56.0478 28.6439C56.0931 28.5256 56.14 28.4085 56.1875 28.2915C56.2916 28.0134 56.6159 27.8825 56.8929 27.9959C57.1696 28.1087 57.3019 28.4238 57.1892 28.7003C57.1441 28.8098 57.1004 28.92 57.0571 29.0329C56.7676 29.7763 56.5167 30.5388 56.311 31.2991C56.3026 31.3305 56.2914 31.3604 56.2782 31.3886C56.1685 31.6213 55.9047 31.7489 55.6479 31.6795Z" fill="#A2C3F2"/>
</g>
<g opacity="0.3">
<path d="M98.8201 47.3145C98.4079 48.1611 97.9401 48.9898 97.4304 49.7782C97.2682 50.0284 96.9336 50.1007 96.6824 49.9386C96.4312 49.7766 96.363 49.442 96.5218 49.1915C97.0081 48.44 97.4541 47.6494 97.8473 46.8416C97.9778 46.5732 98.3017 46.4617 98.5701 46.5921C98.8365 46.7216 98.9489 47.0408 98.8232 47.3077C98.8223 47.3099 98.8211 47.3123 98.8201 47.3145ZM99.2158 45.0341C98.9336 44.9368 98.7837 44.6291 98.8813 44.3473C99.1746 43.4991 99.4195 42.6245 99.6088 41.7478C99.6723 41.4581 99.9596 41.2707 100.252 41.334C100.544 41.3968 100.729 41.6841 100.666 41.9758C100.468 42.8946 100.211 43.8111 99.9036 44.6999C99.8971 44.7187 99.8899 44.7365 99.8816 44.7543C99.7656 45.0006 99.4799 45.1252 99.2158 45.0341ZM95.7499 52.0566C95.1446 52.779 94.4903 53.4708 93.8047 54.1124C93.5866 54.3163 93.2441 54.3051 93.0401 54.0876C92.8356 53.87 92.8471 53.5293 93.0646 53.324C93.7188 52.712 94.3429 52.0523 94.9207 51.3634C95.1125 51.1345 95.4535 51.1045 95.6822 51.2956C95.8748 51.4566 95.9268 51.7229 95.8248 51.9396C95.8055 51.9807 95.7806 52.0199 95.7499 52.0566ZM100.506 39.6671C100.208 39.6405 99.989 39.3777 100.016 39.0807C100.096 38.1869 100.122 37.2796 100.093 36.3834C100.084 36.0856 100.319 35.836 100.616 35.826C100.915 35.8165 101.165 36.0502 101.174 36.3485C101.205 37.2884 101.178 38.2403 101.093 39.1776C101.087 39.2424 101.07 39.3034 101.044 39.359C100.95 39.5585 100.738 39.688 100.506 39.6671ZM91.6247 55.9156C90.865 56.4703 90.0633 56.9841 89.2417 57.4434C88.9811 57.5891 88.6514 57.4961 88.5055 57.2357C88.3595 56.9753 88.4522 56.6461 88.7134 56.5003C89.4974 56.0626 90.2618 55.5724 90.9861 55.0431C91.2272 54.8671 91.5655 54.9194 91.7421 55.1606C91.8629 55.3255 91.8761 55.5367 91.7946 55.7096C91.7574 55.7888 91.7003 55.8603 91.6247 55.9156ZM86.6923 58.6741C85.82 59.0315 84.9181 59.3391 84.012 59.5886C83.7243 59.6679 83.4266 59.4993 83.3472 59.2116C83.2677 58.9244 83.4366 58.6267 83.7249 58.5473C84.5888 58.3092 85.4491 58.0155 86.2817 57.6744C86.558 57.5612 86.8739 57.6933 86.9873 57.9692C87.0471 58.115 87.0386 58.272 86.9762 58.4044C86.9208 58.5223 86.8224 58.6207 86.6923 58.6741ZM81.2401 60.1737C80.3068 60.3124 79.3568 60.3949 78.4172 60.4193C78.1183 60.4268 77.8703 60.1915 77.8625 59.8931C77.8546 59.595 78.0909 59.3471 78.389 59.3391C79.2852 59.3162 80.1909 59.2374 81.0805 59.1047C81.376 59.0608 81.6514 59.2644 81.6951 59.5596C81.7117 59.6691 81.6937 59.7755 81.6499 59.8686C81.5754 60.0267 81.426 60.1459 81.2401 60.1737Z" fill="#A2C3F2"/>
<path d="M100.862 33.8185C100.906 33.7242 100.924 33.6162 100.907 33.5054C100.835 33.0486 100.75 32.5919 100.653 32.1477C100.589 31.8564 100.301 31.6712 100.009 31.7346C99.7183 31.7987 99.5328 32.0859 99.5958 32.3774C99.6882 32.801 99.7696 33.2368 99.838 33.6727C99.8842 33.9675 100.161 34.1689 100.456 34.1227C100.64 34.0938 100.788 33.9754 100.862 33.8185Z" fill="#A2C3F2"/>
</g>
<path d="M92.6213 27.6531C92.5708 27.5478 92.4591 27.4862 92.343 27.4995L89.0316 27.8803C88.0567 26.6683 86.8812 25.6028 85.5315 24.7411L85.5536 21.4141C85.5544 21.2975 85.4809 21.1931 85.3707 21.1544L81.5997 19.8276C81.4895 19.7888 81.3667 19.8241 81.2942 19.9155L79.2237 22.5217C77.6312 22.3483 76.0466 22.4427 74.5264 22.7769L72.1851 20.4073C72.103 20.3242 71.9772 20.3024 71.8719 20.3527L68.266 22.0778C68.1606 22.1282 68.0988 22.2398 68.1122 22.3558L68.4935 25.6631C67.2799 26.6367 66.2131 27.8108 65.3502 29.1589L62.0192 29.1367C61.9024 29.136 61.7979 29.2093 61.7591 29.3194L60.4306 33.0859C60.3918 33.196 60.4272 33.3185 60.5187 33.391L63.1282 35.4591C62.9546 37.0496 63.0491 38.6323 63.3838 40.1506L61.0112 42.489C60.928 42.5709 60.906 42.6965 60.9565 42.8018L62.6838 46.4033C62.7342 46.5085 62.846 46.5702 62.962 46.5569L66.2735 46.1761C67.2484 47.3881 68.4237 48.4536 69.7735 49.3154L69.7514 52.6423C69.7505 52.759 69.824 52.8633 69.9343 52.9021L73.7054 54.229C73.8156 54.2677 73.9383 54.2324 74.0109 54.1409L76.0814 51.5347C77.6739 51.7081 79.2586 51.6136 80.7788 51.2794L83.12 53.649C83.202 53.7321 83.3279 53.7539 83.4333 53.7036L87.0391 51.9785C87.1445 51.928 87.2062 51.8164 87.193 51.7005L86.8116 48.3932C88.0252 47.4195 89.092 46.2455 89.9548 44.8974L93.2858 44.9196C93.4027 44.9203 93.5071 44.847 93.5459 44.7369L94.8743 40.9705C94.9132 40.8604 94.8778 40.7379 94.7862 40.6654L92.1768 38.5974C92.3504 37.0069 92.2559 35.4243 91.9212 33.9059L94.2938 31.5675C94.377 31.4856 94.3989 31.3599 94.3485 31.2547L92.6213 27.6531Z" fill="#A2C3F2"/>
<path d="M81.0608 39.2874C80.4567 40.1972 79.5337 40.8171 78.4625 41.0332C77.3916 41.2496 76.3003 41.0363 75.3898 40.4325C73.5104 39.1868 72.9976 36.6501 74.2435 34.7683C75.4916 32.8913 78.0354 32.3779 79.9142 33.6237C80.8247 34.2272 81.4455 35.1487 81.662 36.2185C81.8379 37.0881 81.7297 37.9712 81.3583 38.7597C81.273 38.9409 81.1735 39.1174 81.0608 39.2874ZM75.9876 39.5323C76.6575 39.9765 77.4602 40.1334 78.2484 39.9744C79.0361 39.8153 79.7149 39.3591 80.1594 38.6903C80.6031 38.0208 80.7609 37.2196 80.6017 36.4324C80.4428 35.6457 79.9857 34.9678 79.3163 34.524C77.9338 33.6075 76.0627 33.9851 75.1447 35.3657C75.0621 35.4904 74.9898 35.6189 74.9279 35.7504C74.3035 37.0762 74.7302 38.6987 75.9876 39.5323Z" fill="#BDD0FB"/>
<path d="M86.7891 41.3969C86.9347 41.0876 87.0658 40.7685 87.1822 40.4396C87.4128 39.7863 87.5772 39.1088 87.6707 38.4244C87.6747 38.3936 87.6786 38.3628 87.6826 38.332C87.7131 38.0939 87.5834 37.8724 87.377 37.7751C87.3268 37.7516 87.272 37.7354 87.2142 37.7281C86.9179 37.6903 86.6485 37.9007 86.6098 38.1958C86.5286 38.8357 86.3776 39.4696 86.162 40.08L86.162 40.0803C86.1503 40.1138 86.1379 40.1474 86.1258 40.1805C85.6022 41.6208 84.7391 42.8761 83.6196 43.8651C83.012 44.4019 82.3281 44.86 81.581 45.2258C81.5749 45.2288 81.5688 45.2318 81.5627 45.2348C81.5439 45.2437 81.5256 45.2529 81.5069 45.2616C79.313 46.311 76.8412 46.4446 74.547 45.6373C74.25 45.5331 73.9608 45.4144 73.6798 45.2824C71.7892 44.394 70.2746 42.8954 69.3594 40.9877C68.3088 38.7965 68.1754 36.328 68.9836 34.0368C69.7922 31.7473 71.4452 29.9055 73.6387 28.8556C75.8325 27.8062 78.3043 27.6726 80.5986 28.4799C80.8906 28.5824 81.1763 28.6997 81.4544 28.8304C82.6607 29.3974 83.729 30.2213 84.5801 31.2472C84.6326 31.3104 84.6963 31.3587 84.7662 31.3913C84.9498 31.4775 85.1751 31.4566 85.3415 31.3185C85.571 31.1275 85.6037 30.7878 85.4127 30.5576C84.4601 29.4097 83.2647 28.4876 81.9157 27.8533C81.6042 27.7069 81.2847 27.5757 80.9583 27.4609C78.3911 26.5577 75.6258 26.7071 73.1712 27.8814C70.7171 29.0558 68.8662 31.1121 67.9632 33.6776C67.0588 36.2413 67.2082 39.003 68.3843 41.4545C69.4076 43.5888 71.1023 45.2651 73.2176 46.2592C73.5316 46.4067 73.8554 46.5396 74.1873 46.6564C79.1569 48.4046 84.593 46.0602 86.7891 41.3969Z" fill="#BDD0FB"/>
<path d="M202.467 69.8894C202.071 69.8894 201.743 69.5764 201.727 69.1777C201.714 68.8454 200.267 35.8166 185.847 23.9492C181.598 20.4527 176.576 19.123 170.926 19.997C158.994 21.8412 150.738 30.6194 146.386 46.0882C143.107 57.7449 143.411 69.0137 143.415 69.1262C143.427 69.5348 143.106 69.8763 142.697 69.889C142.286 69.8896 141.946 69.581 141.933 69.1718C141.93 69.0576 141.616 57.5919 144.95 45.7197C146.918 38.7112 149.754 32.923 153.379 28.5162C157.947 22.9629 163.774 19.604 170.699 18.5338C176.787 17.5924 182.202 19.0306 186.791 22.8079C193.08 27.9845 197.755 37.3646 200.686 50.6882C202.856 60.5532 203.205 69.0361 203.208 69.1205C203.224 69.5291 202.906 69.873 202.496 69.8888C202.487 69.8891 202.477 69.8894 202.467 69.8894Z" fill="url(#paint1_linear_388_2074)"/>
<path d="M109.593 60.1011C109.705 59.3426 110.35 58.7767 111.118 58.7641L194.905 57.3809L222.34 220.733H89.9516C85.4042 220.733 109.593 60.1011 109.593 60.1011Z" fill="url(#paint2_linear_388_2074)"/>
<path d="M209.558 58.6264L194.906 57.3809L222.341 220.733H238.752C242.079 220.733 244.566 217.679 243.888 214.425L211.821 60.6297C211.593 59.5357 210.673 58.7211 209.558 58.6264Z" fill="url(#paint3_linear_388_2074)"/>
<path d="M184.177 69.5383C183.781 69.5383 183.452 69.2253 183.437 68.8266C183.424 68.4943 181.977 35.4655 167.556 23.5982C163.308 20.1017 158.287 18.7726 152.635 19.646C140.704 21.4901 132.447 30.2683 128.096 45.7371C124.816 57.3938 125.121 68.6626 125.124 68.7751C125.137 69.1837 124.815 69.5252 124.406 69.5379C124.008 69.544 123.655 69.2297 123.643 68.8207C123.639 68.7065 123.326 57.2408 126.66 45.3686C128.628 38.3601 131.463 32.5719 135.088 28.1651C139.656 22.6118 145.484 19.253 152.408 18.1827C158.497 17.2408 163.911 18.6792 168.5 22.4568C174.789 27.6334 179.464 37.0135 182.395 50.3371C184.565 60.2021 184.915 68.685 184.918 68.7693C184.934 69.1779 184.615 69.5218 184.206 69.5377C184.197 69.538 184.187 69.5383 184.177 69.5383Z" fill="url(#paint4_linear_388_2074)"/>
<path d="M131.768 129.608C131.756 129.301 130.42 98.7941 117.073 87.81C113.119 84.5555 108.447 83.3175 103.188 84.1305C92.12 85.8413 84.4651 93.9737 80.4363 108.302C77.4093 119.067 77.6911 129.469 77.6943 129.573L76.6765 129.604C76.6733 129.499 76.3855 118.962 79.4497 108.049C81.2563 101.614 83.8579 96.3029 87.1822 92.2615C91.3632 87.1786 96.6961 84.1048 103.033 83.1253C108.591 82.2663 113.534 83.5784 117.722 87.0258C123.486 91.7698 127.773 100.38 130.465 112.617C132.461 121.691 132.782 129.491 132.785 129.569L131.768 129.608Z" fill="url(#paint5_linear_388_2074)"/>
<path d="M34.8828 214.362L48.411 125.297C48.5402 124.447 49.2653 123.813 50.1267 123.799L128.296 122.509L145.205 223.056H41.5372C37.1398 223.056 34.241 218.707 34.8828 214.362Z" fill="#BDD0FB"/>
<path d="M143.368 123.79L128.296 122.509L145.205 223.056L161.897 222.626C163.545 222.583 164.752 221.06 164.413 219.449L144.535 124.748C144.382 124.218 143.918 123.837 143.368 123.79Z" fill="#1B3E77" fill-opacity="0.9"/>
<path d="M114.916 129.284C114.904 128.977 113.569 98.4703 100.222 87.486C96.2683 84.2316 91.5965 82.9937 86.3374 83.8065C75.2689 85.5174 67.614 93.6497 63.5852 107.978C60.5582 118.743 60.84 129.145 60.8433 129.249L59.8254 129.28C59.8222 129.175 59.5344 118.638 62.5987 107.725C64.4053 101.29 67.0068 95.979 70.3312 91.9375C74.5121 86.8546 79.845 83.7808 86.1817 82.8013C91.7402 81.9423 96.6827 83.2545 100.871 86.7019C106.634 91.4458 110.922 100.056 113.614 112.293C115.61 121.367 115.931 129.167 115.934 129.245L114.916 129.284Z" fill="url(#paint6_linear_388_2074)"/>
<path d="M58.2505 158.894C58.2441 158.73 57.5268 142.365 50.3896 136.491C48.2929 134.766 45.8145 134.11 43.0246 134.541C28.8937 136.725 29.41 158.644 29.4169 158.865L28.5871 158.891C28.5854 158.834 28.4299 153.139 30.0855 147.242C32.3016 139.35 36.732 134.675 42.8976 133.722C45.9321 133.252 48.6308 133.969 50.9182 135.852C58.3423 141.963 59.0533 158.175 59.0799 158.862L58.2505 158.894Z" fill="url(#paint7_linear_388_2074)"/>
<path d="M14.8793 152.092L58.6515 151.369L71.5021 224.152H6.08807C3.85323 224.152 12.8669 160.662 13.9797 152.883C14.0439 152.434 14.4251 152.099 14.8793 152.092Z" fill="#1B3E77" fill-opacity="0.9"/>
<path d="M66.3548 152.024L58.6514 151.369L71.502 224.152H80.1066C81.1106 224.152 81.8623 223.232 81.6612 222.25L67.4966 153.039C67.3832 152.485 66.9184 152.072 66.3548 152.024Z" fill="#7D97F4"/>
<path d="M49.1767 158.72C49.1704 158.555 48.4531 142.19 41.3159 136.317C39.2191 134.591 36.7407 133.935 33.9509 134.366C19.82 136.55 20.3362 158.469 20.3431 158.691L19.5134 158.716C19.5116 158.659 19.3562 152.964 21.0117 147.068C23.2278 139.175 27.6582 134.5 33.8239 133.547C36.8584 133.078 39.5568 133.795 41.8444 135.678C49.2685 141.788 49.9794 158 50.0061 158.687L49.1767 158.72Z" fill="url(#paint8_linear_388_2074)"/>
<path d="M184.404 231.733C184.404 231.733 185.093 235.633 185.432 239.493C185.564 241.002 184.399 242.312 182.884 242.375C177.737 242.589 166.727 243.006 162.776 242.829C162.182 242.803 161.794 242.196 162.014 241.644C162.198 241.182 162.553 240.808 163.006 240.6L181.192 232.252L184.404 231.733Z" fill="url(#paint9_linear_388_2074)"/>
<path d="M184.97 229.442L184.416 234.107C184.416 234.107 181.23 235.588 179.054 233.92L180.374 228.722L184.97 229.442Z" fill="url(#paint10_linear_388_2074)"/>
<path d="M184.553 141.746C184.792 142.964 185.837 202.533 179.462 229.229C179.358 229.664 179.579 230.113 179.994 230.283C180.972 230.682 182.889 231.259 185.186 231.337C185.898 231.36 186.536 230.898 186.737 230.217C188.559 224.023 197.292 192.991 198.431 163.347C199.704 130.222 198.431 162.219 198.431 162.219L197.684 141.743L184.553 141.746Z" fill="url(#paint11_linear_388_2074)"/>
<path d="M205.324 233.768C205.324 233.768 206.422 235.736 207.485 240.968C207.677 241.913 207.016 242.817 206.055 242.911C204.356 243.078 201.739 243.293 199.643 243.278C198.677 243.272 197.923 242.431 198.04 241.473C198.272 239.564 198.995 236.431 201.229 233.989L205.324 233.768Z" fill="url(#paint12_linear_388_2074)"/>
<path d="M206.289 227.768L204.994 234.822C204.994 234.822 203.714 235.773 201.181 235.083L201.799 227.494L206.289 227.768Z" fill="url(#paint13_linear_388_2074)"/>
<path d="M209.787 143.574C215.001 175.003 208.656 221.254 206.516 230.307C206.385 230.861 205.937 231.286 205.374 231.379C204.419 231.537 202.847 231.666 201.296 231.216C200.762 231.061 200.387 230.58 200.365 230.025C200.078 222.706 200.595 177.777 195.736 160.021C195.49 159.121 194.94 158.336 194.178 157.795L184.748 151.1L184.025 140.277L209.787 143.574Z" fill="url(#paint14_linear_388_2074)"/>
<path d="M179.054 85.1418C179.054 85.1418 203.008 79.1795 219.76 88.0405L209.787 143.574C209.787 143.574 193.921 144.851 184.026 141.707L179.054 85.1418Z" fill="#1B3E77" fill-opacity="0.9"/>
<path d="M205.918 68.5039L207.751 84.2622C207.868 84.4851 207.811 84.7602 207.611 84.9135C206.383 85.8562 201.879 88.7249 195.503 85.9198C194.839 85.6276 194.331 85.064 194.131 84.3671L196.725 70.71L205.918 68.5039Z" fill="url(#paint15_linear_388_2074)"/>
<path d="M191.215 60.2891C191.215 60.2891 188.882 71.6762 190.726 75.4562C192.571 79.2362 198.977 77.0411 203.692 72.1433L204.518 60.3461L191.215 60.2891Z" fill="url(#paint16_linear_388_2074)"/>
<path d="M201.902 66.9955C201.642 66.9613 201.474 66.7049 201.55 66.4538C201.78 65.6902 202.182 64.1526 202.095 62.9352C202.095 62.9352 202.859 62.056 199.286 62.2401C195.713 62.4239 190.37 62.6498 188.487 60.1199C186.651 57.6534 187.279 49.9074 193.19 54.1932C193.415 54.3563 193.735 54.2671 193.835 54.0082C194.268 52.8909 195.553 50.4573 198.45 50.8513C201.16 51.2199 201.947 52.8929 202.174 53.7858C202.241 54.0485 202.533 54.1821 202.775 54.0581C203.917 53.4715 206.764 52.4187 208.997 54.9962C210.837 57.1192 210.521 58.7207 210.06 59.5939C209.91 59.8767 210.111 60.2112 210.431 60.2146C211.299 60.2238 212.525 60.5953 212.971 62.4872C213.588 65.1028 210.64 65.7234 209.785 65.8474C209.645 65.8679 209.523 65.9538 209.462 66.081C208.988 67.0653 206.792 71.2984 203.48 72.7051C203.193 72.8271 202.876 72.6018 202.89 72.2908L203.104 67.5449C203.114 67.3244 202.953 67.1332 202.734 67.1044L201.902 66.9955Z" fill="url(#paint17_linear_388_2074)"/>
<path d="M201.486 67.783C201.486 67.783 204.461 64.1304 205.368 66.2023C206.275 68.274 202.929 70.3071 200.895 70.0338L201.486 67.783Z" fill="url(#paint18_linear_388_2074)"/>
<path d="M224.14 118.524C224.14 118.524 222.507 139.377 208.762 140.277C208.762 140.277 202.871 139.737 200.313 141.743C197.756 143.749 198.996 146.839 198.996 146.839L210.085 145.489C210.085 145.489 225.944 148.126 235.48 121.613L224.14 118.524Z" fill="url(#paint19_linear_388_2074)"/>
<path d="M219.759 88.0403C219.759 88.0403 238.574 99.2181 235.481 121.613C235.481 121.613 228.76 124.522 223.873 120.622C223.873 120.622 220.065 106.072 211.794 105.348L219.759 88.0403Z" fill="#1B3E77" fill-opacity="0.9"/>
<path d="M166.553 96.0536C166.553 96.0536 157.518 100.248 146.951 89.0505C139.729 81.3978 135.311 86.09 133.915 89.1791C132.518 92.2681 135.859 92.0107 137.023 92.0107C138.188 92.0107 138.333 88.6501 140.387 89.1076C142.441 89.5654 141.836 88.9526 141.965 91.012C142.094 93.0712 153.136 116.326 166.796 105L166.553 96.0536Z" fill="url(#paint20_linear_388_2074)"/>
<path d="M125.005 99.3028L156.051 97.5636C158.882 97.405 161.365 99.2265 161.727 101.727L168.679 149.723C169.094 152.585 166.587 155.119 163.342 155.119H122.832C119.758 155.119 117.308 152.833 117.456 150.104L119.968 103.847C120.1 101.413 122.269 99.456 125.005 99.3028Z" fill="url(#paint21_linear_388_2074)"/>
<path d="M130.248 104.179C129.77 104.179 129.374 103.804 129.354 103.323C129.328 102.707 128.842 88.2091 139.058 86.6145C141.243 86.2752 143.182 86.7867 144.822 88.1393C149.795 92.2447 150.215 102.808 150.231 103.255C150.248 103.748 149.861 104.161 149.368 104.179C148.877 104.187 148.46 103.81 148.442 103.317C148.439 103.215 148.034 93.1075 143.68 89.5159C142.437 88.4895 141.014 88.1201 139.334 88.3808C130.679 89.7311 131.136 103.114 131.142 103.249C131.163 103.742 130.779 104.158 130.285 104.179C130.273 104.179 130.26 104.179 130.248 104.179Z" fill="#BDD0FB"/>
<path d="M179.054 85.1416L164.477 96.0536C164.477 96.0536 164.219 104.229 166.152 108.094L182.389 104.109L179.054 85.1416Z" fill="#1B3E77" fill-opacity="0.9"/>
<path d="M86.3394 170.565V183.491C86.3394 188.305 88.1521 192.941 90.7647 196.985L93.2373 200.144C96.0997 204.57 101 207.101 106.274 207.101H160.429L160.839 205.711L174.112 157.142L185.25 151.144L183.591 148.115L171.147 154.854L166.88 170.565H86.3394V170.565ZM90.2036 174.424H165.931L160.589 194.105L157.771 204.528H106.274C102.186 204.528 98.3477 202.139 96.1317 198.71L93.8809 195.125C91.6292 191.647 90.2036 187.633 90.2036 183.491V174.424Z" fill="url(#paint22_linear_388_2074)"/>
<path d="M93.8179 224.728C93.8179 225.686 94.5982 226.656 95.5611 226.656H159.101C160.064 226.656 160.791 225.297 160.791 224.34V194.415C160.791 194.085 160.726 194.119 160.566 193.856L157.772 204.528H156.927V222.796H95.5611C94.5982 222.796 93.8179 223.767 93.8179 224.728Z" fill="url(#paint23_linear_388_2074)"/>
<path d="M129.093 172.382H126.774V204.957H129.093V172.382Z" fill="url(#paint24_linear_388_2074)"/>
<path d="M149.581 172.382H147.261V204.957H149.581V172.382Z" fill="url(#paint25_linear_388_2074)"/>
<path d="M109.089 172.382H106.77V204.957H109.089V172.382Z" fill="url(#paint26_linear_388_2074)"/>
<path d="M165.05 181.964H89.6104V184.036H165.05V181.964Z" fill="url(#paint27_linear_388_2074)"/>
<path d="M161.757 193.303H91.5005V195.375H161.757V193.303Z" fill="url(#paint28_linear_388_2074)"/>
<path d="M143.47 236.517C143.47 240.65 146.824 244 150.961 244C155.099 244 158.453 240.65 158.453 236.517C158.453 232.385 155.099 229.035 150.961 229.035C146.824 229.035 143.47 232.385 143.47 236.517ZM146.44 236.517C146.44 234.023 148.464 232.001 150.961 232.001C153.459 232.001 155.483 234.023 155.483 236.517C155.483 239.012 153.459 241.034 150.961 241.034C148.464 241.034 146.44 239.012 146.44 236.517Z" fill="url(#paint29_linear_388_2074)"/>
<path d="M96.9141 236.517C96.9141 240.65 100.268 244 104.406 244C108.544 244 111.898 240.65 111.898 236.517C111.898 232.385 108.544 229.035 104.406 229.035C100.268 229.035 96.9141 232.385 96.9141 236.517ZM99.8841 236.517C99.8841 234.023 101.908 232.001 104.406 232.001C106.903 232.001 108.928 234.023 108.928 236.517C108.928 239.012 106.903 241.034 104.406 241.034C101.908 241.034 99.8841 239.012 99.8841 236.517Z" fill="url(#paint30_linear_388_2074)"/>
<path d="M175.873 151.142C175.873 153.084 177.449 154.658 179.393 154.658H191.105C193.049 154.658 194.625 153.084 194.625 151.142C194.625 149.201 193.049 147.627 191.105 147.627H179.393C177.449 147.627 175.873 149.201 175.873 151.142Z" fill="url(#paint31_linear_388_2074)"/>
<defs>
<linearGradient id="paint0_linear_388_2074" x1="264.338" y1="279.561" x2="93.7861" y2="97.7815" gradientUnits="userSpaceOnUse">
<stop stop-color="#DAE3FE"/>
<stop offset="1" stop-color="#E9EFFD"/>
</linearGradient>
<linearGradient id="paint1_linear_388_2074" x1="177.357" y1="17.8496" x2="190.37" y2="-115.407" gradientUnits="userSpaceOnUse">
<stop stop-color="#09005D"/>
<stop offset="1" stop-color="#1A0F91"/>
</linearGradient>
<linearGradient id="paint2_linear_388_2074" x1="177.457" y1="136.932" x2="-157.335" y2="224.329" gradientUnits="userSpaceOnUse">
<stop stop-color="#6365EC"/>
<stop offset="1" stop-color="#4042E2"/>
</linearGradient>
<linearGradient id="paint3_linear_388_2074" x1="333.957" y1="80.335" x2="270.541" y2="112.379" gradientUnits="userSpaceOnUse">
<stop stop-color="#4F52FF"/>
<stop offset="1" stop-color="#6365EC"/>
</linearGradient>
<linearGradient id="paint4_linear_388_2074" x1="162.968" y1="-62.3188" x2="159.715" y2="-13.7547" gradientUnits="userSpaceOnUse">
<stop stop-color="#09005D"/>
<stop offset="1" stop-color="#1A0F91"/>
</linearGradient>
<linearGradient id="paint5_linear_388_2074" x1="116.036" y1="11.8616" x2="129.049" y2="-121.395" gradientUnits="userSpaceOnUse">
<stop stop-color="#09005D"/>
<stop offset="1" stop-color="#1A0F91"/>
</linearGradient>
<linearGradient id="paint6_linear_388_2074" x1="104.248" y1="-1.28535" x2="98.0374" y2="47.2801" gradientUnits="userSpaceOnUse">
<stop stop-color="#09005D"/>
<stop offset="1" stop-color="#1A0F91"/>
</linearGradient>
<linearGradient id="paint7_linear_388_2074" x1="58.6557" y1="6.25827" x2="71.6691" y2="-126.999" gradientUnits="userSpaceOnUse">
<stop stop-color="#09005D"/>
<stop offset="1" stop-color="#1A0F91"/>
</linearGradient>
<linearGradient id="paint8_linear_388_2074" x1="67.8657" y1="56.974" x2="50.7077" y2="107.919" gradientUnits="userSpaceOnUse">
<stop stop-color="#09005D"/>
<stop offset="1" stop-color="#1A0F91"/>
</linearGradient>
<linearGradient id="paint9_linear_388_2074" x1="163.352" y1="226.344" x2="229.861" y2="298.777" gradientUnits="userSpaceOnUse">
<stop stop-color="#09005D"/>
<stop offset="1" stop-color="#1A0F91"/>
</linearGradient>
<linearGradient id="paint10_linear_388_2074" x1="184.97" y1="231.717" x2="179.054" y2="231.717" gradientUnits="userSpaceOnUse">
<stop stop-color="#FEBBBA"/>
<stop offset="1" stop-color="#FF928E"/>
</linearGradient>
<linearGradient id="paint11_linear_388_2074" x1="178.534" y1="120.016" x2="194.551" y2="223.583" gradientUnits="userSpaceOnUse">
<stop stop-color="#09005D"/>
<stop offset="1" stop-color="#1A0F91"/>
</linearGradient>
<linearGradient id="paint12_linear_388_2074" x1="178.292" y1="212.625" x2="244.801" y2="285.057" gradientUnits="userSpaceOnUse">
<stop stop-color="#09005D"/>
<stop offset="1" stop-color="#1A0F91"/>
</linearGradient>
<linearGradient id="paint13_linear_388_2074" x1="206.289" y1="231.414" x2="201.181" y2="231.414" gradientUnits="userSpaceOnUse">
<stop stop-color="#FEBBBA"/>
<stop offset="1" stop-color="#FF928E"/>
</linearGradient>
<linearGradient id="paint14_linear_388_2074" x1="192.696" y1="117.826" x2="208.712" y2="221.394" gradientUnits="userSpaceOnUse">
<stop stop-color="#09005D"/>
<stop offset="1" stop-color="#1A0F91"/>
</linearGradient>
<linearGradient id="paint15_linear_388_2074" x1="205.547" y1="103.278" x2="198.892" y2="70.8515" gradientUnits="userSpaceOnUse">
<stop stop-color="#FEBBBA"/>
<stop offset="1" stop-color="#FF928E"/>
</linearGradient>
<linearGradient id="paint16_linear_388_2074" x1="191.783" y1="72.4602" x2="204.849" y2="58.0376" gradientUnits="userSpaceOnUse">
<stop stop-color="#FEBBBA"/>
<stop offset="1" stop-color="#FF928E"/>
</linearGradient>
<linearGradient id="paint17_linear_388_2074" x1="210.289" y1="45.3291" x2="194.504" y2="67.661" gradientUnits="userSpaceOnUse">
<stop stop-color="#09005D"/>
<stop offset="1" stop-color="#1A0F91"/>
</linearGradient>
<linearGradient id="paint18_linear_388_2074" x1="197.04" y1="74.8511" x2="208.796" y2="61.8747" gradientUnits="userSpaceOnUse">
<stop stop-color="#FEBBBA"/>
<stop offset="1" stop-color="#FF928E"/>
</linearGradient>
<linearGradient id="paint19_linear_388_2074" x1="216.824" y1="144.269" x2="217.651" y2="109.821" gradientUnits="userSpaceOnUse">
<stop stop-color="#FEBBBA"/>
<stop offset="1" stop-color="#FF928E"/>
</linearGradient>
<linearGradient id="paint20_linear_388_2074" x1="150" y1="105.52" x2="150.65" y2="78.4448" gradientUnits="userSpaceOnUse">
<stop stop-color="#FEBBBA"/>
<stop offset="1" stop-color="#FF928E"/>
</linearGradient>
<linearGradient id="paint21_linear_388_2074" x1="194.972" y1="49.4108" x2="148.8" y2="120.532" gradientUnits="userSpaceOnUse">
<stop stop-color="#FF928E"/>
<stop offset="1" stop-color="#FE7062"/>
</linearGradient>
<linearGradient id="paint22_linear_388_2074" x1="-121.589" y1="-730.989" x2="-29.2969" y2="-407.567" gradientUnits="userSpaceOnUse">
<stop stop-color="#FF928E"/>
<stop offset="1" stop-color="#FE7062"/>
</linearGradient>
<linearGradient id="paint23_linear_388_2074" x1="-140.25" y1="-725.661" x2="-47.9578" y2="-402.239" gradientUnits="userSpaceOnUse">
<stop stop-color="#FF928E"/>
<stop offset="1" stop-color="#FE7062"/>
</linearGradient>
<linearGradient id="paint24_linear_388_2074" x1="-134.127" y1="-727.41" x2="-41.8347" y2="-403.989" gradientUnits="userSpaceOnUse">
<stop stop-color="#FF928E"/>
<stop offset="1" stop-color="#FE7062"/>
</linearGradient>
<linearGradient id="paint25_linear_388_2074" x1="-115.186" y1="-732.814" x2="-22.893" y2="-409.39" gradientUnits="userSpaceOnUse">
<stop stop-color="#FF928E"/>
<stop offset="1" stop-color="#FE7062"/>
</linearGradient>
<linearGradient id="paint26_linear_388_2074" x1="-152.621" y1="-722.134" x2="-60.3283" y2="-398.713" gradientUnits="userSpaceOnUse">
<stop stop-color="#FF928E"/>
<stop offset="1" stop-color="#FE7062"/>
</linearGradient>
<linearGradient id="paint27_linear_388_2074" x1="-133.186" y1="-727.679" x2="-40.8931" y2="-404.256" gradientUnits="userSpaceOnUse">
<stop stop-color="#FF928E"/>
<stop offset="1" stop-color="#FE7062"/>
</linearGradient>
<linearGradient id="paint28_linear_388_2074" x1="-136.833" y1="-726.637" x2="-44.5407" y2="-403.215" gradientUnits="userSpaceOnUse">
<stop stop-color="#FF928E"/>
<stop offset="1" stop-color="#FE7062"/>
</linearGradient>
<linearGradient id="paint29_linear_388_2074" x1="-125.492" y1="-729.874" x2="-33.1996" y2="-406.452" gradientUnits="userSpaceOnUse">
<stop stop-color="#FF928E"/>
<stop offset="1" stop-color="#FE7062"/>
</linearGradient>
<linearGradient id="paint30_linear_388_2074" x1="-168.533" y1="-717.591" x2="-76.2409" y2="-394.169" gradientUnits="userSpaceOnUse">
<stop stop-color="#FF928E"/>
<stop offset="1" stop-color="#FE7062"/>
</linearGradient>
<linearGradient id="paint31_linear_388_2074" x1="-71.212" y1="-745.362" x2="21.0801" y2="-421.94" gradientUnits="userSpaceOnUse">
<stop stop-color="#FF928E"/>
<stop offset="1" stop-color="#FE7062"/>
</linearGradient>
</defs>
</svg>
