<svg width="300" height="244" viewBox="0 0 300 244" fill="none" xmlns="http://www.w3.org/2000/svg">
<path d="M20.9102 143.927C11.7683 122.849 12.4653 97.8047 20.9679 76.46C30.0219 53.7308 48.815 36.0081 69.8381 23.5644C106.859 1.65166 152.68 -5.47693 194.16 5.85548C204.865 8.78024 215.396 12.9583 224.209 19.7158C233.022 26.4733 240.029 36.0338 242.154 46.9506C243.626 54.5107 242.737 62.3448 243.757 69.9796C247.803 100.28 276.178 114.387 275.799 144.956C275.563 164.057 262.547 177.43 244.324 189.305C228.347 199.716 64.2506 243.854 20.9102 143.927Z" fill="#EFF4F9"/>
<path d="M150 244C232.843 244 300 240.278 300 235.687C300 231.096 232.843 227.375 150 227.375C67.1573 227.375 0 231.096 0 235.687C0 240.278 67.1573 244 150 244Z" fill="#E9ECF2"/>
<path d="M39.2798 137.546C39.3 137.717 39.3198 137.884 39.34 138.055C41.7705 158.965 46.2715 174.881 51.7243 186.998L63.4012 192.099L54.399 192.025L54.1419 192.023C60.9461 205.221 68.8593 213.232 75.9399 218.092C80.3453 221.124 84.4297 222.933 87.7225 224.01C87.9397 224.083 88.1524 224.151 88.3652 224.216C88.8943 224.382 89.4047 224.524 89.8879 224.652L95.8204 224.097C95.8609 223.811 95.8979 223.529 95.9305 223.243C95.9556 223.063 95.9769 222.883 95.9941 222.705C96.0267 222.47 96.0509 222.231 96.0756 221.996C99.1092 194.099 87.2106 173.948 73.5258 160.347C73.4878 160.3 73.4419 160.258 73.391 160.212C68.6313 155.494 63.6539 151.565 59.0245 148.38L57.3917 155.405L55.6587 146.154C47.658 141.047 41.2265 138.326 39.6515 137.692C39.4066 137.593 39.2798 137.546 39.2798 137.546Z" fill="#9AADE5"/>
<path d="M39.0854 137.674L39.3401 138.055L55.1351 161.658L55.4185 162.075L59.7236 168.511L59.8697 168.725L73.6005 189.241L73.6197 189.269L95.9943 222.704L96.3314 223.205L96.8645 223.999L97.3823 223.951L96.8531 223.156L96.0757 221.996L73.9948 189.002L73.5842 188.39L39.6516 137.692L39.4655 137.414L39.0854 137.674Z" fill="white"/>
<path d="M43.4221 160.467L43.2456 160.827L59.7459 168.963L59.9224 168.604L43.4221 160.467Z" fill="white"/>
<path d="M42.5832 155.471L42.4067 155.83L55.3403 162.207L55.5168 161.847L42.5832 155.471Z" fill="white"/>
<path d="M73.5301 160.216L73.1304 160.222L73.6069 189.277L74.0067 189.271L73.5301 160.216Z" fill="white"/>
<path d="M98.8601 228.36C98.8601 228.36 85.8702 237.017 64.2849 228.063L70.2751 224.056L59.8287 226.021C51.2866 221.723 41.5732 214.689 30.9239 203.521L33.2102 201.994L30.0428 202.588C28.2437 200.676 26.4169 198.644 24.5654 196.486C24.5654 196.486 30.3197 195.112 38.7947 194.855L43.9207 200.035L41.9207 194.82C59.343 194.911 85.4595 200.222 98.8601 228.36Z" fill="#1B3E77" fill-opacity="0.9"/>
<path d="M24.6505 196.287L24.4814 196.707L99.6428 227.12L99.8118 226.7L24.6505 196.287Z" fill="white"/>
<path d="M44.1044 204.369L34.3413 206.847L34.4442 207.254L44.2073 204.776L44.1044 204.369Z" fill="white"/>
<path d="M49.2191 206.364L37.9604 210.124L38.0931 210.523L49.3517 206.763L49.2191 206.364Z" fill="white"/>
<path d="M78.8227 205.24L79.1134 204.797C72.5457 200.472 64.8811 197.472 56.3311 195.881L56.2344 196.403C64.7143 197.981 72.3142 200.954 78.8227 205.24Z" fill="#1B3E77" fill-opacity="0.9"/>
<path d="M182.346 49.7957V231.016C182.346 233.547 180.304 235.6 177.774 235.6H88.914C86.3897 235.6 84.3418 233.547 84.3418 231.016V49.7957C84.3418 47.2599 86.3897 45.2124 88.914 45.2124H177.774C180.304 45.2124 182.346 47.2599 182.346 49.7957Z" fill="#1B3E77" fill-opacity="0.9"/>
<path d="M188.195 49.7957V231.016C188.195 233.547 186.152 235.6 183.623 235.6H94.7626C92.2383 235.6 90.1904 233.547 90.1904 231.016V49.7957C90.1904 47.2599 92.2383 45.2124 94.7626 45.2124H183.623C186.152 45.2124 188.195 47.2599 188.195 49.7957Z" fill="#1B3E77" fill-opacity="0.7"/>
<path d="M181.465 68.5866V212.225C181.465 215.15 179.251 217.521 176.519 217.521H101.866C99.1347 217.521 96.9204 215.15 96.9204 212.225V68.5866C96.9204 65.6614 99.1347 63.2903 101.866 63.2903H176.519C179.25 63.2903 181.465 65.6614 181.465 68.5866Z" fill="#E1EAFF"/>
<path d="M151.541 53.9484H126.847C126.603 53.9484 126.406 53.7505 126.406 53.5066C126.406 53.2626 126.603 53.0647 126.847 53.0647H151.541C151.784 53.0647 151.982 53.2626 151.982 53.5066C151.982 53.7505 151.784 53.9484 151.541 53.9484Z" fill="#A2C3F2"/>
<path d="M177.474 218.582H100.912C97.5315 218.582 94.7817 215.731 94.7817 212.225V68.5867C94.7817 65.081 97.5315 62.2295 100.912 62.2295H177.474C180.854 62.2295 183.604 65.0815 183.604 68.5867V212.225C183.604 215.731 180.854 218.582 177.474 218.582ZM100.912 64.3512C98.6989 64.3512 96.8983 66.2512 96.8983 68.5867V212.225C96.8983 214.561 98.6989 216.461 100.912 216.461H177.474C179.687 216.461 181.487 214.561 181.487 212.225V68.5867C181.487 66.2512 179.687 64.3512 177.474 64.3512H100.912Z" fill="white"/>
<path d="M188.595 49.7956V205.054H187.8V49.7956C187.8 47.4899 185.924 45.6096 183.624 45.6096H94.7625C92.4623 45.6096 90.5867 47.4899 90.5867 49.7956V174.302H89.792V49.7956C89.792 47.0495 92.023 44.813 94.7625 44.813H183.624C186.363 44.813 188.595 47.0495 188.595 49.7956Z" fill="#1B3E77"/>
<path d="M104.981 235.997H94.7625C92.0225 235.997 89.7935 233.762 89.7935 231.015V210.058H90.5872V231.015C90.5872 233.323 92.4598 235.201 94.762 235.201H104.981V235.997H104.981Z" fill="#1B3E77"/>
<path d="M155.398 235.202H116.324V235.998H155.398V235.202Z" fill="#1B3E77"/>
<path d="M221.072 232.854C221.072 234.222 211.044 235.336 198.677 235.336C186.31 235.336 176.282 234.222 176.282 232.854C176.282 232.827 176.288 232.806 176.293 232.78V226.069H221.057V232.764C221.066 232.795 221.072 232.822 221.072 232.854Z" fill="#F49B51"/>
<path d="M198.676 228.612C211.044 228.612 221.07 227.501 221.07 226.13C221.07 224.759 211.044 223.647 198.676 223.647C186.308 223.647 176.282 224.759 176.282 226.13C176.282 227.501 186.308 228.612 198.676 228.612Z" fill="#FCC659"/>
<path d="M226.364 224.757C226.364 226.126 216.336 227.24 203.969 227.24C191.602 227.24 181.574 226.126 181.574 224.757C181.574 224.73 181.58 224.71 181.585 224.683V217.972H226.348V224.667C226.358 224.699 226.364 224.725 226.364 224.757Z" fill="#F49B51"/>
<path d="M203.968 220.516C216.336 220.516 226.362 219.404 226.362 218.033C226.362 216.662 216.336 215.551 203.968 215.551C191.6 215.551 181.574 216.662 181.574 218.033C181.574 219.404 191.6 220.516 203.968 220.516Z" fill="#FCC659"/>
<path d="M221.072 216.661C221.072 218.029 211.044 219.143 198.677 219.143C186.31 219.143 176.282 218.029 176.282 216.661C176.282 216.634 176.288 216.613 176.293 216.586V209.876H221.057V216.571C221.066 216.602 221.072 216.629 221.072 216.661Z" fill="#F49B51"/>
<path d="M198.676 212.42C211.044 212.42 221.07 211.308 221.07 209.937C221.07 208.566 211.044 207.455 198.676 207.455C186.308 207.455 176.282 208.566 176.282 209.937C176.282 211.308 186.308 212.42 198.676 212.42Z" fill="#FCC659"/>
<path d="M198.679 235.599C189.571 235.599 176.02 234.867 176.02 232.851H176.549C176.549 233.625 184.149 235.069 198.679 235.069C199.207 235.069 199.731 235.067 200.25 235.062L200.254 235.593C199.735 235.597 199.209 235.599 198.679 235.599Z" fill="#1B3E77"/>
<path d="M207.558 235.396L207.533 234.867C209.801 234.758 211.88 234.609 213.713 234.424L213.766 234.952C211.924 235.137 209.835 235.287 207.558 235.396Z" fill="#1B3E77"/>
<path d="M189.841 226.906C181.425 226.139 181.425 225.075 181.425 224.725H181.954C181.954 224.984 183.379 225.784 189.888 226.378L189.841 226.906Z" fill="#1B3E77"/>
<path d="M204.084 227.473C201.567 227.473 199.095 227.427 196.735 227.336L196.756 226.806C200.969 226.969 205.626 226.987 209.967 226.855L209.982 227.386C208.061 227.444 206.076 227.473 204.084 227.473Z" fill="#1B3E77"/>
<path d="M215.542 227.124L215.507 226.595C217.895 226.437 219.978 226.233 221.697 225.99L221.772 226.515C220.039 226.76 217.943 226.965 215.542 227.124Z" fill="#1B3E77"/>
<path d="M183.619 212.051C176.155 211.288 176.155 210.325 176.155 209.962H176.684C176.684 209.97 176.874 210.829 183.673 211.524L183.619 212.051Z" fill="#1B3E77"/>
<path d="M198.814 212.71C196.24 212.71 193.722 212.662 191.331 212.568L191.352 212.037C193.736 212.132 196.247 212.179 198.814 212.179C203.41 212.179 207.824 212.026 211.579 211.736L211.619 212.265C207.852 212.556 203.424 212.71 198.814 212.71Z" fill="#1B3E77"/>
<path d="M229.01 208.564C229.01 209.933 218.982 211.047 206.616 211.047C194.249 211.047 184.221 209.933 184.221 208.564C184.221 208.538 184.226 208.517 184.232 208.49V201.78H228.995V208.474C229.005 208.506 229.01 208.533 229.01 208.564Z" fill="#F49B51"/>
<path d="M206.614 204.323C218.981 204.323 229.007 203.212 229.007 201.841C229.007 200.47 218.981 199.358 206.614 199.358C194.246 199.358 184.22 200.47 184.22 201.841C184.22 203.212 194.246 204.323 206.614 204.323Z" fill="#FCC659"/>
<path d="M224.854 201.841C224.854 202.762 216.687 203.51 206.613 203.51C196.54 203.51 188.373 202.762 188.373 201.841C188.373 200.918 196.54 200.171 206.613 200.171C216.687 200.171 224.854 200.919 224.854 201.841Z" fill="#F49B51"/>
<g opacity="0.38">
<path d="M188.09 120.577V185.03H132.09C129.907 185.03 128.124 183.52 128.124 181.67V123.932C128.124 122.086 129.908 120.577 132.09 120.577H188.09Z" fill="#A3B2CE"/>
</g>
<path d="M147.016 6.90518C134.529 7.25747 124.692 17.6928 125.044 30.2147C125.396 42.7322 135.806 52.597 148.297 52.2397C160.784 51.8874 170.625 41.4516 170.268 28.9302C169.917 16.4128 159.507 6.55238 147.016 6.90518ZM165.858 29.0564C165.995 33.9287 164.231 38.564 160.888 42.1077C157.549 45.6515 153.035 47.6811 148.171 47.8187C138.137 48.1012 129.741 40.1503 129.459 30.088C129.322 25.2162 131.081 20.581 134.425 17.0372C137.647 13.6191 141.967 11.6092 146.635 11.3495C146.805 11.3401 146.971 11.3356 147.141 11.3307C157.013 11.0476 165.291 18.7388 165.835 28.5581C165.845 28.7244 165.854 28.8901 165.858 29.0564Z" fill="#FCC659"/>
<path d="M165.835 28.558C165.844 28.7238 165.853 28.8901 165.858 29.0563C165.995 33.9286 164.23 38.5639 160.887 42.1081C157.548 45.6519 153.035 47.6821 148.17 47.8196C138.137 48.1021 129.74 40.1507 129.458 30.0885C129.321 25.2162 131.081 20.5809 134.424 17.0371C137.646 13.619 141.966 11.6092 146.634 11.3494C146.804 11.34 146.97 11.3355 147.141 11.3306C157.013 11.0471 165.291 18.7382 165.835 28.558Z" fill="#F49B51"/>
<path d="M147.277 43.5745L147.087 40.1455C145.121 40.2212 143.055 39.723 141.823 38.9402L142.51 36.6206C143.774 37.3672 145.571 37.9145 147.467 37.8091C149.872 37.6755 151.421 36.1926 151.314 34.2579C151.21 32.3905 149.825 31.3094 147.263 30.4306C143.732 29.2644 141.512 27.8215 141.349 24.8676C141.193 22.0497 143.072 19.7994 146.16 19.117L145.97 15.6881L148.07 15.5713L148.253 18.8647C150.289 18.8192 151.707 19.2853 152.722 19.8078L151.999 22.0957C151.265 21.7281 149.835 21.0586 147.667 21.1789C145.06 21.3238 144.164 22.9403 144.239 24.2986C144.337 26.064 145.639 26.877 148.653 27.9354C152.22 29.1674 154.08 30.8349 154.247 33.8561C154.396 36.5384 152.672 39.1544 149.215 39.9258L149.411 43.4567L147.277 43.5745Z" fill="#FCC659"/>
<path d="M164.836 24.0417C164.79 23.8957 164.74 23.7502 164.689 23.6058C162.97 18.6889 159.23 14.7726 154.415 12.831L154.599 12.3718C159.545 14.3674 163.39 18.3911 165.145 23.4133C165.207 23.5924 165.259 23.7413 165.307 23.8923L164.836 24.0417Z" fill="#1B3E77"/>
<path d="M154.415 12.8306C150.543 11.2685 146.225 11.1122 142.254 12.3868L142.104 11.9162C146.184 10.6045 150.621 10.7678 154.599 12.3719L154.415 12.8306Z" fill="#1B3E77"/>
<path d="M164.134 38.0021L163.695 37.776C164.79 35.6478 165.444 33.3752 165.639 31.0225L166.131 31.064C165.93 33.4811 165.258 35.8156 164.134 38.0021Z" fill="#1B3E77"/>
<path d="M161.424 11.9158C159.594 10.4799 157.565 9.34381 155.393 8.53976L155.576 8.04199C157.8 8.86583 159.877 10.0286 161.75 11.4982L161.424 11.9158Z" fill="#1B3E77"/>
<path d="M161.458 47.8773L161.139 47.4543C166.894 43.0862 170.208 36.1649 170.004 28.9404C169.877 24.4505 168.435 20.1572 165.834 16.5238L166.264 16.2146C168.927 19.9345 170.403 24.3298 170.533 28.9255C170.742 36.3208 167.349 43.4053 161.458 47.8773Z" fill="#1B3E77"/>
<path d="M87.8409 82.847C77.5672 85.2448 71.1796 95.5386 73.5726 105.841C75.9645 116.14 86.2342 122.547 96.5108 120.145C106.784 117.747 113.176 107.452 110.779 97.1502C108.387 86.8514 98.118 80.4482 87.8409 82.847ZM107.151 97.9983C108.082 102.007 107.4 106.14 105.228 109.636C103.06 113.132 99.6664 115.573 95.6638 116.507C87.409 118.433 79.1265 113.27 77.2039 104.992C76.273 100.983 76.9507 96.8508 79.1225 93.3546C81.2149 89.9825 84.4523 87.5911 88.2718 86.5887C88.411 86.552 88.5477 86.5204 88.6879 86.4877C96.809 84.5882 104.95 89.5565 107.048 97.5901C107.084 97.7256 107.119 97.8617 107.151 97.9983Z" fill="#FCC659"/>
<path d="M107.048 97.5898C107.084 97.7254 107.119 97.8615 107.151 97.998C108.082 102.006 107.4 106.14 105.228 109.637C103.061 113.132 99.6667 115.573 95.6641 116.507C87.4093 118.434 79.1263 113.271 77.2037 104.992C76.2728 100.983 76.9505 96.8506 79.1223 93.3538C81.2147 89.9818 84.4522 87.5904 88.2716 86.5879C88.4108 86.5513 88.5475 86.5197 88.6877 86.487C96.8093 84.5875 104.95 89.5557 107.048 97.5898Z" fill="#F49B51"/>
<path d="M94.2122 113.146L93.4797 110.34C91.8657 110.735 90.0724 110.671 88.9214 110.231L89.1005 108.195C90.2723 108.6 91.8508 108.75 93.4022 108.342C95.3697 107.826 96.4023 106.338 95.9886 104.755C95.5898 103.227 94.2625 102.567 91.9945 102.271C88.8779 101.902 86.7984 101.082 86.1671 98.6656C85.5649 96.3603 86.7426 94.1812 89.1835 93.0956L88.451 90.2901L90.1687 89.8394L90.8725 92.5335C92.5498 92.1525 93.802 92.299 94.729 92.5603L94.5148 94.5751C93.8459 94.3945 92.5503 94.0818 90.7768 94.5469C88.643 95.107 88.1731 96.5954 88.4633 97.7067C88.8404 99.151 90.0547 99.6042 92.7265 99.9714C95.885 100.389 97.7034 101.455 98.349 103.927C98.9221 106.122 97.9349 108.577 95.2043 109.799L95.959 112.687L94.2122 113.146Z" fill="#FCC659"/>
<path d="M105.464 94.0207C105.401 93.9079 105.335 93.7961 105.269 93.6848C103.022 89.9065 99.2685 87.2964 94.959 86.5018L95.034 86.0906C99.462 86.9075 103.318 89.5888 105.614 93.4482C105.695 93.5858 105.763 93.7006 105.828 93.8169L105.464 94.0207Z" fill="#1B3E77"/>
<path d="M94.9585 86.5018C91.4929 85.8621 87.8932 86.4613 84.8211 88.1856L84.6172 87.8215C87.7737 86.0481 91.4727 85.4341 95.0335 86.0907L94.9585 86.5018Z" fill="#1B3E77"/>
<path d="M107.225 105.692L106.824 105.578C107.372 103.633 107.532 101.642 107.299 99.662L107.713 99.6135C107.953 101.648 107.788 103.693 107.225 105.692Z" fill="#1B3E77"/>
<path d="M100.605 84.5629C98.849 83.6832 96.9793 83.0859 95.0469 82.7866L95.115 82.3438C97.0933 82.6505 99.007 83.2621 100.804 84.1626L100.605 84.5629Z" fill="#1B3E77"/>
<path d="M106.669 114.315L106.333 114.018C110.363 109.433 111.943 103.146 110.562 97.2029C109.703 93.5092 107.789 90.1995 105.026 87.632L105.33 87.3035C108.158 89.9323 110.118 93.3202 110.997 97.1015C112.411 103.186 110.793 109.62 106.669 114.315Z" fill="#1B3E77"/>
<path d="M136.409 180.081H225.904C227.747 180.081 229.254 178.57 229.254 176.724V118.985C229.254 117.138 227.747 115.628 225.904 115.628H136.409C134.567 115.628 133.06 117.139 133.06 118.985V176.724C133.06 178.57 134.567 180.081 136.409 180.081Z" fill="#4F52FF"/>
<path d="M157.269 159.946H141.157C140.658 159.946 140.25 159.537 140.25 159.037V155.933C140.25 155.432 140.658 155.023 141.157 155.023H157.269C157.768 155.023 158.176 155.432 158.176 155.933V159.037C158.176 159.537 157.768 159.946 157.269 159.946Z" fill="white"/>
<path d="M178.564 159.946H162.452C161.953 159.946 161.545 159.537 161.545 159.037V155.933C161.545 155.432 161.953 155.023 162.452 155.023H178.564C179.063 155.023 179.471 155.432 179.471 155.933V159.037C179.471 159.537 179.063 159.946 178.564 159.946Z" fill="white"/>
<path d="M199.86 159.946H183.749C183.25 159.946 182.842 159.537 182.842 159.037V155.933C182.842 155.432 183.25 155.023 183.749 155.023H199.86C200.359 155.023 200.768 155.432 200.768 155.933V159.037C200.768 159.537 200.359 159.946 199.86 159.946Z" fill="white"/>
<path d="M221.156 159.946H205.045C204.546 159.946 204.138 159.537 204.138 159.037V155.933C204.138 155.432 204.546 155.023 205.045 155.023H221.156C221.655 155.023 222.063 155.432 222.063 155.933V159.037C222.063 159.537 221.655 159.946 221.156 159.946Z" fill="white"/>
<path d="M220.959 169.576H199.763C199.156 169.576 198.659 169.078 198.659 168.469V165.759C198.659 165.151 199.156 164.653 199.763 164.653H220.959C221.566 164.653 222.063 165.151 222.063 165.759V168.469C222.063 169.078 221.566 169.576 220.959 169.576Z" fill="white"/>
<path d="M144.341 134.648V128.183C144.341 126.77 145.488 125.621 146.897 125.621H159.426C160.836 125.621 161.982 126.77 161.982 128.183V134.648C161.982 136.061 160.835 137.211 159.426 137.211H146.897C145.488 137.211 144.341 136.061 144.341 134.648ZM146.897 126.308C145.866 126.308 145.027 127.149 145.027 128.183V134.648C145.027 135.681 145.866 136.523 146.897 136.523H159.426C160.457 136.523 161.296 135.681 161.296 134.648V128.183C161.296 127.149 160.457 126.308 159.426 126.308H146.897Z" fill="white"/>
<path d="M219.092 130.519C219.092 130.439 219.123 130.359 219.183 130.298C222 127.474 222 122.878 219.183 120.054C219.061 119.932 219.061 119.735 219.183 119.614C219.304 119.492 219.501 119.492 219.622 119.614C222.681 122.681 222.682 127.672 219.622 130.739C219.501 130.861 219.304 130.861 219.183 130.739C219.122 130.678 219.092 130.598 219.092 130.519Z" fill="white"/>
<path d="M217.537 121.615C217.537 121.535 217.567 121.456 217.628 121.395C217.75 121.273 217.946 121.273 218.067 121.395C220.147 123.48 220.147 126.873 218.067 128.958C217.946 129.079 217.75 129.079 217.628 128.958C217.507 128.836 217.507 128.639 217.628 128.517C219.466 126.675 219.466 123.677 217.628 121.836C217.567 121.774 217.537 121.695 217.537 121.615Z" fill="white"/>
<path d="M216.046 127.085C216.046 127.005 216.076 126.925 216.137 126.864C217.065 125.934 217.065 124.419 216.137 123.488C216.016 123.366 216.016 123.169 216.137 123.048C216.258 122.926 216.455 122.926 216.576 123.048C217.747 124.221 217.747 126.131 216.576 127.305C216.455 127.427 216.258 127.427 216.137 127.305C216.076 127.244 216.046 127.164 216.046 127.085Z" fill="white"/>
<path d="M229.589 131.404H228.92V118.628C228.92 116.962 227.567 115.606 225.906 115.606H198.52V114.935H225.906C227.937 114.935 229.59 116.592 229.59 118.628L229.589 131.404Z" fill="#4042E2"/>
<path d="M229.589 138.114H228.92V145.502H229.589V138.114Z" fill="#4042E2"/>
<path d="M167.464 114.935H149.92V115.606H167.464V114.935Z" fill="#4042E2"/>
<path d="M231.377 48.4997C218.165 44.9134 204.554 52.7461 200.976 65.9958C197.398 79.2406 205.21 92.8892 218.429 96.4715C231.642 100.058 245.257 92.2266 248.831 78.9754C252.408 65.7306 244.595 52.0875 231.377 48.4997ZM244.163 77.7112C242.771 82.8665 239.458 87.1713 234.833 89.8303C230.213 92.4904 224.838 93.1905 219.69 91.7937C209.074 88.9115 202.771 77.9091 205.647 67.262C207.04 62.1067 210.347 57.8009 214.972 55.1419C219.43 52.5763 224.597 51.8366 229.577 53.0429C229.758 53.087 229.934 53.135 230.114 53.184C240.561 56.0147 246.822 66.7068 244.296 77.1823C244.254 77.3584 244.211 77.5355 244.163 77.7112Z" fill="#FCC659"/>
<path d="M244.298 77.1818C244.255 77.3589 244.212 77.5361 244.164 77.7117C242.772 82.867 239.459 87.1718 234.834 89.8309C230.214 92.4914 224.838 93.191 219.69 91.7942C209.074 88.912 202.771 77.9091 205.647 67.2615C207.04 62.1062 210.347 57.8 214.973 55.1409C219.431 52.5754 224.597 51.8352 229.578 53.042C229.759 53.086 229.934 53.134 230.115 53.183C240.563 56.0138 246.823 66.7064 244.298 77.1818Z" fill="#F49B51"/>
<path d="M220.091 87.0574L220.973 83.3994C218.886 82.8561 216.876 81.6785 215.829 80.4667L217.281 78.2505C218.373 79.4345 220.085 80.578 222.109 81.0679C224.674 81.6894 226.766 80.6245 227.264 78.5602C227.744 76.5682 226.632 74.9952 224.22 73.2614C220.884 70.9195 219.01 68.7023 219.769 65.551C220.494 62.545 223.176 60.7796 226.631 61.0418L227.513 57.3838L229.753 57.9266L228.906 61.4397C231.056 62.0369 232.398 62.9755 233.297 63.8449L231.818 66.0161C231.164 65.3981 229.874 64.2422 227.562 63.6821C224.78 63.0082 223.331 64.4203 222.982 65.8691C222.528 67.7528 223.638 69.018 226.467 71.0833C229.821 73.5059 231.246 75.8448 230.469 79.0679C229.779 81.9293 227.146 84.1282 223.276 83.8422L222.368 87.6086L220.091 87.0574Z" fill="#FCC659"/>
<path d="M244.673 72.1259C244.67 71.9582 244.663 71.7895 244.656 71.6217C244.403 65.9187 241.712 60.6243 237.273 57.0617L237.612 56.6382C242.172 60.2987 244.937 65.739 245.196 71.5643C245.204 71.7716 245.212 71.9448 245.215 72.118L244.673 72.1259Z" fill="#1B3E77"/>
<path d="M237.274 57.0618C233.704 54.1964 229.223 52.664 224.654 52.7432L224.645 52.2014C229.34 52.1178 233.944 53.6947 237.612 56.6383L237.274 57.0618Z" fill="#1B3E77"/>
<path d="M239.534 86.5511L239.146 86.1751C240.965 84.2889 242.368 82.1118 243.314 79.7046L243.817 79.904C242.844 82.377 241.403 84.6135 239.534 86.5511Z" fill="#1B3E77"/>
<path d="M244.916 58.3226C243.448 56.236 241.677 54.4013 239.651 52.8694L240.001 52.4053C242.074 53.9738 243.887 55.852 245.389 57.9881L244.916 58.3226Z" fill="#1B3E77"/>
<path d="M233.613 96.0644L233.411 95.5191C240.827 92.7596 246.487 86.5479 248.55 78.9027C249.832 74.1516 249.674 69.1903 248.089 64.5535L248.638 64.365C250.259 69.1116 250.423 74.1912 249.11 79.0541C246.998 86.8804 241.204 93.239 233.613 96.0644Z" fill="#1B3E77"/>
<path d="M168.374 124.3L185.781 136.117L199.713 121.156L193.171 121.813C193.091 121.362 192.995 120.915 192.906 120.468L192.767 119.798C192.745 119.687 192.722 119.576 192.692 119.465L192.195 117.527C190.655 112.072 188.051 107.027 184.65 102.728C181.253 98.4239 177.056 94.8593 172.404 92.2686C167.755 89.6699 162.655 88.0628 157.551 87.4829C152.444 86.8886 147.282 87.3374 142.49 88.7288C137.694 90.1172 133.265 92.4413 129.507 95.4689C125.744 98.4922 122.647 102.21 120.412 106.31C118.171 110.407 116.804 114.879 116.33 119.358C117.637 115.044 119.766 111.074 122.524 107.732C125.278 104.384 128.647 101.661 132.33 99.7128C136.012 97.7589 140.008 96.5897 143.984 96.2324C147.962 95.8737 151.916 96.319 155.578 97.4917C159.244 98.6564 162.571 100.512 165.359 102.887C168.149 105.259 170.399 108.143 171.987 111.274C173.579 114.405 174.336 117.806 174.801 121.105C174.903 121.831 175.037 123.695 175.037 123.695L168.374 124.3Z" fill="#446BD0"/>
<path d="M209.91 57.1969C211.746 58.1315 213.009 59.5669 213.873 61.3641C214.736 59.5669 216.005 58.1241 217.84 57.1889C216.004 56.2538 214.736 54.8188 213.873 53.0217C213.009 54.8188 211.746 56.2617 209.91 57.1969Z" fill="#FFE6A6"/>
<path d="M227.66 91.3745C228.727 91.9178 229.461 92.7515 229.963 93.796C230.464 92.7515 231.201 91.9133 232.268 91.37C231.201 90.8267 230.465 89.993 229.963 88.9485C229.461 89.993 228.727 90.8312 227.66 91.3745Z" fill="#FFE6A6"/>
<path d="M154.819 43.203C156.128 43.869 157.028 44.8918 157.643 46.1723C158.258 44.8918 159.161 43.8636 160.47 43.1976C159.161 42.5316 158.258 41.5088 157.643 40.2283C157.028 41.5088 156.128 42.5365 154.819 43.203Z" fill="#FFE6A6"/>
<path d="M76.6465 94.8922C77.7013 95.4291 78.4269 96.2534 78.9229 97.286C79.419 96.2539 80.1475 95.4246 81.2019 94.8877C80.147 94.3504 79.4185 93.5265 78.9229 92.4939C78.4269 93.5265 77.7013 94.3553 76.6465 94.8922Z" fill="#FFE6A6"/>
<path d="M150.115 48.1419C150.875 48.5289 151.399 49.1231 151.756 49.8673C152.113 49.1231 152.638 48.5259 153.399 48.1385C152.638 47.7515 152.113 47.1573 151.756 46.4131C151.399 47.1573 150.875 47.755 150.115 48.1419Z" fill="#FFE6A6"/>
<path d="M11.2525 123.809L10.7575 123.997C7.06588 114.243 7.65078 103.7 12.6005 90.8167L13.0941 91.0072C8.19423 103.762 7.60932 114.185 11.2525 123.809Z" fill="#1B3E77"/>
<path d="M9.73508 131.36L9.28542 131.639C-1.33967 114.414 4.86084 96.6805 12.3279 81.605L12.8018 81.8405C5.39935 96.7859 -0.753777 114.356 9.73508 131.36Z" fill="#1B3E77"/>
<path d="M235.294 23.784C226.772 13.1151 218.085 7.3571 207.957 5.66192L208.044 5.13892C218.308 6.85587 227.099 12.6747 235.707 23.4525L235.294 23.784Z" fill="#1B3E77"/>
<path d="M243.34 28.1492C234.192 14.2097 222.153 0.0281911 202.215 0.544267L202.202 0.0138426C222.398 -0.507677 234.554 13.796 243.782 27.8577L243.34 28.1492Z" fill="#1B3E77"/>
<path d="M171.656 111.442C170.072 108.319 167.812 105.458 165.118 103.17C162.355 100.814 159.017 98.9731 155.465 97.8445C151.837 96.6827 147.877 96.2527 144.016 96.6016C142.104 96.7737 140.185 97.1364 138.316 97.6807L138.109 96.9682C140.025 96.4106 141.99 96.039 143.95 95.8628C147.909 95.5046 151.969 95.9464 155.69 97.1379C159.334 98.2957 162.76 100.186 165.598 102.604C168.365 104.956 170.688 107.896 172.316 111.107L171.656 111.442Z" fill="#1B3E77"/>
<path d="M122.809 107.966L122.238 107.494C124.967 104.177 128.397 101.372 132.158 99.3835L132.503 100.04C128.828 101.983 125.476 104.724 122.809 107.966Z" fill="#1B3E77"/>
<path d="M191.838 117.627C190.342 112.325 187.756 107.252 184.36 102.957C181.036 98.747 176.84 95.1627 172.224 92.5917C167.714 90.0712 162.625 88.4314 157.508 87.85L157.591 87.1128C162.805 87.7051 167.989 89.3755 172.584 91.943C177.284 94.5605 181.557 98.2102 184.94 102.497C188.396 106.867 191.028 112.029 192.55 117.425L191.838 117.627Z" fill="#1B3E77"/>
<path d="M185.834 136.602L172.588 127.609L173.003 126.995L185.725 135.631L196.106 124.485L196.647 124.991L185.834 136.602Z" fill="#1B3E77"/>
</svg>
