<svg width="80" height="90" viewBox="0 0 80 90" fill="none" xmlns="http://www.w3.org/2000/svg">
<rect width="80" height="90" rx="4" fill="#E5EEFF"/>
<g clip-path="url(#clip0_68_1039)">
<path d="M48.0304 28.1989H20.1562C17.3586 28.1989 15.0715 30.4349 15 33.2223C15 33.2019 15 33.1713 15 33.1509V33.3551C15 33.3346 15 33.304 15 33.2836C15.0715 36.071 17.3484 38.3071 20.1562 38.3071H53.1866V33.3551C53.1866 30.5166 50.8791 28.1989 48.0304 28.1989Z" fill="#2268FF"/>
<path d="M48.0303 28.2091H38.5449V38.3173H53.1865V33.3653C53.1865 30.5166 50.879 28.2091 48.0303 28.2091Z" fill="#F77D0F"/>
<path d="M54.891 45.536H22.1873C20.8396 45.536 19.7471 44.4435 19.7471 43.0958V22.4403C19.7471 21.0925 20.8396 20 22.1873 20H54.891C56.2388 20 57.3313 21.0925 57.3313 22.4403V43.0958C57.3313 44.4435 56.2388 45.536 54.891 45.536Z" fill="#1B3E77"/>
<path d="M54.8907 20H38.5439V45.536H54.9009C56.2487 45.536 57.3412 44.4435 57.3412 43.0958V22.4403C57.331 21.0925 56.2385 20 54.8907 20Z" fill="#1B3E77"/>
<path d="M39.3514 20C39.0961 27.5352 32.8882 33.59 25.2917 33.59C23.3211 33.59 21.4424 33.1815 19.7373 32.4464V29.1689C21.371 30.1184 23.2701 30.6596 25.2917 30.6596C31.275 30.6494 36.1657 25.922 36.421 20L39.3514 20Z" fill="#695728"/>
<path d="M38.5449 20V24.2679C39.0248 22.9304 39.3107 21.4907 39.3617 20H38.5449Z" fill="#1B3E77"/>
<path d="M57.3321 34.9377V37.9191C55.5657 37.5822 53.8503 37.429 52.1452 37.6026C49.0719 37.9089 46.213 39.3486 43.1499 42.136C42.6598 42.5852 42.1595 43.0447 41.6796 43.494C40.9445 44.1781 40.2093 44.8724 39.4436 45.5462H34.6855C36.4417 44.3721 38.0243 42.8916 39.6784 41.3498C40.1685 40.8903 40.6688 40.4207 41.1793 39.9612C44.7325 36.7347 48.1223 35.0602 51.8491 34.6824C53.6972 34.4885 55.5657 34.6314 57.3321 34.9377Z" fill="#1B3E77"/>
<path d="M34.6953 45.5359H38.5446V42.4014C37.2887 43.5551 36.0431 44.6374 34.6953 45.5359Z" fill="#575982"/>
<path d="M27.6093 32.4362H24.0153C23.4639 32.4362 23.0146 31.987 23.0146 31.4356V29.0464C23.0146 28.495 23.4639 28.0458 24.0153 28.0458H27.6195C28.1709 28.0458 28.6201 28.495 28.6201 29.0464V31.4356C28.6099 31.987 28.1607 32.4362 27.6093 32.4362Z" fill="#424566"/>
<path d="M27.6192 32.3749H24.0048C23.4841 32.3749 23.0654 31.9563 23.0654 31.4356V29.0362C23.0654 28.5154 23.4841 28.0968 24.0048 28.0968H27.6192C28.14 28.0968 28.5586 28.5154 28.5586 29.0362V31.4356C28.5484 31.9563 28.1298 32.3749 27.6192 32.3749Z" fill="#FEBD55"/>
<path d="M28.5479 30.3125V30.1695H26.6386V29.5263L27.1287 29.0362H28.5479C28.5479 28.9851 28.5377 28.9341 28.5377 28.8933H27.0981C27.0776 28.8933 27.0572 28.9035 27.047 28.9137L26.5365 29.4242H25.8932V28.1071H25.7503V29.414H25.1071L24.5965 28.9035C24.5863 28.8933 24.5659 28.883 24.5455 28.883H23.0854C23.0752 28.9341 23.0752 28.9749 23.0752 29.026H24.5046L24.9947 29.5161V30.1695H23.0752V30.3125H24.9947V30.9659L24.5046 31.456H23.0752C23.0752 31.5071 23.0854 31.5581 23.0854 31.599H24.5353C24.5557 31.599 24.5761 31.5888 24.5863 31.5786L25.0968 31.0681H25.7401V32.375H25.883V31.0681H26.5263L27.0368 31.5786C27.047 31.5888 27.0674 31.599 27.0879 31.599H28.5275C28.5377 31.5479 28.5377 31.5071 28.5377 31.456H27.1185L26.6284 30.9659V30.3125H28.5479ZM26.4854 30.9149H25.1377V29.5569H26.4957V30.9149H26.4854Z" fill="#B5613C"/>
<path d="M53.4003 32.324C53.3697 32.324 53.3288 32.3138 53.2982 32.3036C53.1859 32.2525 53.145 32.1198 53.1961 32.0075C53.7577 30.8843 53.7577 29.5978 53.1961 28.4747C53.145 28.3624 53.1859 28.2296 53.2982 28.1786C53.4105 28.1275 53.5432 28.1684 53.5943 28.2807C54.2273 29.5264 54.2273 30.966 53.5943 32.2117C53.5535 32.2831 53.482 32.324 53.4003 32.324ZM52.6447 31.9054C53.2369 30.8435 53.2369 29.6285 52.6447 28.5768C52.5835 28.4747 52.4507 28.4338 52.3486 28.4951C52.2465 28.5564 52.2057 28.6891 52.267 28.7912C52.7877 29.7101 52.7877 30.772 52.267 31.6909C52.2057 31.793 52.2465 31.936 52.3486 31.987C52.3793 32.0075 52.4201 32.0177 52.461 32.0177C52.5222 32.0177 52.6039 31.9768 52.6447 31.9054ZM51.7054 31.6093C52.2772 30.7618 52.2772 29.7101 51.7054 28.8627C51.6339 28.7606 51.5012 28.7402 51.3991 28.8014C51.297 28.8729 51.2766 29.0056 51.3378 29.1077C51.8075 29.802 51.8075 30.6597 51.3378 31.354C51.2663 31.4561 51.297 31.5888 51.3991 31.6603C51.4399 31.6909 51.4808 31.7012 51.5216 31.7012C51.5931 31.7012 51.6645 31.6705 51.7054 31.6093ZM50.715 31.3234C51.0315 31.0273 51.2153 30.6393 51.2153 30.2411C51.2153 29.8327 51.0417 29.4549 50.715 29.1588C50.6231 29.0771 50.4904 29.0771 50.4087 29.169C50.327 29.2609 50.327 29.3936 50.4189 29.4753C50.6435 29.6897 50.7762 29.9552 50.7762 30.2411C50.7762 30.5168 50.6537 30.7924 50.4189 31.0069C50.327 31.0885 50.327 31.2315 50.4087 31.3132C50.4495 31.3642 50.5108 31.3846 50.572 31.3846C50.6129 31.3846 50.6741 31.3642 50.715 31.3234Z" fill="#CAD4FF"/>
<path d="M38.238 41.84H23.2901C23.1675 41.84 23.0654 41.7379 23.0654 41.6154C23.0654 41.4929 23.1675 41.3907 23.2901 41.3907H38.238C38.3605 41.3907 38.4626 41.4929 38.4626 41.6154C38.4626 41.7379 38.3605 41.84 38.238 41.84Z" fill="#E6EAFF"/>
<path d="M53.8501 41.84H51.0116C50.8891 41.84 50.787 41.7379 50.787 41.6154C50.787 41.4929 50.8891 41.3907 51.0116 41.3907H53.8501C53.9726 41.3907 54.0747 41.4929 54.0747 41.6154C54.0747 41.7379 53.9726 41.84 53.8501 41.84ZM49.817 41.6154C49.817 41.4929 49.7149 41.3907 49.5924 41.3907H46.7539C46.6314 41.3907 46.5293 41.4929 46.5293 41.6154C46.5293 41.7379 46.6314 41.84 46.7539 41.84H49.5924C49.7149 41.84 49.817 41.7379 49.817 41.6154Z" fill="#CAD4FF"/>
<path d="M23.2901 25.0031C23.1675 25.0031 23.0654 24.901 23.0654 24.7785V23.9208C23.0654 23.7983 23.1675 23.6962 23.2901 23.6962C23.4126 23.6962 23.5147 23.7983 23.5147 23.9208V24.7785C23.5147 24.9112 23.4126 25.0031 23.2901 25.0031ZM24.7093 24.7887V23.931C24.7093 23.8085 24.6072 23.7064 24.4847 23.7064C24.3621 23.7064 24.26 23.8085 24.26 23.931V24.7887C24.26 24.9112 24.3621 25.0133 24.4847 25.0133C24.6174 25.0031 24.7093 24.9112 24.7093 24.7887ZM25.9141 24.7887V23.931C25.9141 23.8085 25.812 23.7064 25.6895 23.7064C25.567 23.7064 25.4649 23.8085 25.4649 23.931V24.7887C25.4649 24.9112 25.567 25.0133 25.6895 25.0133C25.812 25.0031 25.9141 24.9112 25.9141 24.7887ZM27.1087 24.7887V23.931C27.1087 23.8085 27.0066 23.7064 26.8841 23.7064C26.7616 23.7064 26.6595 23.8085 26.6595 23.931V24.7887C26.6595 24.9112 26.7616 25.0133 26.8841 25.0133C27.0168 25.0031 27.1087 24.9112 27.1087 24.7887Z" fill="#E6EAFF"/>
<path d="M23.7494 38.103H23.7086C23.341 38.103 23.0449 37.807 23.0449 37.4394V36.3979C23.0449 36.0304 23.341 35.7343 23.7086 35.7343H23.7494C24.117 35.7343 24.4131 36.0304 24.4131 36.3979V37.4394C24.4233 37.807 24.117 38.103 23.7494 38.103ZM23.7086 36.1631C23.5861 36.1631 23.484 36.2652 23.484 36.3877V37.4292C23.484 37.5517 23.5861 37.6538 23.7086 37.6538H23.7494C23.872 37.6538 23.9741 37.5517 23.9741 37.4292V36.3877C23.9741 36.2652 23.872 36.1631 23.7494 36.1631H23.7086Z" fill="#E6EAFF"/>
<path d="M25.5365 38.103H25.4957C25.1281 38.103 24.832 37.807 24.832 37.4394V36.3979C24.832 36.0304 25.1281 35.7343 25.4957 35.7343H25.5365C25.9041 35.7343 26.2002 36.0304 26.2002 36.3979V37.4394C26.2002 37.807 25.9041 38.103 25.5365 38.103ZM25.4957 36.1631C25.3732 36.1631 25.2711 36.2652 25.2711 36.3877V37.4292C25.2711 37.5517 25.3732 37.6538 25.4957 37.6538H25.5365C25.6591 37.6538 25.7612 37.5517 25.7612 37.4292V36.3877C25.7612 36.2652 25.6591 36.1631 25.5365 36.1631H25.4957Z" fill="#E6EAFF"/>
<path d="M27.3227 38.103H27.2818C26.9143 38.103 26.6182 37.807 26.6182 37.4394V36.3979C26.6182 36.0304 26.9143 35.7343 27.2818 35.7343H27.3227C27.6902 35.7343 27.9863 36.0304 27.9863 36.3979V37.4394C27.9863 37.807 27.6902 38.103 27.3227 38.103ZM27.2818 36.1631C27.1593 36.1631 27.0572 36.2652 27.0572 36.3877V37.4292C27.0572 37.5517 27.1593 37.6538 27.2818 37.6538H27.3227C27.4452 37.6538 27.5473 37.5517 27.5473 37.4292V36.3877C27.5473 36.2652 27.4452 36.1631 27.3227 36.1631H27.2818Z" fill="#E6EAFF"/>
<path d="M29.1 38.103H29.0592C28.6916 38.103 28.3955 37.807 28.3955 37.4394V36.3979C28.3955 36.0304 28.6916 35.7343 29.0592 35.7343H29.1C29.4676 35.7343 29.7637 36.0304 29.7637 36.3979V37.4394C29.7739 37.807 29.4676 38.103 29.1 38.103ZM29.0592 36.1631C28.9367 36.1631 28.8346 36.2652 28.8346 36.3877V37.4292C28.8346 37.5517 28.9367 37.6538 29.0592 37.6538H29.1C29.2225 37.6538 29.3246 37.5517 29.3246 37.4292V36.3877C29.3246 36.2652 29.2225 36.1631 29.1 36.1631H29.0592Z" fill="#E6EAFF"/>
<path d="M31.8363 38.103H31.7955C31.4279 38.103 31.1318 37.807 31.1318 37.4394V36.3979C31.1318 36.0304 31.4279 35.7343 31.7955 35.7343H31.8363C32.2039 35.7343 32.5 36.0304 32.5 36.3979V37.4394C32.5102 37.807 32.2039 38.103 31.8363 38.103ZM31.8057 36.1631C31.6832 36.1631 31.5811 36.2652 31.5811 36.3877V37.4292C31.5811 37.5517 31.6832 37.6538 31.8057 37.6538H31.8466C31.9691 37.6538 32.0712 37.5517 32.0712 37.4292V36.3877C32.0712 36.2652 31.9691 36.1631 31.8466 36.1631H31.8057Z" fill="#E6EAFF"/>
<path d="M33.6235 38.103H33.5826C33.215 38.103 32.9189 37.807 32.9189 37.4394V36.3979C32.9189 36.0304 33.215 35.7343 33.5826 35.7343H33.6235C33.991 35.7343 34.2871 36.0304 34.2871 36.3979V37.4394C34.2871 37.807 33.991 38.103 33.6235 38.103ZM33.5826 36.1631C33.4601 36.1631 33.358 36.2652 33.358 36.3877V37.4292C33.358 37.5517 33.4601 37.6538 33.5826 37.6538H33.6235C33.746 37.6538 33.8481 37.5517 33.8481 37.4292V36.3877C33.8481 36.2652 33.746 36.1631 33.6235 36.1631H33.5826Z" fill="#E6EAFF"/>
<path d="M35.4096 38.103H35.3687C35.0012 38.103 34.7051 37.807 34.7051 37.4394V36.3979C34.7051 36.0304 35.0012 35.7343 35.3687 35.7343H35.4096C35.7772 35.7343 36.0733 36.0304 36.0733 36.3979V37.4394C36.0733 37.807 35.7772 38.103 35.4096 38.103ZM35.3687 36.1631C35.2462 36.1631 35.1441 36.2652 35.1441 36.3877V37.4292C35.1441 37.5517 35.2462 37.6538 35.3687 37.6538H35.4096C35.5321 37.6538 35.6342 37.5517 35.6342 37.4292V36.3877C35.6342 36.2652 35.5321 36.1631 35.4096 36.1631H35.3687Z" fill="#E6EAFF"/>
<path d="M37.1865 38.103H37.1559C36.7883 38.103 36.4922 37.807 36.4922 37.4394V36.3979C36.4922 36.0304 36.7883 35.7343 37.1559 35.7343H37.1967C37.5643 35.7343 37.8604 36.0304 37.8604 36.3979V37.4394C37.8604 37.807 37.5643 38.103 37.1865 38.103ZM37.1559 36.1631C37.0333 36.1631 36.9312 36.2652 36.9312 36.3877V37.4292C36.9312 37.5517 37.0333 37.6538 37.1559 37.6538H37.1967C37.3192 37.6538 37.4213 37.5517 37.4213 37.4292V36.3877C37.4213 36.2652 37.3192 36.1631 37.1967 36.1631H37.1559Z" fill="#E6EAFF"/>
<path d="M39.933 38.103H39.8922C39.5246 38.103 39.2285 37.807 39.2285 37.4394V36.3979C39.2285 36.0304 39.5246 35.7343 39.8922 35.7343H39.933C40.3006 35.7343 40.5967 36.0304 40.5967 36.3979V37.4394C40.5967 37.807 40.3006 38.103 39.933 38.103ZM39.8922 36.1631C39.7697 36.1631 39.6676 36.2652 39.6676 36.3877V37.4292C39.6676 37.5517 39.7697 37.6538 39.8922 37.6538H39.933C40.0556 37.6538 40.1577 37.5517 40.1577 37.4292V36.3877C40.1577 36.2652 40.0556 36.1631 39.933 36.1631H39.8922Z" fill="#CAD4FF"/>
<path d="M41.7094 38.103H41.6686C41.301 38.103 41.0049 37.807 41.0049 37.4394V36.3979C41.0049 36.0304 41.301 35.7343 41.6686 35.7343H41.7094C42.077 35.7343 42.3731 36.0304 42.3731 36.3979V37.4394C42.3833 37.807 42.077 38.103 41.7094 38.103ZM41.6788 36.1631C41.5562 36.1631 41.4541 36.2652 41.4541 36.3877V37.4292C41.4541 37.5517 41.5562 37.6538 41.6788 37.6538H41.7196C41.8421 37.6538 41.9442 37.5517 41.9442 37.4292V36.3877C41.9442 36.2652 41.8421 36.1631 41.7196 36.1631H41.6788Z" fill="#CAD4FF"/>
<path d="M43.4965 38.103H43.4557C43.0881 38.103 42.792 37.807 42.792 37.4394V36.3979C42.792 36.0304 43.0881 35.7343 43.4557 35.7343H43.4965C43.8641 35.7343 44.1602 36.0304 44.1602 36.3979V37.4394C44.1602 37.807 43.8641 38.103 43.4965 38.103ZM43.4557 36.1631C43.3331 36.1631 43.231 36.2652 43.231 36.3877V37.4292C43.231 37.5517 43.3331 37.6538 43.4557 37.6538H43.4965C43.619 37.6538 43.7211 37.5517 43.7211 37.4292V36.3877C43.7211 36.2652 43.619 36.1631 43.4965 36.1631H43.4557Z" fill="#CAD4FF"/>
<path d="M45.2836 38.103H45.2428C44.8752 38.103 44.5791 37.807 44.5791 37.4394V36.3979C44.5791 36.0304 44.8752 35.7343 45.2428 35.7343H45.2836C45.6512 35.7343 45.9473 36.0304 45.9473 36.3979V37.4394C45.9473 37.807 45.6512 38.103 45.2836 38.103ZM45.2428 36.1631C45.1202 36.1631 45.0181 36.2652 45.0181 36.3877V37.4292C45.0181 37.5517 45.1202 37.6538 45.2428 37.6538H45.2836C45.4061 37.6538 45.5082 37.5517 45.5082 37.4292V36.3877C45.5082 36.2652 45.4061 36.1631 45.2836 36.1631H45.2428Z" fill="#CAD4FF"/>
<path d="M48.019 38.103H47.9781C47.6106 38.103 47.3145 37.807 47.3145 37.4394V36.3979C47.3145 36.0304 47.6106 35.7343 47.9781 35.7343H48.019C48.3865 35.7343 48.6826 36.0304 48.6826 36.3979V37.4394C48.6826 37.807 48.3865 38.103 48.019 38.103ZM47.9781 36.1631C47.8556 36.1631 47.7535 36.2652 47.7535 36.3877V37.4292C47.7535 37.5517 47.8556 37.6538 47.9781 37.6538H48.019C48.1415 37.6538 48.2436 37.5517 48.2436 37.4292V36.3877C48.2436 36.2652 48.1415 36.1631 48.019 36.1631H47.9781Z" fill="#CAD4FF"/>
<path d="M49.8061 38.103H49.7652C49.3977 38.103 49.1016 37.807 49.1016 37.4394V36.3979C49.1016 36.0304 49.3977 35.7343 49.7652 35.7343H49.8061C50.1736 35.7343 50.4697 36.0304 50.4697 36.3979V37.4394C50.4697 37.807 50.1736 38.103 49.8061 38.103ZM49.7652 36.1631C49.6427 36.1631 49.5406 36.2652 49.5406 36.3877V37.4292C49.5406 37.5517 49.6427 37.6538 49.7652 37.6538H49.8061C49.9286 37.6538 50.0307 37.5517 50.0307 37.4292V36.3877C50.0307 36.2652 49.9286 36.1631 49.8061 36.1631H49.7652Z" fill="#CAD4FF"/>
<path d="M51.5824 38.103H51.5416C51.174 38.103 50.8779 37.807 50.8779 37.4394V36.3979C50.8779 36.0304 51.174 35.7343 51.5416 35.7343H51.5824C51.95 35.7343 52.2461 36.0304 52.2461 36.3979V37.4394C52.2563 37.807 51.95 38.103 51.5824 38.103ZM51.5416 36.1631C51.4191 36.1631 51.317 36.2652 51.317 36.3877V37.4292C51.317 37.5517 51.4191 37.6538 51.5416 37.6538H51.5824C51.705 37.6538 51.8071 37.5517 51.8071 37.4292V36.3877C51.8071 36.2652 51.705 36.1631 51.5824 36.1631H51.5416Z" fill="#CAD4FF"/>
<path d="M53.3696 38.103H53.3287C52.9611 38.103 52.665 37.807 52.665 37.4394V36.3979C52.665 36.0304 52.9611 35.7343 53.3287 35.7343H53.3696C53.7371 35.7343 54.0332 36.0304 54.0332 36.3979V37.4394C54.0332 37.807 53.7371 38.103 53.3696 38.103ZM53.3287 36.1631C53.2062 36.1631 53.1041 36.2652 53.1041 36.3877V37.4292C53.1041 37.5517 53.2062 37.6538 53.3287 37.6538H53.3696C53.4921 37.6538 53.5942 37.5517 53.5942 37.4292V36.3877C53.5942 36.2652 53.4921 36.1631 53.3696 36.1631H53.3287Z" fill="#CAD4FF"/>
<path d="M20.1562 38.3174C17.3075 38.3174 15 36.0098 15 33.1611V38.3174V67.1309C15 69.9694 17.3075 72.2769 20.1562 72.2769H56.9338C59.7825 72.2769 62.0901 69.9694 62.0901 67.1207V43.4634C62.0901 40.6147 59.7825 38.3071 56.9338 38.3071L20.1562 38.3174Z" fill="#5288FD"/>
<path d="M56.9235 38.3174H38.5449V72.2769H56.9337C59.7824 72.2769 62.0899 69.9694 62.0899 67.1207V43.4634C62.0797 40.6249 59.7722 38.3174 56.9235 38.3174Z" fill="#2268FF"/>
<path d="M63.9891 59.0443H57.6281C55.5554 59.0443 53.8809 57.3698 53.8809 55.2971C53.8809 53.2244 55.5554 51.5499 57.6281 51.5499H63.9891C64.5507 51.5499 64.9999 51.9992 64.9999 52.5607V58.0335C64.9999 58.5951 64.5507 59.0443 63.9891 59.0443Z" fill="#3898FD"/>
<path d="M57.5969 57.4105C58.7642 57.4105 59.7105 56.4643 59.7105 55.297C59.7105 54.1297 58.7642 53.1835 57.5969 53.1835C56.4297 53.1835 55.4834 54.1297 55.4834 55.297C55.4834 56.4643 56.4297 57.4105 57.5969 57.4105Z" fill="#2226FF"/>
</g>
<rect x="77" y="37" width="3" height="16" rx="1" fill="#0055FF"/>
<defs>
<clipPath id="clip0_68_1039">
<rect width="50" height="52.2769" fill="white" transform="translate(15 20)"/>
</clipPath>
</defs>
</svg>
