<svg width="80" height="90" viewBox="0 0 80 90" fill="none" xmlns="http://www.w3.org/2000/svg">
<rect width="80" height="90" rx="4" fill="#E5EEFF"/>
<g clip-path="url(#clip0_68_1232)">
<path d="M61.7578 65.0195H18.2422C16.4551 65.0195 15 63.5645 15 61.7773V34.2871C15 32.4902 16.4551 31.0449 18.2422 31.0449H61.748C63.5449 31.0449 64.9902 32.5 64.9902 34.2871V61.7676C65 63.5645 63.5449 65.0195 61.7578 65.0195Z" fill="#1B3E77"/>
<path d="M41.084 31.0449C40.752 41.0742 32.4902 49.1211 22.3828 49.1211C19.7656 49.1211 17.2656 48.584 15 47.5977V43.2324C17.1777 44.502 19.6973 45.2148 22.3828 45.2148C30.332 45.2148 36.8359 38.916 37.168 31.0449H41.084Z" fill="#695728"/>
<path d="M40 31.0449V36.7188C40.6348 34.9316 41.0156 33.0273 41.084 31.0449H40Z" fill="#1B3E77"/>
<path d="M65 50.918V54.8828C62.6562 54.4336 60.3711 54.2383 58.1055 54.4629C54.0137 54.8731 50.2148 56.7871 46.1426 60.4883C45.4883 61.084 44.8242 61.6992 44.1895 62.2949C43.2129 63.2031 42.2363 64.1211 41.2109 65.0195H34.8828C37.2266 63.457 39.3262 61.4941 41.5234 59.4434C42.1777 58.8379 42.8418 58.2031 43.5156 57.5977C48.2422 53.3106 52.7539 51.0742 57.7148 50.5762C60.166 50.3223 62.6465 50.5176 65 50.918Z" fill="#1B3E77"/>
<path d="M34.8828 65.0195H40V60.8496C38.3301 62.3828 36.6797 63.8184 34.8828 65.0195Z" fill="#695728"/>
<path d="M25.4687 47.5879H20.6738C19.9414 47.5879 19.3457 46.9922 19.3457 46.2598V43.0762C19.3457 42.3438 19.9414 41.748 20.6738 41.748H25.4687C26.2012 41.748 26.7969 42.3438 26.7969 43.0762V46.2598C26.7871 46.9922 26.2012 47.5879 25.4687 47.5879Z" fill="#424566"/>
<path d="M25.4688 47.5H20.6641C19.9805 47.5 19.4238 46.9434 19.4238 46.2598V43.0664C19.4238 42.3828 19.9805 41.8262 20.6641 41.8262H25.4688C26.1523 41.8262 26.709 42.3828 26.709 43.0664V46.2598C26.709 46.9434 26.1523 47.5 25.4688 47.5Z" fill="#FEBD55"/>
<path d="M26.709 44.7656V44.5703H24.1699V43.7109L24.8242 43.0566H26.709C26.709 42.9883 26.6992 42.9199 26.6895 42.8613H24.7754C24.7461 42.8613 24.7266 42.8711 24.707 42.8906L24.0234 43.5742H23.1641V41.8359H22.9688V43.5742H22.1191L21.4355 42.8906C21.416 42.8711 21.3867 42.8613 21.3672 42.8613H19.4434C19.4336 42.9199 19.4238 42.9883 19.4238 43.0566H21.3281L21.9727 43.7012V44.5703H19.4238V44.7656H21.9727V45.6348L21.3281 46.2793H19.4238C19.4238 46.3477 19.4336 46.416 19.4434 46.4746H21.3672C21.3965 46.4746 21.416 46.4648 21.4355 46.4453L22.1191 45.7617H22.9688V47.5H23.1641V45.7617H24.0234L24.707 46.4453C24.7266 46.4648 24.7461 46.4746 24.7754 46.4746H26.6895C26.6992 46.416 26.709 46.3477 26.709 46.2793H24.8242L24.1699 45.625V44.7656H26.709ZM23.9746 45.5664H22.168V43.7598H23.9746V45.5664Z" fill="#B5613C"/>
<path d="M59.7658 47.4414C59.7169 47.4414 59.6779 47.4316 59.6388 47.4121C59.4923 47.3437 59.4337 47.1679 59.5119 47.0214C60.2638 45.5273 60.2638 43.8183 59.5119 42.3242C59.4435 42.1777 59.5021 42.0019 59.6388 41.9335C59.7853 41.8652 59.9611 41.9238 60.0295 42.0605C60.8693 43.7207 60.8693 45.625 60.0295 47.2851C59.9709 47.3828 59.8732 47.4414 59.7658 47.4414ZM58.7599 46.8847C59.5509 45.4785 59.5509 43.8574 58.7599 42.4511C58.6818 42.3144 58.506 42.2558 58.3595 42.3437C58.2228 42.4218 58.1642 42.5976 58.2521 42.7441C58.9455 43.9746 58.9455 45.3808 58.2521 46.6015C58.174 46.7382 58.2228 46.9238 58.3595 47.0019C58.4084 47.0312 58.4572 47.041 58.506 47.041C58.6037 47.0312 58.7013 46.9726 58.7599 46.8847ZM57.5099 46.4941C58.2814 45.3711 58.2814 43.9746 57.5099 42.8418C57.422 42.705 57.2365 42.6757 57.0998 42.7636C56.963 42.8515 56.9337 43.0371 57.0216 43.1738C57.6466 44.0918 57.6466 45.2441 57.0216 46.1621C56.9337 46.2988 56.963 46.4746 57.0998 46.5722C57.1486 46.6113 57.2072 46.621 57.2658 46.621C57.3634 46.621 57.4513 46.5722 57.5099 46.4941ZM56.1916 46.1132C56.6212 45.7226 56.8556 45.205 56.8556 44.6679C56.8556 44.1308 56.6212 43.6132 56.1916 43.2226C56.0744 43.1152 55.8888 43.1152 55.7814 43.2421C55.674 43.3593 55.674 43.5449 55.8009 43.6523C56.1037 43.9355 56.2697 44.2968 56.2697 44.6679C56.2697 45.039 56.1037 45.4003 55.8009 45.6836C55.6837 45.791 55.674 45.9765 55.7814 46.0937C55.84 46.1523 55.9181 46.1914 55.9962 46.1914C56.0646 46.1914 56.133 46.1621 56.1916 46.1132Z" fill="#CAD4FF"/>
<path d="M39.5996 60.0977H19.7168C19.5508 60.0977 19.4238 59.9707 19.4238 59.8047C19.4238 59.6387 19.5508 59.5117 19.7168 59.5117H39.5996C39.7656 59.5117 39.8926 59.6387 39.8926 59.8047C39.8926 59.9707 39.7559 60.0977 39.5996 60.0977Z" fill="#E6EAFF"/>
<path d="M60.3613 60.0977H56.5918C56.4258 60.0977 56.2988 59.9707 56.2988 59.8047C56.2988 59.6387 56.4258 59.5117 56.5918 59.5117H60.3613C60.5273 59.5117 60.6543 59.6387 60.6543 59.8047C60.6543 59.9707 60.5176 60.0977 60.3613 60.0977ZM54.9902 59.8047C54.9902 59.6387 54.8633 59.5117 54.6973 59.5117H50.9277C50.7617 59.5117 50.6348 59.6387 50.6348 59.8047C50.6348 59.9707 50.7617 60.0977 50.9277 60.0977H54.6973C54.8633 60.0977 54.9902 59.9609 54.9902 59.8047Z" fill="#CAD4FF"/>
<path d="M19.7168 37.7051C19.5508 37.7051 19.4238 37.5781 19.4238 37.4121V36.2695C19.4238 36.1035 19.5508 35.9766 19.7168 35.9766C19.8828 35.9766 20.0098 36.1035 20.0098 36.2695V37.4121C20.0098 37.5684 19.8828 37.7051 19.7168 37.7051ZM21.6016 37.4121V36.2695C21.6016 36.1035 21.4746 35.9766 21.3086 35.9766C21.1426 35.9766 21.0156 36.1035 21.0156 36.2695V37.4121C21.0156 37.5781 21.1426 37.7051 21.3086 37.7051C21.4746 37.7051 21.6016 37.5684 21.6016 37.4121ZM23.2031 37.4121V36.2695C23.2031 36.1035 23.0762 35.9766 22.9102 35.9766C22.7441 35.9766 22.6172 36.1035 22.6172 36.2695V37.4121C22.6172 37.5781 22.7441 37.7051 22.9102 37.7051C23.0664 37.7051 23.2031 37.5684 23.2031 37.4121ZM24.7949 37.4121V36.2695C24.7949 36.1035 24.668 35.9766 24.502 35.9766C24.3359 35.9766 24.209 36.1035 24.209 36.2695V37.4121C24.209 37.5781 24.3359 37.7051 24.502 37.7051C24.668 37.7051 24.7949 37.5684 24.7949 37.4121Z" fill="#E6EAFF"/>
<path d="M20.3223 55.127H20.2734C19.7852 55.127 19.3848 54.7266 19.3848 54.2383V52.8516C19.3848 52.3633 19.7852 51.9629 20.2734 51.9629H20.3223C20.8105 51.9629 21.2109 52.3633 21.2109 52.8516V54.2383C21.2109 54.7266 20.8203 55.127 20.3223 55.127ZM20.2734 52.5488C20.1074 52.5488 19.9707 52.6855 19.9707 52.8516V54.2383C19.9707 54.4043 20.1074 54.541 20.2734 54.541H20.3223C20.4883 54.541 20.625 54.4043 20.625 54.2383V52.8516C20.625 52.6855 20.4883 52.5488 20.3223 52.5488H20.2734Z" fill="#E6EAFF"/>
<path d="M22.6953 55.127H22.6465C22.1582 55.127 21.7578 54.7266 21.7578 54.2383V52.8516C21.7578 52.3633 22.1582 51.9629 22.6465 51.9629H22.6953C23.1836 51.9629 23.584 52.3633 23.584 52.8516V54.2383C23.584 54.7266 23.1934 55.127 22.6953 55.127ZM22.6465 52.5488C22.4805 52.5488 22.3438 52.6855 22.3438 52.8516V54.2383C22.3438 54.4043 22.4805 54.541 22.6465 54.541H22.6953C22.8613 54.541 22.998 54.4043 22.998 54.2383V52.8516C22.998 52.6855 22.8613 52.5488 22.6953 52.5488H22.6465Z" fill="#E6EAFF"/>
<path d="M25.0684 55.127H25.0195C24.5312 55.127 24.1309 54.7266 24.1309 54.2383V52.8516C24.1309 52.3633 24.5312 51.9629 25.0195 51.9629H25.0684C25.5566 51.9629 25.957 52.3633 25.957 52.8516V54.2383C25.957 54.7266 25.5566 55.127 25.0684 55.127ZM25.0195 52.5488C24.8535 52.5488 24.7168 52.6855 24.7168 52.8516V54.2383C24.7168 54.4043 24.8535 54.541 25.0195 54.541H25.0684C25.2344 54.541 25.3711 54.4043 25.3711 54.2383V52.8516C25.3711 52.6855 25.2344 52.5488 25.0684 52.5488H25.0195Z" fill="#E6EAFF"/>
<path d="M27.4414 55.127H27.3926C26.9043 55.127 26.5039 54.7266 26.5039 54.2383V52.8516C26.5039 52.3633 26.9043 51.9629 27.3926 51.9629H27.4414C27.9297 51.9629 28.3301 52.3633 28.3301 52.8516V54.2383C28.3301 54.7266 27.9297 55.127 27.4414 55.127ZM27.3926 52.5488C27.2266 52.5488 27.0898 52.6855 27.0898 52.8516V54.2383C27.0898 54.4043 27.2266 54.541 27.3926 54.541H27.4414C27.6074 54.541 27.7441 54.4043 27.7441 54.2383V52.8516C27.7441 52.6855 27.6074 52.5488 27.4414 52.5488H27.3926Z" fill="#E6EAFF"/>
<path d="M31.084 55.127H31.0352C30.5469 55.127 30.1465 54.7266 30.1465 54.2383V52.8516C30.1465 52.3633 30.5469 51.9629 31.0352 51.9629H31.084C31.5723 51.9629 31.9727 52.3633 31.9727 52.8516V54.2383C31.9727 54.7266 31.5723 55.127 31.084 55.127ZM31.0352 52.5488C30.8691 52.5488 30.7324 52.6855 30.7324 52.8516V54.2383C30.7324 54.4043 30.8691 54.541 31.0352 54.541H31.084C31.25 54.541 31.3867 54.4043 31.3867 54.2383V52.8516C31.3867 52.6855 31.25 52.5488 31.084 52.5488H31.0352Z" fill="#E6EAFF"/>
<path d="M33.457 55.127H33.4082C32.9199 55.127 32.5195 54.7266 32.5195 54.2383V52.8516C32.5195 52.3633 32.9199 51.9629 33.4082 51.9629H33.457C33.9453 51.9629 34.3457 52.3633 34.3457 52.8516V54.2383C34.3457 54.7266 33.9453 55.127 33.457 55.127ZM33.4082 52.5488C33.2422 52.5488 33.1055 52.6855 33.1055 52.8516V54.2383C33.1055 54.4043 33.2422 54.541 33.4082 54.541H33.457C33.623 54.541 33.7598 54.4043 33.7598 54.2383V52.8516C33.7598 52.6855 33.623 52.5488 33.457 52.5488H33.4082Z" fill="#E6EAFF"/>
<path d="M35.8301 55.127H35.7813C35.293 55.127 34.8926 54.7266 34.8926 54.2383V52.8516C34.8926 52.3633 35.293 51.9629 35.7813 51.9629H35.8301C36.3184 51.9629 36.7187 52.3633 36.7187 52.8516V54.2383C36.7187 54.7266 36.3184 55.127 35.8301 55.127ZM35.7813 52.5488C35.6152 52.5488 35.4785 52.6855 35.4785 52.8516V54.2383C35.4785 54.4043 35.6152 54.541 35.7813 54.541H35.8301C35.9961 54.541 36.1328 54.4043 36.1328 54.2383V52.8516C36.1328 52.6855 35.9961 52.5488 35.8301 52.5488H35.7813Z" fill="#E6EAFF"/>
<path d="M38.2031 55.127H38.1543C37.666 55.127 37.2656 54.7266 37.2656 54.2383V52.8516C37.2656 52.3633 37.666 51.9629 38.1543 51.9629H38.2031C38.6914 51.9629 39.0918 52.3633 39.0918 52.8516V54.2383C39.0918 54.7266 38.6914 55.127 38.2031 55.127ZM38.1543 52.5488C37.9883 52.5488 37.8516 52.6855 37.8516 52.8516V54.2383C37.8516 54.4043 37.9883 54.541 38.1543 54.541H38.2031C38.3691 54.541 38.5059 54.4043 38.5059 54.2383V52.8516C38.5059 52.6855 38.3691 52.5488 38.2031 52.5488H38.1543Z" fill="#E6EAFF"/>
<path d="M41.8457 55.127H41.7969C41.3086 55.127 40.9082 54.7266 40.9082 54.2383V52.8516C40.9082 52.3633 41.3086 51.9629 41.7969 51.9629H41.8457C42.334 51.9629 42.7344 52.3633 42.7344 52.8516V54.2383C42.7344 54.7266 42.334 55.127 41.8457 55.127ZM41.7969 52.5488C41.6309 52.5488 41.4941 52.6855 41.4941 52.8516V54.2383C41.4941 54.4043 41.6309 54.541 41.7969 54.541H41.8457C42.0117 54.541 42.1484 54.4043 42.1484 54.2383V52.8516C42.1484 52.6855 42.0117 52.5488 41.8457 52.5488H41.7969Z" fill="#CAD4FF"/>
<path d="M44.2188 55.127H44.1699C43.6816 55.127 43.2812 54.7266 43.2812 54.2383V52.8516C43.2812 52.3633 43.6816 51.9629 44.1699 51.9629H44.2188C44.707 51.9629 45.1074 52.3633 45.1074 52.8516V54.2383C45.1074 54.7266 44.707 55.127 44.2188 55.127ZM44.1699 52.5488C44.0039 52.5488 43.8672 52.6855 43.8672 52.8516V54.2383C43.8672 54.4043 44.0039 54.541 44.1699 54.541H44.2188C44.3848 54.541 44.5215 54.4043 44.5215 54.2383V52.8516C44.5215 52.6855 44.3848 52.5488 44.2188 52.5488H44.1699Z" fill="#CAD4FF"/>
<path d="M46.5918 55.127H46.543C46.0547 55.127 45.6543 54.7266 45.6543 54.2383V52.8516C45.6543 52.3633 46.0547 51.9629 46.543 51.9629H46.5918C47.0801 51.9629 47.4805 52.3633 47.4805 52.8516V54.2383C47.4805 54.7266 47.0801 55.127 46.5918 55.127ZM46.543 52.5488C46.377 52.5488 46.2402 52.6855 46.2402 52.8516V54.2383C46.2402 54.4043 46.377 54.541 46.543 54.541H46.5918C46.7578 54.541 46.8945 54.4043 46.8945 54.2383V52.8516C46.8945 52.6855 46.7578 52.5488 46.5918 52.5488H46.543Z" fill="#CAD4FF"/>
<path d="M48.9648 55.127H48.916C48.4277 55.127 48.0273 54.7266 48.0273 54.2383V52.8516C48.0273 52.3633 48.4277 51.9629 48.916 51.9629H48.9648C49.4531 51.9629 49.8535 52.3633 49.8535 52.8516V54.2383C49.8535 54.7266 49.4531 55.127 48.9648 55.127ZM48.916 52.5488C48.75 52.5488 48.6133 52.6855 48.6133 52.8516V54.2383C48.6133 54.4043 48.75 54.541 48.916 54.541H48.9648C49.1309 54.541 49.2676 54.4043 49.2676 54.2383V52.8516C49.2676 52.6855 49.1309 52.5488 48.9648 52.5488H48.916Z" fill="#CAD4FF"/>
<path d="M52.6074 55.127H52.5586C52.0703 55.127 51.6699 54.7266 51.6699 54.2383V52.8516C51.6699 52.3633 52.0703 51.9629 52.5586 51.9629H52.6074C53.0957 51.9629 53.4961 52.3633 53.4961 52.8516V54.2383C53.4961 54.7266 53.0957 55.127 52.6074 55.127ZM52.5586 52.5488C52.3926 52.5488 52.2559 52.6855 52.2559 52.8516V54.2383C52.2559 54.4043 52.3926 54.541 52.5586 54.541H52.6074C52.7734 54.541 52.9102 54.4043 52.9102 54.2383V52.8516C52.9102 52.6855 52.7734 52.5488 52.6074 52.5488H52.5586Z" fill="#CAD4FF"/>
<path d="M54.9805 55.127H54.9316C54.4434 55.127 54.043 54.7266 54.043 54.2383V52.8516C54.043 52.3633 54.4434 51.9629 54.9316 51.9629H54.9805C55.4688 51.9629 55.8691 52.3633 55.8691 52.8516V54.2383C55.8691 54.7266 55.4688 55.127 54.9805 55.127ZM54.9316 52.5488C54.7656 52.5488 54.6289 52.6855 54.6289 52.8516V54.2383C54.6289 54.4043 54.7656 54.541 54.9316 54.541H54.9805C55.1465 54.541 55.2832 54.4043 55.2832 54.2383V52.8516C55.2832 52.6855 55.1465 52.5488 54.9805 52.5488H54.9316Z" fill="#CAD4FF"/>
<path d="M57.3535 55.127H57.3047C56.8164 55.127 56.416 54.7266 56.416 54.2383V52.8516C56.416 52.3633 56.8164 51.9629 57.3047 51.9629H57.3535C57.8418 51.9629 58.2422 52.3633 58.2422 52.8516V54.2383C58.2422 54.7266 57.8418 55.127 57.3535 55.127ZM57.3047 52.5488C57.1387 52.5488 57.002 52.6855 57.002 52.8516V54.2383C57.002 54.4043 57.1387 54.541 57.3047 54.541H57.3535C57.5195 54.541 57.6562 54.4043 57.6562 54.2383V52.8516C57.6562 52.6855 57.5195 52.5488 57.3535 52.5488H57.3047Z" fill="#CAD4FF"/>
<path d="M59.7266 55.127H59.6777C59.1895 55.127 58.7891 54.7266 58.7891 54.2383V52.8516C58.7891 52.3633 59.1895 51.9629 59.6777 51.9629H59.7266C60.2148 51.9629 60.6152 52.3633 60.6152 52.8516V54.2383C60.6152 54.7266 60.2148 55.127 59.7266 55.127ZM59.6777 52.5488C59.5117 52.5488 59.375 52.6855 59.375 52.8516V54.2383C59.375 54.4043 59.5117 54.541 59.6777 54.541H59.7266C59.8926 54.541 60.0293 54.4043 60.0293 54.2383V52.8516C60.0293 52.6855 59.8926 52.5488 59.7266 52.5488H59.6777Z" fill="#CAD4FF"/>
<path d="M39.5 48C45.8513 48 51 42.8513 51 36.5C51 30.1487 45.8513 25 39.5 25C33.1487 25 28 30.1487 28 36.5C28 42.8513 33.1487 48 39.5 48Z" fill="#26BAFF"/>
<path d="M39.5 25V48C45.8538 48 51 42.8538 51 36.5C51 30.1462 45.8538 25 39.5 25Z" fill="#0CA8E5"/>
<path d="M43.9959 31.7996L35.7471 41.8133C35.5799 42.0177 35.264 42.0363 35.0597 41.8876C34.9668 41.8133 34.8925 41.6833 34.8925 41.5532C34.8739 41.4232 34.9111 41.2931 35.0039 41.2002L43.2527 31.1865C43.3271 31.0936 43.4571 31.0193 43.5871 31.0193H43.6429C43.7543 31.0193 43.8658 31.0565 43.9587 31.1308C44.0516 31.2051 44.1259 31.3351 44.1259 31.4652C44.1259 31.5767 44.0888 31.7067 43.9959 31.7996ZM44.7947 39.5282C44.7947 40.8844 43.68 41.9991 42.3238 41.9991C40.9676 41.9991 39.8529 40.8844 39.8529 39.5282C39.8529 38.172 40.9676 37.0573 42.3238 37.0573C43.6986 37.0573 44.7947 38.172 44.7947 39.5282ZM43.8287 39.5282C43.8287 38.6922 43.1598 38.0234 42.3238 38.0234C41.5064 38.0234 40.819 38.6922 40.819 39.5282C40.819 40.3456 41.4878 41.033 42.3238 41.033C43.1598 41.0145 43.8287 40.3456 43.8287 39.5282ZM34.2051 33.4717C34.2051 32.1154 35.3198 31.0007 36.676 31.0007C38.0322 31.0007 39.1469 32.0969 39.1469 33.4717C39.1469 34.8279 38.0322 35.9426 36.676 35.9426C35.3012 35.9426 34.2051 34.8465 34.2051 33.4717ZM35.1712 33.4717C35.1712 34.2891 35.84 34.9765 36.676 34.9765C37.4934 34.9765 38.1808 34.3077 38.1808 33.4717C38.1808 32.6356 37.512 31.9668 36.676 31.9668C35.84 31.9854 35.1712 32.6542 35.1712 33.4717Z" fill="#E6EAFF"/>
<path d="M44.1074 31.4469C44.0889 31.3168 44.0331 31.2053 43.9402 31.1124C43.8473 31.0381 43.7359 31.001 43.6244 31.001C43.6058 31.001 43.5872 31.001 43.5687 31.001C43.4386 31.0196 43.3271 31.0753 43.2343 31.1682L39.5 35.7385V37.2619L43.996 31.7998C44.0889 31.707 44.126 31.5769 44.1074 31.4469Z" fill="#CAD4FF"/>
<path d="M42.343 37.0576C40.9868 37.0576 39.8721 38.1723 39.8721 39.5285C39.8721 40.8848 40.9868 41.9995 42.343 41.9995C43.6992 41.9995 44.8139 40.8848 44.8139 39.5285C44.7953 38.1723 43.6992 37.0576 42.343 37.0576ZM42.343 41.0148C41.507 41.0148 40.8381 40.346 40.8381 39.51C40.8381 38.6739 41.507 38.0051 42.343 38.0051C43.1604 38.0051 43.8478 38.6739 43.8478 39.51C43.8293 40.346 43.1604 41.0148 42.343 41.0148Z" fill="#CAD4FF"/>
</g>
<rect x="77" y="37" width="3" height="16" rx="1" fill="#0055FF"/>
<defs>
<clipPath id="clip0_68_1232">
<rect width="50" height="40.0195" fill="white" transform="translate(15 25)"/>
</clipPath>
</defs>
</svg>
