<svg width="80" height="90" viewBox="0 0 80 90" fill="none" xmlns="http://www.w3.org/2000/svg">
<rect width="80" height="90" rx="4" fill="#E5EEFF"/>
<g clip-path="url(#clip0_68_1116)">
<path d="M57.6124 27.9875H50.2246V73.0881H57.6124C58.6439 73.0881 59.4949 72.2501 59.4949 71.2057V29.87C59.482 28.8256 58.6439 27.9875 57.6124 27.9875Z" fill="#333756"/>
<path d="M40.3223 66.3451V34.7567C40.3223 33.4545 41.3795 32.3972 42.6817 32.3972H62.6405C63.9427 32.3972 64.9999 33.4545 64.9999 34.7567V66.3451C64.9999 67.6473 63.9427 68.7046 62.6405 68.7046H42.6817C41.3795 68.6917 40.3223 67.6473 40.3223 66.3451Z" fill="#1B1C31"/>
<path d="M65.0003 51.3245C57.7156 51.0795 51.875 45.0841 51.875 37.7479C51.875 35.8397 52.2747 34.0346 52.9838 32.3843H56.1556C55.2401 33.9573 54.7244 35.7881 54.7244 37.7479C54.7244 43.524 59.3015 48.243 65.0132 48.4879V51.3245H65.0003Z" fill="#695728"/>
<path d="M50.572 68.6917H47.6968C48.0191 66.9897 48.1739 65.3265 48.0062 63.6891C47.7097 60.7236 46.3172 57.9645 43.6354 54.999C43.21 54.522 42.7587 54.0449 42.3203 53.5808C41.6628 52.8716 40.9923 52.1625 40.3477 51.4147V46.8247C41.4823 48.5266 42.9134 50.048 44.3961 51.6468C44.8345 52.1238 45.2987 52.6138 45.737 53.0908C48.8572 56.5204 50.4689 59.7953 50.8299 63.4054C50.9975 65.1847 50.8556 66.9897 50.572 68.6917Z" fill="#695728"/>
<path d="M40.3223 46.8247V50.538H43.3522C42.2434 49.3389 41.199 48.1269 40.3223 46.8247Z" fill="#695728"/>
<path d="M52.9834 39.9914V36.5102C52.9834 35.9816 53.4089 35.5432 53.9504 35.5432H56.2583C56.7869 35.5432 57.2253 35.9687 57.2253 36.5102V39.9914C57.2253 40.52 56.7998 40.9584 56.2583 40.9584H53.9504C53.4218 40.9455 52.9834 40.52 52.9834 39.9914Z" fill="#424566"/>
<path d="M53.0479 39.9914V36.5102C53.0479 36.0074 53.4475 35.6077 53.9504 35.6077H56.2712C56.774 35.6077 57.1737 36.0074 57.1737 36.5102V39.9914C57.1737 40.4942 56.774 40.8939 56.2712 40.8939H53.9504C53.4475 40.8939 53.0479 40.4942 53.0479 39.9914Z" fill="#FEBD55"/>
<path d="M55.033 40.8939H55.1748V39.0501H55.8066L56.2837 39.5272V40.8939C56.3352 40.8939 56.3739 40.8939 56.4255 40.881V39.4885C56.4255 39.4756 56.4126 39.4498 56.3997 39.4369L55.8969 38.9341V38.3023H57.1604V38.1734H55.8969V37.5545L56.3997 37.0517C56.4126 37.0388 56.4255 37.0259 56.4255 37.0001V35.6076C56.3739 35.5947 56.3352 35.5947 56.2837 35.5947V36.9743L55.8195 37.4385H55.1877V35.5947H55.0459V37.4385H54.4141L53.95 36.9743V35.5947C53.8984 35.5947 53.8597 35.5947 53.8082 35.6076V37.013C53.8082 37.0259 53.8211 37.0517 53.8339 37.0646L54.3368 37.5674V38.1863H53.0732V38.3281H54.3368V38.9599L53.8339 39.4627C53.8211 39.4756 53.8082 39.4885 53.8082 39.5143V40.881C53.8597 40.8939 53.8984 40.8939 53.95 40.8939V39.5272L54.427 39.0501H55.0588V40.8939H55.033ZM54.4528 38.9083V37.5932H55.7679V38.9083H54.4528Z" fill="#B5613C"/>
<path d="M53.0859 64.8882C53.0859 64.8624 53.0988 64.8237 53.1117 64.7979C53.1633 64.6948 53.2922 64.6561 53.3954 64.7077C54.4784 65.2492 55.7291 65.2492 56.8121 64.7077C56.9152 64.6561 57.0442 64.6948 57.0957 64.7979C57.1473 64.9011 57.1086 65.03 57.0055 65.0816C55.7935 65.6876 54.4139 65.6876 53.2149 65.0816C53.1375 65.0429 53.0859 64.9656 53.0859 64.8882ZM53.4985 64.1662C54.5171 64.7464 55.6904 64.7464 56.7218 64.1662C56.825 64.1146 56.8637 63.9728 56.7992 63.8825C56.7476 63.7794 56.6058 63.7407 56.5155 63.8052C55.6259 64.308 54.6073 64.308 53.7177 63.8052C53.6146 63.7536 53.4856 63.7794 53.4341 63.8825C53.4212 63.9212 53.4083 63.947 53.4083 63.9857C53.3825 64.0501 53.4212 64.1275 53.4985 64.1662ZM53.7822 63.2636C54.5944 63.8181 55.613 63.8181 56.4253 63.2636C56.5284 63.1992 56.5413 63.0702 56.4769 62.9671C56.4124 62.864 56.2835 62.8511 56.1803 62.9155C55.5099 63.3668 54.6847 63.3668 54.0143 62.9155C53.9111 62.8511 53.7822 62.8768 53.7177 62.9671C53.6919 63.0058 53.679 63.0445 53.679 63.0831C53.6919 63.1476 53.7177 63.2121 53.7822 63.2636ZM54.0529 62.2967C54.3366 62.6061 54.7105 62.7737 55.0973 62.7737C55.4841 62.7737 55.858 62.6061 56.1416 62.2967C56.219 62.2064 56.219 62.0775 56.1287 62.0001C56.0385 61.9227 55.9096 61.9227 55.8322 62.013C55.6259 62.2322 55.368 62.3611 55.0973 62.3611C54.8265 62.3611 54.5687 62.2451 54.3624 62.013C54.285 61.9227 54.1432 61.9227 54.0658 62.0001C54.0143 62.0388 54.0014 62.1033 54.0014 62.1548C54.0014 62.2064 54.0143 62.258 54.0529 62.2967Z" fill="#CAD4FF"/>
<path d="M43.9062 50.2544V35.814C43.9062 35.6979 43.9965 35.6077 44.1125 35.6077C44.2286 35.6077 44.3188 35.6979 44.3188 35.814V50.2544C44.3188 50.3704 44.2286 50.4607 44.1125 50.4607C43.9965 50.4607 43.9062 50.3704 43.9062 50.2544Z" fill="#E6EAFF"/>
<path d="M43.9062 65.3266V62.5932C43.9062 62.4772 43.9965 62.3869 44.1125 62.3869C44.2286 62.3869 44.3188 62.4772 44.3188 62.5932V65.3266C44.3188 65.4426 44.2286 65.5329 44.1125 65.5329C43.9965 65.5329 43.9062 65.4426 43.9062 65.3266ZM44.1125 61.4328C44.2286 61.4328 44.3188 61.3426 44.3188 61.2265V58.4932C44.3188 58.3771 44.2286 58.2869 44.1125 58.2869C43.9965 58.2869 43.9062 58.3771 43.9062 58.4932V61.2265C43.9062 61.3297 43.9965 61.4328 44.1125 61.4328Z" fill="#CAD4FF"/>
<path d="M60.165 35.814C60.165 35.6979 60.2553 35.6077 60.3713 35.6077H61.2094C61.3254 35.6077 61.4157 35.6979 61.4157 35.814C61.4157 35.93 61.3254 36.0202 61.2094 36.0202H60.3713C60.2553 36.0331 60.165 35.93 60.165 35.814ZM60.3713 37.1806H61.2094C61.3254 37.1806 61.4157 37.0904 61.4157 36.9743C61.4157 36.8583 61.3254 36.7681 61.2094 36.7681H60.3713C60.2553 36.7681 60.165 36.8583 60.165 36.9743C60.165 37.0904 60.2553 37.1806 60.3713 37.1806ZM60.3713 38.341H61.2094C61.3254 38.341 61.4157 38.2508 61.4157 38.1347C61.4157 38.0187 61.3254 37.9285 61.2094 37.9285H60.3713C60.2553 37.9285 60.165 38.0187 60.165 38.1347C60.165 38.2508 60.2553 38.341 60.3713 38.341ZM60.3713 39.5014H61.2094C61.3254 39.5014 61.4157 39.4112 61.4157 39.2951C61.4157 39.1791 61.3254 39.0888 61.2094 39.0888H60.3713C60.2553 39.0888 60.165 39.1791 60.165 39.2951C60.165 39.4112 60.2553 39.5014 60.3713 39.5014Z" fill="#E6EAFF"/>
<path d="M47.5039 36.2524V36.2138C47.5039 35.8527 47.7876 35.5691 48.1486 35.5691H49.1542C49.5153 35.5691 49.7989 35.8527 49.7989 36.2138V36.2524C49.7989 36.6134 49.5153 36.8971 49.1542 36.8971H48.1486C47.8005 36.8971 47.5039 36.6134 47.5039 36.2524ZM49.3734 36.2138C49.3734 36.0977 49.2703 35.9946 49.1542 35.9946H48.1486C48.0325 35.9946 47.9294 36.0977 47.9294 36.2138V36.2524C47.9294 36.3685 48.0325 36.4716 48.1486 36.4716H49.1542C49.2703 36.4716 49.3734 36.3685 49.3734 36.2524V36.2138Z" fill="#E6EAFF"/>
<path d="M47.5039 37.9801V37.9414C47.5039 37.5804 47.7876 37.2968 48.1486 37.2968H49.1542C49.5153 37.2968 49.7989 37.5804 49.7989 37.9414V37.9801C49.7989 38.3411 49.5153 38.6248 49.1542 38.6248H48.1486C47.8005 38.6248 47.5039 38.3411 47.5039 37.9801ZM49.3734 37.9414C49.3734 37.8254 49.2703 37.7222 49.1542 37.7222H48.1486C48.0325 37.7222 47.9294 37.8254 47.9294 37.9414V37.9801C47.9294 38.0961 48.0325 38.1993 48.1486 38.1993H49.1542C49.2703 38.1993 49.3734 38.0961 49.3734 37.9801V37.9414Z" fill="#E6EAFF"/>
<path d="M47.5039 39.7079V39.6692C47.5039 39.3082 47.7876 39.0245 48.1486 39.0245H49.1542C49.5153 39.0245 49.7989 39.3082 49.7989 39.6692V39.7079C49.7989 40.0689 49.5153 40.3525 49.1542 40.3525H48.1486C47.8005 40.3525 47.5039 40.056 47.5039 39.7079ZM49.3734 39.6692C49.3734 39.5532 49.2703 39.45 49.1542 39.45H48.1486C48.0325 39.45 47.9294 39.5532 47.9294 39.6692V39.7079C47.9294 39.8239 48.0325 39.9271 48.1486 39.9271H49.1542C49.2703 39.9271 49.3734 39.8239 49.3734 39.7079V39.6692Z" fill="#E6EAFF"/>
<path d="M47.5039 41.4226V41.3839C47.5039 41.0229 47.7876 40.7393 48.1486 40.7393H49.1542C49.5153 40.7393 49.7989 41.0229 49.7989 41.3839V41.4226C49.7989 41.7836 49.5153 42.0673 49.1542 42.0673H48.1486C47.8005 42.0673 47.5039 41.7836 47.5039 41.4226ZM49.3734 41.3839C49.3734 41.2679 49.2703 41.1647 49.1542 41.1647H48.1486C48.0325 41.1647 47.9294 41.2679 47.9294 41.3839V41.4226C47.9294 41.5386 48.0325 41.6418 48.1486 41.6418H49.1542C49.2703 41.6418 49.3734 41.5386 49.3734 41.4226V41.3839Z" fill="#E6EAFF"/>
<path d="M47.5039 44.0658V44.0271C47.5039 43.6661 47.7876 43.3824 48.1486 43.3824H49.1542C49.5153 43.3824 49.7989 43.6661 49.7989 44.0271V44.0658C49.7989 44.4268 49.5153 44.7105 49.1542 44.7105H48.1486C47.8005 44.7105 47.5039 44.4268 47.5039 44.0658ZM49.3734 44.0271C49.3734 43.9111 49.2703 43.8079 49.1542 43.8079H48.1486C48.0325 43.8079 47.9294 43.9111 47.9294 44.0271V44.0658C47.9294 44.1818 48.0325 44.285 48.1486 44.285H49.1542C49.2703 44.285 49.3734 44.1818 49.3734 44.0658V44.0271Z" fill="#E6EAFF"/>
<path d="M47.5039 45.7935V45.7548C47.5039 45.3938 47.7876 45.1101 48.1486 45.1101H49.1542C49.5153 45.1101 49.7989 45.3938 49.7989 45.7548V45.7935C49.7989 46.1545 49.5153 46.4381 49.1542 46.4381H48.1486C47.8005 46.4381 47.5039 46.1545 47.5039 45.7935ZM49.3734 45.7548C49.3734 45.6387 49.2703 45.5356 49.1542 45.5356H48.1486C48.0325 45.5356 47.9294 45.6387 47.9294 45.7548V45.7935C47.9294 45.9095 48.0325 46.0126 48.1486 46.0126H49.1542C49.2703 46.0126 49.3734 45.9095 49.3734 45.7935V45.7548Z" fill="#E6EAFF"/>
<path d="M47.5039 47.5212V47.4826C47.5039 47.1215 47.7876 46.8379 48.1486 46.8379H49.1542C49.5153 46.8379 49.7989 47.1215 49.7989 47.4826V47.5212C49.7989 47.8822 49.5153 48.1659 49.1542 48.1659H48.1486C47.8005 48.1659 47.5039 47.8693 47.5039 47.5212ZM49.3734 47.4826C49.3734 47.3665 49.2703 47.2634 49.1542 47.2634H48.1486C48.0325 47.2634 47.9294 47.3665 47.9294 47.4826V47.5212C47.9294 47.6373 48.0325 47.7404 48.1486 47.7404H49.1542C49.2703 47.7404 49.3734 47.6373 49.3734 47.5212V47.4826Z" fill="#E6EAFF"/>
<path d="M47.5039 49.236V49.1973C47.5039 48.8363 47.7876 48.5526 48.1486 48.5526H49.1542C49.5153 48.5526 49.7989 48.8363 49.7989 49.1973V49.236C49.7989 49.597 49.5153 49.8806 49.1542 49.8806H48.1486C47.8005 49.8806 47.5039 49.597 47.5039 49.236ZM49.3734 49.1973C49.3734 49.0812 49.2703 48.9781 49.1542 48.9781H48.1486C48.0325 48.9781 47.9294 49.0812 47.9294 49.1973V49.236C47.9294 49.352 48.0325 49.4551 48.1486 49.4551H49.1542C49.2703 49.4551 49.3734 49.352 49.3734 49.236V49.1973Z" fill="#E6EAFF"/>
<path d="M47.5039 51.879V51.8403C47.5039 51.4793 47.7876 51.1957 48.1486 51.1957H49.1542C49.5153 51.1957 49.7989 51.4793 49.7989 51.8403V51.879C49.7989 52.24 49.5153 52.5237 49.1542 52.5237H48.1486C47.8005 52.5237 47.5039 52.24 47.5039 51.879ZM49.3734 51.8403C49.3734 51.7243 49.2703 51.6212 49.1542 51.6212H48.1486C48.0325 51.6212 47.9294 51.7243 47.9294 51.8403V51.879C47.9294 51.9951 48.0325 52.0982 48.1486 52.0982H49.1542C49.2703 52.0982 49.3734 51.9951 49.3734 51.879V51.8403Z" fill="#CAD4FF"/>
<path d="M47.5039 53.6067V53.568C47.5039 53.207 47.7876 52.9233 48.1486 52.9233H49.1542C49.5153 52.9233 49.7989 53.207 49.7989 53.568V53.6067C49.7989 53.9677 49.5153 54.2513 49.1542 54.2513H48.1486C47.8005 54.2513 47.5039 53.9677 47.5039 53.6067ZM49.3734 53.568C49.3734 53.452 49.2703 53.3488 49.1542 53.3488H48.1486C48.0325 53.3488 47.9294 53.452 47.9294 53.568V53.6067C47.9294 53.7227 48.0325 53.8259 48.1486 53.8259H49.1542C49.2703 53.8259 49.3734 53.7227 49.3734 53.6067V53.568Z" fill="#CAD4FF"/>
<path d="M47.5039 55.3345V55.2958C47.5039 54.9348 47.7876 54.6511 48.1486 54.6511H49.1542C49.5153 54.6511 49.7989 54.9348 49.7989 55.2958V55.3345C49.7989 55.6955 49.5153 55.9791 49.1542 55.9791H48.1486C47.8005 55.9791 47.5039 55.6826 47.5039 55.3345ZM49.3734 55.2958C49.3734 55.1797 49.2703 55.0766 49.1542 55.0766H48.1486C48.0325 55.0766 47.9294 55.1797 47.9294 55.2958V55.3345C47.9294 55.4505 48.0325 55.5537 48.1486 55.5537H49.1542C49.2703 55.5537 49.3734 55.4505 49.3734 55.3345V55.2958Z" fill="#CAD4FF"/>
<path d="M47.5039 57.0492V57.0105C47.5039 56.6495 47.7876 56.3658 48.1486 56.3658H49.1542C49.5153 56.3658 49.7989 56.6495 49.7989 57.0105V57.0492C49.7989 57.4102 49.5153 57.6938 49.1542 57.6938H48.1486C47.8005 57.6938 47.5039 57.4102 47.5039 57.0492ZM49.3734 57.0105C49.3734 56.8945 49.2703 56.7913 49.1542 56.7913H48.1486C48.0325 56.7913 47.9294 56.8945 47.9294 57.0105V57.0492C47.9294 57.1652 48.0325 57.2684 48.1486 57.2684H49.1542C49.2703 57.2684 49.3734 57.1652 49.3734 57.0492V57.0105Z" fill="#CAD4FF"/>
<path d="M47.5039 59.6924V59.6537C47.5039 59.2927 47.7876 59.009 48.1486 59.009H49.1542C49.5153 59.009 49.7989 59.2927 49.7989 59.6537V59.6924C49.7989 60.0534 49.5153 60.337 49.1542 60.337H48.1486C47.8005 60.337 47.5039 60.0534 47.5039 59.6924ZM49.3734 59.6666C49.3734 59.5506 49.2703 59.4474 49.1542 59.4474H48.1486C48.0325 59.4474 47.9294 59.5506 47.9294 59.6666V59.7053C47.9294 59.8213 48.0325 59.9245 48.1486 59.9245H49.1542C49.2703 59.9245 49.3734 59.8213 49.3734 59.7053V59.6666Z" fill="#CAD4FF"/>
<path d="M47.5039 61.42V61.3814C47.5039 61.0203 47.7876 60.7367 48.1486 60.7367H49.1542C49.5153 60.7367 49.7989 61.0203 49.7989 61.3814V61.42C49.7989 61.781 49.5153 62.0647 49.1542 62.0647H48.1486C47.8005 62.0647 47.5039 61.781 47.5039 61.42ZM49.3734 61.3814C49.3734 61.2653 49.2703 61.1622 49.1542 61.1622H48.1486C48.0325 61.1622 47.9294 61.2653 47.9294 61.3814V61.42C47.9294 61.5361 48.0325 61.6392 48.1486 61.6392H49.1542C49.2703 61.6392 49.3734 61.5361 49.3734 61.42V61.3814Z" fill="#CAD4FF"/>
<path d="M47.5039 63.1478V63.1091C47.5039 62.7481 47.7876 62.4645 48.1486 62.4645H49.1542C49.5153 62.4645 49.7989 62.7481 49.7989 63.1091V63.1478C49.7989 63.5088 49.5153 63.7925 49.1542 63.7925H48.1486C47.8005 63.7925 47.5039 63.4959 47.5039 63.1478ZM49.3734 63.1091C49.3734 62.9931 49.2703 62.89 49.1542 62.89H48.1486C48.0325 62.89 47.9294 62.9931 47.9294 63.1091V63.1478C47.9294 63.2639 48.0325 63.367 48.1486 63.367H49.1542C49.2703 63.367 49.3734 63.2639 49.3734 63.1478V63.1091Z" fill="#CAD4FF"/>
<path d="M47.5039 64.8625V64.8239C47.5039 64.4629 47.7876 64.1792 48.1486 64.1792H49.1542C49.5153 64.1792 49.7989 64.4629 49.7989 64.8239V64.8625C49.7989 65.2236 49.5153 65.5072 49.1542 65.5072H48.1486C47.8005 65.5072 47.5039 65.2236 47.5039 64.8625ZM49.3734 64.8239C49.3734 64.7078 49.2703 64.6047 49.1542 64.6047H48.1486C48.0325 64.6047 47.9294 64.7078 47.9294 64.8239V64.8625C47.9294 64.9786 48.0325 65.0817 48.1486 65.0817H49.1542C49.2703 65.0817 49.3734 64.9786 49.3734 64.8625V64.8239Z" fill="#CAD4FF"/>
<path d="M47.9293 78.0134H17.2821C16.0186 78.0134 15 76.9949 15 75.7313V25.3574C15 24.0939 16.0186 23.0753 17.2821 23.0753H47.9293C49.1929 23.0753 50.2115 24.0939 50.2115 25.3574V75.7313C50.2115 76.9949 49.1929 78.0134 47.9293 78.0134Z" fill="#505278"/>
<path d="M47.9293 23.0753H32.5605V78.0134H47.9293C49.1928 78.0134 50.2114 76.9949 50.2114 75.7313V25.3574C50.2114 24.0939 49.1928 23.0753 47.9293 23.0753Z" fill="#424566"/>
<path d="M22.8649 28.181C22.2847 28.181 21.8076 27.704 21.8076 27.1238C21.8076 26.5436 22.2847 26.0665 22.8649 26.0665H42.3337C42.9139 26.0665 43.3909 26.5436 43.3909 27.1238C43.3909 27.704 42.9139 28.181 42.3337 28.181H22.8649Z" fill="#424566"/>
<path d="M42.3465 26.0795H32.5605V28.194H42.3465C42.9267 28.194 43.4038 27.7169 43.4038 27.1367C43.4038 26.5436 42.9267 26.0795 42.3465 26.0795Z" fill="#333756"/>
<path d="M24.1281 67.673H20.3891C19.3576 67.673 18.5195 66.8349 18.5195 65.8035C18.5195 64.772 19.3576 63.934 20.3891 63.934H24.1281C25.1596 63.934 25.9976 64.772 25.9976 65.8035C26.0105 66.8349 25.1596 67.673 24.1281 67.673Z" fill="#E6EAFF"/>
<path d="M44.8224 67.673H41.0834C40.0519 67.673 39.2139 66.8349 39.2139 65.8035C39.2139 64.772 40.0519 63.934 41.0834 63.934H44.8224C45.8539 63.934 46.6919 64.772 46.6919 65.8035C46.7048 66.8349 45.8668 67.673 44.8224 67.673Z" fill="#CAD4FF"/>
<path d="M24.1281 74.5065H20.3891C19.3576 74.5065 18.5195 73.6684 18.5195 72.637C18.5195 71.6055 19.3576 70.7675 20.3891 70.7675H24.1281C25.1596 70.7675 25.9976 71.6055 25.9976 72.637C26.0105 73.6684 25.1596 74.5065 24.1281 74.5065Z" fill="#E6EAFF"/>
<path d="M44.8224 74.5065H41.0834C40.0519 74.5065 39.2139 73.6684 39.2139 72.637C39.2139 71.6055 40.0519 70.7675 41.0834 70.7675H44.8224C45.8539 70.7675 46.6919 71.6055 46.6919 72.637C46.7048 73.6684 45.8668 74.5065 44.8224 74.5065Z" fill="#CAD4FF"/>
<path d="M20.3891 50.2543H23.1095C24.141 50.2543 24.979 51.0923 24.979 52.1238C24.979 53.1553 24.141 53.9933 23.1095 53.9933H20.3891C19.3576 53.9933 18.5195 53.1553 18.5195 52.1238C18.5195 51.0923 19.3576 50.2543 20.3891 50.2543Z" fill="#26BAFF"/>
<path d="M27.6225 50.2543H30.3429C31.3744 50.2543 32.2124 51.0923 32.2124 52.1238C32.2124 53.1553 31.3744 53.9933 30.3429 53.9933H27.6225C26.591 53.9933 25.7529 53.1553 25.7529 52.1238C25.7529 51.0923 26.591 50.2543 27.6225 50.2543Z" fill="#FF6161"/>
<path d="M34.8549 50.2543H37.5753C38.6068 50.2543 39.4449 51.0923 39.4449 52.1238C39.4449 53.1553 38.6068 53.9933 37.5753 53.9933H34.8549C33.8234 53.9933 32.9854 53.1553 32.9854 52.1238C32.9854 51.0923 33.8234 50.2543 34.8549 50.2543Z" fill="#FF9522"/>
<path d="M42.1011 50.2543H44.8216C45.853 50.2543 46.6911 51.0923 46.6911 52.1238C46.6911 53.1553 45.853 53.9933 44.8216 53.9933H42.1011C41.0697 53.9933 40.2316 53.1553 40.2316 52.1238C40.2187 51.0923 41.0568 50.2543 42.1011 50.2543Z" fill="#5EB206"/>
<path d="M45.028 47.0052H20.1828C19.2673 47.0052 18.5195 46.2574 18.5195 45.342V32.9129C18.5195 31.9974 19.2673 31.2496 20.1828 31.2496H45.0409C45.9564 31.2496 46.7042 31.9974 46.7042 32.9129V45.342C46.7042 46.2574 45.9564 47.0052 45.028 47.0052Z" fill="#26BAFF"/>
<path d="M45.041 31.2367H32.5732V47.0051H45.041C45.9564 47.0051 46.7042 46.2573 46.7042 45.3419V32.8999C46.7042 31.9716 45.9564 31.2367 45.041 31.2367Z" fill="#0CA8E5"/>
<path d="M24.1281 60.8397H20.3891C19.3576 60.8397 18.5195 60.0017 18.5195 58.9702C18.5195 57.9388 19.3576 57.1007 20.3891 57.1007H24.1281C25.1596 57.1007 25.9976 57.9388 25.9976 58.9702C26.0105 60.0017 25.1596 60.8397 24.1281 60.8397Z" fill="#E6EAFF"/>
<path d="M44.8215 60.8397H41.0824C40.051 60.8397 39.2129 60.0017 39.2129 58.9702C39.2129 57.9388 40.051 57.1007 41.0824 57.1007H44.8215C45.8529 57.1007 46.691 57.9388 46.691 58.9702C46.7039 60.0017 45.8658 60.8397 44.8215 60.8397Z" fill="#CAD4FF"/>
<path d="M34.4816 60.8397H30.7426C29.7111 60.8397 28.873 60.0017 28.873 58.9702C28.873 57.9388 29.7111 57.1007 30.7426 57.1007H34.4816C35.5131 57.1007 36.3511 57.9388 36.3511 58.9702C36.3511 60.0017 35.5131 60.8397 34.4816 60.8397Z" fill="url(#paint0_linear_68_1116)"/>
<path d="M34.4816 67.6731H30.7426C29.7111 67.6731 28.873 66.8351 28.873 65.8036C28.873 64.7721 29.7111 63.9341 30.7426 63.9341H34.4816C35.5131 63.9341 36.3511 64.7721 36.3511 65.8036C36.3511 66.8351 35.5131 67.6731 34.4816 67.6731Z" fill="url(#paint1_linear_68_1116)"/>
<path d="M34.4816 74.5066H30.7426C29.7111 74.5066 28.873 73.6686 28.873 72.6371C28.873 71.6056 29.7111 70.7676 30.7426 70.7676H34.4816C35.5131 70.7676 36.3511 71.6056 36.3511 72.6371C36.3511 73.6686 35.5131 74.5066 34.4816 74.5066Z" fill="url(#paint2_linear_68_1116)"/>
<path d="M35.8094 60.2853C36.1447 59.9501 36.3639 59.473 36.3639 58.9573C36.3639 57.9258 35.5258 57.0878 34.4943 57.0878H32.5732V60.8397H34.4943C34.9972 60.8397 35.4613 60.6205 35.8094 60.2853Z" fill="#CAD4FF"/>
<path d="M34.4816 63.9211H32.5605V67.6731H34.4816C34.9974 67.6731 35.4744 67.4668 35.8096 67.1187C36.1449 66.7834 36.3641 66.3064 36.3641 65.7907C36.3512 64.7592 35.5131 63.9211 34.4816 63.9211Z" fill="#CAD4FF"/>
<path d="M34.4816 70.7675H32.5605V74.5194H34.4816C34.9974 74.5194 35.4744 74.3131 35.8096 73.965C36.1449 73.6298 36.3641 73.1527 36.3641 72.637C36.3512 71.6055 35.5131 70.7675 34.4816 70.7675Z" fill="#CAD4FF"/>
<path d="M32.6123 44.0784C35.3538 44.0784 37.5762 41.856 37.5762 39.1145C37.5762 36.373 35.3538 34.1506 32.6123 34.1506C29.8709 34.1506 27.6484 36.373 27.6484 39.1145C27.6484 41.856 29.8709 44.0784 32.6123 44.0784Z" fill="#53E956"/>
<path d="M32.6121 34.1506H32.5605V44.0784H32.6121C35.3584 44.0784 37.576 41.8608 37.576 39.1145C37.576 36.3812 35.3455 34.1506 32.6121 34.1506Z" fill="#20CB23"/>
<path d="M34.5339 37.6576C34.4179 37.5415 34.2374 37.5415 34.1213 37.6576L31.8263 39.9526L31.0914 39.2177C30.9754 39.1016 30.7949 39.1016 30.6788 39.2177C30.5628 39.3337 30.5628 39.5142 30.6788 39.6303L31.62 40.5715C31.6716 40.623 31.749 40.6617 31.8263 40.6617C31.9037 40.6617 31.981 40.6359 32.0326 40.5715L34.5339 38.0702C34.6499 37.9541 34.6499 37.7736 34.5339 37.6576Z" fill="#E6EAFF"/>
<path d="M34.5342 37.6576C34.4182 37.5415 34.2376 37.5415 34.1216 37.6576L32.5615 39.2177V40.0428L34.5342 38.0702C34.6502 37.9541 34.6502 37.7736 34.5342 37.6576Z" fill="#CAD4FF"/>
<path d="M45.1448 17.2218H39.8457V14.8623C39.8457 13.2764 41.1221 12 42.708 12C44.2939 12 45.5703 13.2764 45.5703 14.8623V16.7963C45.5703 17.0284 45.3769 17.2218 45.1448 17.2218Z" fill="#B8C9FF"/>
<path d="M28.1641 12C26.5911 12 25.3018 13.2764 25.3018 14.8623V27.2656H39.8324V14.8623C39.8324 13.3151 41.0573 12.0645 42.5916 12H42.6947H28.1641Z" fill="#E6EAFF"/>
<path d="M32.6123 12V27.2656H39.8454V14.8623C39.8454 13.3151 41.0703 12.0645 42.6046 12H42.7077H32.6123Z" fill="#CAD4FF"/>
<path d="M31.5424 17.9309H27.4165C27.12 17.9309 26.875 17.686 26.875 17.3894C26.875 17.0929 27.12 16.8479 27.4165 16.8479H31.5424C31.8389 16.8479 32.0839 17.0929 32.0839 17.3894C32.0839 17.686 31.8389 17.9309 31.5424 17.9309ZM35.4361 20.3935C35.4361 20.097 35.1911 19.852 34.8946 19.852H27.4165C27.12 19.852 26.875 20.097 26.875 20.3935C26.875 20.6901 27.12 20.9351 27.4165 20.9351H34.8946C35.1911 20.9351 35.4361 20.6901 35.4361 20.3935ZM38.2597 23.5653C38.2597 23.2687 38.0148 23.0238 37.7182 23.0238H27.4165C27.12 23.0238 26.875 23.2687 26.875 23.5653C26.875 23.8618 27.12 24.1068 27.4165 24.1068H37.7053C38.0148 24.1197 38.2597 23.8747 38.2597 23.5653Z" fill="#505278"/>
<path d="M35.4359 20.3936C35.4359 20.097 35.191 19.8521 34.8944 19.8521H32.6123V20.948H34.8944C35.191 20.9351 35.4359 20.6901 35.4359 20.3936Z" fill="#424566"/>
<path d="M37.7051 23.0238H32.6123V24.1197H37.7051C38.0017 24.1197 38.2467 23.8748 38.2467 23.5782C38.2595 23.2688 38.0146 23.0238 37.7051 23.0238Z" fill="#424566"/>
</g>
<rect x="77" y="37" width="3" height="16" rx="1" fill="#0055FF"/>
<defs>
<linearGradient id="paint0_linear_68_1116" x1="32.6077" y1="56.427" x2="32.6077" y2="61.5378" gradientUnits="userSpaceOnUse">
<stop stop-color="white"/>
<stop offset="1" stop-color="#C4CBFF"/>
</linearGradient>
<linearGradient id="paint1_linear_68_1116" x1="32.6077" y1="63.2652" x2="32.6077" y2="68.3759" gradientUnits="userSpaceOnUse">
<stop stop-color="white"/>
<stop offset="1" stop-color="#C4CBFF"/>
</linearGradient>
<linearGradient id="paint2_linear_68_1116" x1="32.6077" y1="70.1034" x2="32.6077" y2="75.2142" gradientUnits="userSpaceOnUse">
<stop stop-color="white"/>
<stop offset="1" stop-color="#C4CBFF"/>
</linearGradient>
<clipPath id="clip0_68_1116">
<rect width="50" height="66.0134" fill="white" transform="translate(15 12)"/>
</clipPath>
</defs>
</svg>
