<svg width="324" height="40" viewBox="0 0 324 40" fill="none" xmlns="http://www.w3.org/2000/svg">
<rect x="0.5" y="0.5" width="151" height="39" rx="5.5" fill="black"/>
<rect x="0.5" y="0.5" width="151" height="39" rx="5.5" stroke="#A6A6A6"/>
<path d="M22.4042 19.5514L14.0769 28.3383C14.0777 28.3398 14.0777 28.3422 14.0785 28.3437C14.3342 29.2978 15.2102 30 16.2504 30C16.6665 30 17.0568 29.888 17.3916 29.6921L17.4182 29.6765L26.7912 24.2994L22.4042 19.5514Z" fill="#EA4335"/>
<path d="M30.8284 18.0551L30.8206 18.0497L26.7739 15.7177L22.2148 19.7511L26.7903 24.2985L30.8151 21.9898C31.5206 21.6103 32.0001 20.8708 32.0001 20.0186C32.0001 19.171 31.5277 18.4354 30.8284 18.0551Z" fill="#FBBC04"/>
<path d="M14.0766 11.6611C14.0266 11.8446 14 12.0374 14 12.2365V27.7636C14 27.9627 14.0266 28.1555 14.0774 28.3383L22.6902 19.7761L14.0766 11.6611Z" fill="#4285F4"/>
<path d="M22.4655 19.9999L26.7751 15.7161L17.413 10.3195C17.0728 10.1166 16.6754 9.99995 16.2507 9.99995C15.2105 9.99995 14.333 10.7037 14.0772 11.6586C14.0772 11.6593 14.0764 11.6601 14.0764 11.6609L22.4655 19.9999Z" fill="#34A853"/>
<path d="M45.45 12.67V16H44.53V12.67L42.12 8.84H43.2L44.97 11.75H45.01L46.74 8.84H47.82L45.45 12.67ZM51.1475 16.16C50.3542 16.16 49.7142 15.9 49.2275 15.38C48.7408 14.8667 48.4975 14.1867 48.4975 13.34V8.84H49.4175V13.38C49.4175 13.9667 49.5708 14.43 49.8775 14.77C50.1842 15.11 50.6075 15.28 51.1475 15.28C51.6875 15.28 52.1108 15.11 52.4175 14.77C52.7242 14.43 52.8775 13.9667 52.8775 13.38V8.84H53.7975V13.34C53.7975 14.2067 53.5575 14.8933 53.0775 15.4C52.5975 15.9067 51.9542 16.16 51.1475 16.16ZM50.8775 7.57C50.8775 7.72333 50.8208 7.85667 50.7075 7.97C50.6008 8.08333 50.4675 8.14 50.3075 8.14C50.1608 8.14 50.0275 8.08333 49.9075 7.97C49.7942 7.85 49.7375 7.71667 49.7375 7.57C49.7375 7.41 49.7942 7.27667 49.9075 7.17C50.0208 7.05667 50.1542 7 50.3075 7C50.4742 7 50.6108 7.05333 50.7175 7.16C50.8242 7.26667 50.8775 7.40333 50.8775 7.57ZM52.5575 7.57C52.5575 7.72333 52.5008 7.85667 52.3875 7.97C52.2808 8.08333 52.1475 8.14 51.9875 8.14C51.8408 8.14 51.7075 8.08333 51.5875 7.97C51.4742 7.85 51.4175 7.71667 51.4175 7.57C51.4175 7.41 51.4742 7.27667 51.5875 7.17C51.7008 7.05667 51.8342 7 51.9875 7C52.1542 7 52.2908 7.05333 52.3975 7.16C52.5042 7.26667 52.5575 7.40333 52.5575 7.57ZM59.1835 8.84H60.3735V8.88L57.7135 11.95L60.5535 15.96V16H59.4235L57.0935 12.66L55.9935 13.93V16H55.0735V8.84H55.9935V12.53H56.0335L59.1835 8.84ZM65.3142 16H61.2942V8.84H62.2142V15.12H65.3142V16ZM68.8747 9.54C68.5747 9.54 68.2914 9.56 68.0247 9.6C67.758 9.63333 67.5047 9.68333 67.2647 9.75C67.0314 9.81 66.808 9.87667 66.5947 9.95V9.13C66.7947 9.05667 67.0047 8.99333 67.2247 8.94C67.4447 8.88 67.6914 8.83333 67.9647 8.8C68.238 8.76667 68.548 8.75 68.8947 8.75C69.4547 8.75 69.948 8.83667 70.3747 9.01C70.808 9.18333 71.168 9.43333 71.4547 9.76C71.7414 10.0867 71.958 10.4767 72.1047 10.93C72.2514 11.3767 72.3247 11.88 72.3247 12.44C72.3247 12.9933 72.2547 13.4967 72.1147 13.95C71.9747 14.3967 71.768 14.78 71.4947 15.1C71.228 15.42 70.8914 15.6667 70.4847 15.84C70.0847 16.0133 69.6247 16.1 69.1047 16.1C68.398 16.1 67.8247 15.95 67.3847 15.65C66.9514 15.3433 66.6347 14.9167 66.4347 14.37C66.2414 13.8167 66.1447 13.17 66.1447 12.43V12.09H71.3747C71.3414 11.55 71.228 11.09 71.0347 10.71C70.848 10.33 70.5747 10.04 70.2147 9.84C69.8614 9.64 69.4147 9.54 68.8747 9.54ZM69.1047 15.31C69.5447 15.31 69.928 15.2167 70.2547 15.03C70.5814 14.8433 70.8414 14.57 71.0347 14.21C71.228 13.8433 71.3414 13.4 71.3747 12.88H67.1047C67.1047 13.38 67.168 13.8133 67.2947 14.18C67.4214 14.54 67.6314 14.82 67.9247 15.02C68.218 15.2133 68.6114 15.31 69.1047 15.31Z" fill="white"/>
<path d="M99.5181 29.4097H101.147V18.3981H99.5181V29.4097ZM114.189 22.3646L112.322 27.1388H112.266L110.328 22.3646H108.573L111.479 29.0371L109.823 32.749H111.521L116 22.3646H114.189ZM104.952 28.1588C104.418 28.1588 103.674 27.8902 103.674 27.2234C103.674 26.3742 104.6 26.0483 105.401 26.0483C106.116 26.0483 106.454 26.2042 106.889 26.4165C106.762 27.4365 105.892 28.1588 104.952 28.1588ZM105.148 22.1241C103.969 22.1241 102.747 22.6482 102.242 23.8101L103.688 24.4188C103.997 23.8101 104.572 23.611 105.176 23.611C106.019 23.611 106.875 24.121 106.889 25.0283V25.1411C106.594 24.971 105.963 24.7165 105.19 24.7165C103.632 24.7165 102.045 25.5806 102.045 27.1952C102.045 28.6689 103.323 29.6184 104.755 29.6184C105.85 29.6184 106.454 29.1225 106.833 28.5411H106.889V29.3912H108.461V25.1692C108.461 23.2146 107.015 22.1241 105.148 22.1241ZM95.0821 23.7053H92.7655V19.9308H95.0821C96.2998 19.9308 96.9911 20.9482 96.9911 21.8176C96.9911 22.6711 96.2998 23.7053 95.0821 23.7053ZM95.0402 18.3981H91.1375V29.4097H92.7655V25.2379H95.0402C96.8453 25.2379 98.6199 23.9184 98.6199 21.8176C98.6199 19.7168 96.8453 18.3981 95.0402 18.3981ZM73.7583 28.1606C72.6332 28.1606 71.6913 27.2102 71.6913 25.9047C71.6913 24.5852 72.6332 23.6198 73.7583 23.6198C74.8695 23.6198 75.7406 24.5852 75.7406 25.9047C75.7406 27.2102 74.8695 28.1606 73.7583 28.1606ZM75.6289 22.9812H75.5722C75.2064 22.5417 74.5038 22.1444 73.6178 22.1444C71.7611 22.1444 70.0599 23.7898 70.0599 25.9047C70.0599 28.0047 71.7611 29.6369 73.6178 29.6369C74.5038 29.6369 75.2064 29.2396 75.5722 28.7851H75.6289V29.3251C75.6289 30.7582 74.8695 31.5246 73.6457 31.5246C72.6471 31.5246 72.0282 30.8005 71.7751 30.1901L70.3549 30.7864C70.7626 31.78 71.8458 33 73.6457 33C75.5582 33 77.1757 31.8646 77.1757 29.0978V22.3708H75.6289V22.9812ZM78.3008 29.4097H79.9323V18.3973H78.3008V29.4097ZM82.3362 25.777C82.2943 24.3298 83.4474 23.5916 84.2766 23.5916C84.9243 23.5916 85.4725 23.9176 85.6549 24.3862L82.3362 25.777ZM87.3989 24.528C87.0899 23.6912 86.1472 22.1444 84.2208 22.1444C82.3083 22.1444 80.7196 23.6621 80.7196 25.8907C80.7196 27.9906 82.2943 29.6369 84.4032 29.6369C86.1053 29.6369 87.0899 28.5869 87.4976 27.9765L86.2319 27.1247C85.8103 27.7493 85.2333 28.1606 84.4032 28.1606C83.5739 28.1606 82.983 27.7774 82.6033 27.0261L87.5674 24.9534L87.3989 24.528ZM47.8501 23.2939V24.883H51.6184C51.5058 25.777 51.2107 26.4297 50.7612 26.8834C50.2121 27.4374 49.3541 28.0479 47.8501 28.0479C45.5291 28.0479 43.7152 26.1602 43.7152 23.8189C43.7152 21.4767 45.5291 19.5899 47.8501 19.5899C49.1018 19.5899 50.0157 20.0867 50.6905 20.7254L51.8017 19.604C50.8589 18.6959 49.6081 18 47.8501 18C44.6719 18 42 20.6117 42 23.8189C42 27.0261 44.6719 29.6369 47.8501 29.6369C49.5653 29.6369 50.8589 29.0688 51.8715 28.0047C52.9129 26.9547 53.2358 25.4793 53.2358 24.2866C53.2358 23.9176 53.2079 23.5775 53.1512 23.2939H47.8501ZM57.5208 28.1606C56.3957 28.1606 55.425 27.2243 55.425 25.8907C55.425 24.5421 56.3957 23.6198 57.5208 23.6198C58.6451 23.6198 59.6158 24.5421 59.6158 25.8907C59.6158 27.2243 58.6451 28.1606 57.5208 28.1606ZM57.5208 22.1444C55.4669 22.1444 53.7936 23.7194 53.7936 25.8907C53.7936 28.0479 55.4669 29.6369 57.5208 29.6369C59.5739 29.6369 61.2472 28.0479 61.2472 25.8907C61.2472 23.7194 59.5739 22.1444 57.5208 22.1444ZM65.65 28.1606C64.5249 28.1606 63.5542 27.2243 63.5542 25.8907C63.5542 24.5421 64.5249 23.6198 65.65 23.6198C66.7752 23.6198 67.745 24.5421 67.745 25.8907C67.745 27.2243 66.7752 28.1606 65.65 28.1606ZM65.65 22.1444C63.597 22.1444 61.9237 23.7194 61.9237 25.8907C61.9237 28.0479 63.597 29.6369 65.65 29.6369C67.7031 29.6369 69.3764 28.0479 69.3764 25.8907C69.3764 23.7194 67.7031 22.1444 65.65 22.1444Z" fill="white"/>
<rect x="172.5" y="0.5" width="151" height="39" rx="5.5" fill="white"/>
<rect x="172.5" y="0.5" width="151" height="39" rx="5.5" stroke="black"/>
<path d="M200.199 20.6359C200.209 19.8694 200.422 19.1177 200.817 18.451C201.213 17.7842 201.778 17.224 202.46 16.8225C202.027 16.23 201.455 15.7423 200.79 15.3983C200.125 15.0543 199.386 14.8634 198.63 14.8408C197.019 14.6789 195.457 15.7637 194.636 15.7637C193.799 15.7637 192.535 14.8569 191.173 14.8837C190.293 14.9109 189.435 15.156 188.682 15.5951C187.93 16.0342 187.31 16.6522 186.881 17.3891C185.025 20.4644 186.41 24.9841 188.187 27.47C189.077 28.6873 190.116 30.047 191.476 29.9988C192.807 29.9459 193.304 29.1864 194.911 29.1864C196.503 29.1864 196.969 29.9988 198.357 29.9681C199.785 29.9459 200.685 28.7454 201.543 27.5166C202.182 26.6493 202.674 25.6907 203 24.6763C202.17 24.3404 201.462 23.7782 200.964 23.0597C200.466 22.3412 200.2 21.4982 200.199 20.6359Z" fill="black"/>
<path d="M197.578 13.2059C198.356 12.3112 198.74 11.1611 198.647 10C197.457 10.1196 196.358 10.6638 195.569 11.5243C195.183 11.9446 194.888 12.4336 194.7 12.9633C194.511 13.4931 194.434 14.0531 194.472 14.6115C195.067 14.6174 195.656 14.4939 196.194 14.2504C196.732 14.007 197.205 13.6498 197.578 13.2059Z" fill="black"/>
<path d="M216.105 12.503V15.5H215.277V12.503L213.108 9.056H214.08L215.673 11.675H215.709L217.266 9.056H218.238L216.105 12.503ZM221.233 15.644C220.519 15.644 219.943 15.41 219.505 14.942C219.067 14.48 218.848 13.868 218.848 13.106V9.056H219.676V13.142C219.676 13.67 219.814 14.087 220.09 14.393C220.366 14.699 220.747 14.852 221.233 14.852C221.719 14.852 222.1 14.699 222.376 14.393C222.652 14.087 222.79 13.67 222.79 13.142V9.056H223.618V13.106C223.618 13.886 223.402 14.504 222.97 14.96C222.538 15.416 221.959 15.644 221.233 15.644ZM220.99 7.913C220.99 8.051 220.939 8.171 220.837 8.273C220.741 8.375 220.621 8.426 220.477 8.426C220.345 8.426 220.225 8.375 220.117 8.273C220.015 8.165 219.964 8.045 219.964 7.913C219.964 7.769 220.015 7.649 220.117 7.553C220.219 7.451 220.339 7.4 220.477 7.4C220.627 7.4 220.75 7.448 220.846 7.544C220.942 7.64 220.99 7.763 220.99 7.913ZM222.502 7.913C222.502 8.051 222.451 8.171 222.349 8.273C222.253 8.375 222.133 8.426 221.989 8.426C221.857 8.426 221.737 8.375 221.629 8.273C221.527 8.165 221.476 8.045 221.476 7.913C221.476 7.769 221.527 7.649 221.629 7.553C221.731 7.451 221.851 7.4 221.989 7.4C222.139 7.4 222.262 7.448 222.358 7.544C222.454 7.64 222.502 7.763 222.502 7.913ZM228.465 9.056H229.536V9.092L227.142 11.855L229.698 15.464V15.5H228.681L226.584 12.494L225.594 13.637V15.5H224.766V9.056H225.594V12.377H225.63L228.465 9.056ZM233.983 15.5H230.365V9.056H231.193V14.708H233.983V15.5ZM237.187 9.686C236.917 9.686 236.662 9.704 236.422 9.74C236.182 9.77 235.954 9.815 235.738 9.875C235.528 9.929 235.327 9.989 235.135 10.055V9.317C235.315 9.251 235.504 9.194 235.702 9.146C235.9 9.092 236.122 9.05 236.368 9.02C236.614 8.99 236.893 8.975 237.205 8.975C237.709 8.975 238.153 9.053 238.537 9.209C238.927 9.365 239.251 9.59 239.509 9.884C239.767 10.178 239.962 10.529 240.094 10.937C240.226 11.339 240.292 11.792 240.292 12.296C240.292 12.794 240.229 13.247 240.103 13.655C239.977 14.057 239.791 14.402 239.545 14.69C239.305 14.978 239.002 15.2 238.636 15.356C238.276 15.512 237.862 15.59 237.394 15.59C236.758 15.59 236.242 15.455 235.846 15.185C235.456 14.909 235.171 14.525 234.991 14.033C234.817 13.535 234.73 12.953 234.73 12.287V11.981H239.437C239.407 11.495 239.305 11.081 239.131 10.739C238.963 10.397 238.717 10.136 238.393 9.956C238.075 9.776 237.673 9.686 237.187 9.686ZM237.394 14.879C237.79 14.879 238.135 14.795 238.429 14.627C238.723 14.459 238.957 14.213 239.131 13.889C239.305 13.559 239.407 13.16 239.437 12.692H235.594C235.594 13.142 235.651 13.532 235.765 13.862C235.879 14.186 236.068 14.438 236.332 14.618C236.596 14.792 236.95 14.879 237.394 14.879Z" fill="black"/>
<path d="M216.344 24.356H219.992L218.168 19.46L216.344 24.356ZM220.504 25.7H215.832L214.76 28.5H213.176L217.368 17.476H218.968L223.144 28.5H221.576L220.504 25.7ZM225.514 21.028V22.196C226.026 21.348 227.066 20.868 228.122 20.868C230.171 20.868 231.866 22.42 231.866 24.788C231.866 27.156 230.171 28.66 228.122 28.66C227.066 28.66 226.026 28.228 225.514 27.38V32.132H224.058V21.028H225.514ZM225.53 24.804C225.53 26.404 226.778 27.236 227.978 27.236C229.323 27.236 230.395 26.292 230.395 24.804C230.395 23.316 229.323 22.292 227.978 22.292C226.666 22.292 225.53 23.22 225.53 24.804ZM234.794 21.028V22.196C235.306 21.348 236.346 20.868 237.402 20.868C239.451 20.868 241.146 22.42 241.146 24.788C241.146 27.156 239.451 28.66 237.402 28.66C236.346 28.66 235.306 28.228 234.794 27.38V32.132H233.338V21.028H234.794ZM234.81 24.804C234.81 26.404 236.058 27.236 237.258 27.236C238.602 27.236 239.674 26.292 239.674 24.804C239.674 23.316 238.602 22.292 237.258 22.292C235.946 22.292 234.81 23.22 234.81 24.804ZM245.921 25.316H247.409C247.409 26.276 248.385 27.268 249.777 27.268C251.185 27.268 251.873 26.484 252.001 25.652C252.081 24.468 251.121 23.908 250.129 23.684L248.705 23.332C246.353 22.74 246.017 21.412 246.017 20.452C246.017 18.596 247.713 17.348 249.585 17.348C251.585 17.348 253.137 18.596 253.137 20.58H251.649C251.649 19.476 250.785 18.772 249.569 18.772C248.481 18.772 247.505 19.428 247.505 20.436C247.505 20.916 247.681 21.636 249.073 21.972L250.513 22.324C252.577 22.852 253.697 24.004 253.457 25.78C253.249 27.38 251.953 28.66 249.777 28.66C247.537 28.66 245.921 27.044 245.921 25.316ZM256.945 21.028H258.529V22.26H256.945V28.5H255.489V22.26H254.145V21.028H255.489V18.212H256.945V21.028ZM263.007 28.66C260.879 28.66 259.103 27.108 259.103 24.74C259.103 22.372 260.879 20.868 263.007 20.868C265.135 20.868 266.927 22.372 266.927 24.74C266.927 27.108 265.135 28.66 263.007 28.66ZM263.007 27.252C264.335 27.252 265.471 26.276 265.471 24.74C265.471 23.236 264.335 22.292 263.007 22.292C261.647 22.292 260.543 23.236 260.543 24.74C260.543 26.276 261.647 27.252 263.007 27.252ZM269.851 25.78V28.5H268.395V21.028H269.851V22.708C270.235 21.38 270.955 20.868 271.931 20.868C272.459 20.868 273.019 21.012 273.227 21.156L273.003 22.516C272.603 22.324 272.203 22.26 271.899 22.26C270.459 22.26 269.851 23.796 269.851 25.78ZM275.01 24.18H279.65C279.474 22.916 278.594 22.18 277.378 22.18C276.146 22.18 275.186 22.916 275.01 24.18ZM281.09 24.74C281.09 24.916 281.09 25.14 281.074 25.316H275.01C275.186 26.58 276.146 27.348 277.426 27.348C278.322 27.348 279.138 26.948 279.57 26.196C279.954 26.372 280.418 26.5 280.818 26.676C280.178 28.004 278.834 28.66 277.378 28.66C275.25 28.66 273.554 27.108 273.554 24.74C273.554 22.372 275.25 20.868 277.378 20.868C279.506 20.868 281.09 22.372 281.09 24.74Z" fill="black"/>
</svg>
