<svg width="60" height="60" viewBox="0 0 60 60" fill="none" xmlns="http://www.w3.org/2000/svg">
<path d="M49.814 30.4963C50.2966 30.4963 50.6876 30.1051 50.6876 29.6227V28.4821C51.1665 28.4779 51.5536 28.0885 51.5536 27.6085C51.5536 27.126 51.1625 26.7349 50.68 26.7349H49.814C49.3315 26.7349 48.9404 27.126 48.9404 27.6085V29.6226C48.9404 30.1053 49.3316 30.4963 49.814 30.4963Z" fill="#1B3E77"/>
<path d="M38.2625 28.4825V29.623C38.2625 30.1055 38.6536 30.4967 39.1361 30.4967C39.6187 30.4967 40.0097 30.1055 40.0097 29.623V27.609C40.0097 27.1265 39.6187 26.7354 39.1361 26.7354H38.2701C37.7875 26.7354 37.3965 27.1265 37.3965 27.609C37.3966 28.0889 37.7836 28.4784 38.2625 28.4825Z" fill="#1B3E77"/>
<path d="M18.6421 33.4522C18.6421 32.9698 18.251 32.5786 17.7685 32.5786C17.2861 32.5786 16.8949 32.9698 16.8949 33.4522C16.8949 34.214 16.2752 34.8337 15.5135 34.8337C14.7517 34.8337 14.132 34.214 14.132 33.4522C14.132 32.9698 13.7408 32.5786 13.2584 32.5786C12.7759 32.5786 12.3848 32.9698 12.3848 33.4522C12.3848 35.1774 13.7882 36.5809 15.5135 36.5809C17.2387 36.5809 18.6421 35.1774 18.6421 33.4522Z" fill="#1B3E77"/>
<path d="M44.4747 36.2379C46.2372 36.2379 47.671 34.8041 47.671 33.0416C47.671 32.5591 47.28 32.168 46.7974 32.168C46.3149 32.168 45.9238 32.5591 45.9238 33.0416C45.9238 33.8406 45.2737 34.4907 44.4747 34.4907C43.6756 34.4907 43.0255 33.8406 43.0255 33.0416C43.0255 32.5591 42.6345 32.168 42.1519 32.168C41.6693 32.168 41.2783 32.5591 41.2783 33.0416C41.2783 34.8041 42.7122 36.2379 44.4747 36.2379Z" fill="#1B3E77"/>
<path d="M14.8586 29.174V29.0525H16.1681V29.174C16.1681 30.2867 17.0733 31.1918 18.1859 31.1918H22.6534C23.766 31.1918 24.6712 30.2867 24.6712 29.174V27.1838C24.6712 26.0712 23.766 25.166 22.6534 25.166H18.1859C17.0733 25.166 16.1681 26.0712 16.1681 27.1838V27.3053H14.8586V27.1838C14.8586 26.0712 13.9534 25.166 12.8408 25.166H8.37328C7.26065 25.166 6.35547 26.0712 6.35547 27.1838V29.174C6.35547 30.2867 7.26065 31.1918 8.37328 31.1918H12.8408C13.9534 31.1918 14.8586 30.2867 14.8586 29.174ZM17.9153 27.1838C17.9153 27.0346 18.0367 26.9132 18.1859 26.9132H22.6534C22.8026 26.9132 22.924 27.0346 22.924 27.1838V29.174C22.924 29.3232 22.8026 29.4446 22.6534 29.4446H18.1859C18.0367 29.4446 17.9153 29.3232 17.9153 29.174V27.1838ZM8.10269 29.174V27.1838C8.10269 27.0346 8.22406 26.9132 8.37328 26.9132H12.8408C12.99 26.9132 13.1114 27.0346 13.1114 27.1838V29.174C13.1114 29.3232 12.99 29.4446 12.8408 29.4446H8.37328C8.22406 29.4446 8.10269 29.3232 8.10269 29.174Z" fill="#1B3E77"/>
<path d="M48.7082 34.9173C48.4653 35.4933 48.8899 36.1306 49.5129 36.1306C49.8536 36.1306 50.1775 35.9299 50.3182 35.5961C50.8229 34.3991 50.1798 33.144 49.7203 32.5912C49.412 32.22 48.861 32.1693 48.49 32.4777C48.1189 32.786 48.0682 33.3369 48.3766 33.708C48.4876 33.8412 48.8947 34.4752 48.7082 34.9173Z" fill="#1B3E77"/>
<path d="M39.2305 32.5909C38.771 33.1439 38.1278 34.3989 38.6325 35.5959C38.7732 35.9296 39.0971 36.1303 39.4379 36.1303C40.0605 36.1303 40.4855 35.4933 40.2425 34.9171C40.0623 34.4897 40.4329 33.8834 40.5775 33.7037C40.8821 33.3327 40.8304 32.7849 40.4607 32.4776C40.0901 32.1694 39.539 32.22 39.2305 32.5909Z" fill="#1B3E77"/>
<path d="M19.5282 32.4777C19.1571 32.786 19.1063 33.3369 19.4147 33.708C19.5255 33.8412 19.9326 34.4752 19.7462 34.9173C19.5588 35.3619 19.7672 35.8743 20.2118 36.0617C20.3227 36.1084 20.4376 36.1306 20.5509 36.1306C20.8917 36.1306 21.2155 35.9299 21.3562 35.5961C21.8609 34.3991 21.218 33.144 20.7584 32.5912C20.4501 32.22 19.8993 32.1693 19.5282 32.4777Z" fill="#1B3E77"/>
<path d="M11.4988 32.4776C11.1279 32.1693 10.5769 32.2201 10.2685 32.5911C9.80897 33.1439 9.16587 34.399 9.6707 35.5961C9.81141 35.9298 10.1352 36.1305 10.4761 36.1305C11.0986 36.1305 11.5236 35.4934 11.2806 34.9172C11.1004 34.4899 11.4707 33.8837 11.6155 33.7038C11.9202 33.3328 11.8685 32.7849 11.4988 32.4776Z" fill="#1B3E77"/>
<path d="M54.1706 41.6648H54.1052H49.8972V40.2232C52.9351 38.6525 55.2019 35.7918 55.9692 32.3708C58.2367 32.0967 59.9999 30.1618 59.9999 27.8216C59.9999 26.1631 59.1145 24.7076 57.7915 23.9027V22.5619C57.7916 21.1755 57.5719 19.811 57.1386 18.5064C56.9866 18.0486 56.492 17.8005 56.0343 17.9528C55.5764 18.1049 55.3284 18.5994 55.4806 19.0573C55.8548 20.1839 56.0445 21.3629 56.0444 22.5619V23.2379C55.1129 23.2379 48.834 23.2379 43.982 23.2379C40.588 23.2379 37.8237 20.4745 37.8237 17.0796C37.8237 15.6924 38.3348 14.3587 39.2662 13.3224C41.1598 11.2154 43.3931 11.4529 44.9355 11.4529C46.644 11.4529 48.3239 11.8323 49.9036 12.6238C49.9261 12.6351 49.9493 12.6443 49.9725 12.6535C51.4054 13.3826 52.681 14.4267 53.7058 15.7427C54.0024 16.1235 54.5513 16.1915 54.9318 15.8952C55.3124 15.5987 55.3807 15.0497 55.0843 14.6691C54.0214 13.3042 52.7254 12.1918 51.274 11.3682C51.9029 7.05005 48.5353 3.25928 44.2647 3.25928C40.3571 3.25928 37.178 6.43829 37.178 10.3459C37.178 10.8023 37.2225 11.252 37.3077 11.6931C33.4046 13.2934 30.7378 17.1345 30.7378 21.485V24.2923C30.7378 24.3337 30.7416 24.3741 30.7472 24.4139C30.5791 24.5653 30.4226 24.7289 30.2789 24.9035C30.0735 24.5899 29.831 24.303 29.5573 24.049C29.5796 23.9718 29.5922 23.8904 29.5922 23.8061V16.0127C29.5922 11.836 26.1943 8.43804 22.0176 8.43804H11.8998C9.24256 8.43804 6.91911 9.88835 5.67474 12.0379C3.38367 12.8554 1.90727 15.069 2.12625 17.4391L2.66311 23.2479C1.09248 23.9758 0 25.5664 0 27.4082C0 29.7359 1.74442 31.6625 3.99449 31.9527C4.77655 35.4462 7.12248 38.3554 10.2563 39.9048V40.7989C7.88951 41.9392 7.9742 41.8777 7.77781 42.0532C5.77619 42.0532 10.1435 42.0532 5.45039 42.0532C2.64436 42.0532 0.361558 44.3361 0.361558 47.142V49.925C0.361558 50.4074 0.752702 50.7986 1.23517 50.7986C1.71763 50.7986 2.10878 50.4074 2.10878 49.925V47.142C2.10878 45.5538 3.22292 44.2217 4.71039 43.8839V54.9933H2.10878V54.0018C2.10878 53.5193 1.71763 53.1282 1.23517 53.1282C0.752702 53.1282 0.361558 53.5193 0.361558 54.0018V55.8669C0.361558 56.3494 0.752702 56.7405 1.23517 56.7405H58.7133C59.1959 56.7405 59.587 56.3494 59.587 55.8669V47.0811C59.587 44.0946 57.1572 41.6648 54.1706 41.6648ZM56.23 25.1042C57.3986 25.4548 58.2527 26.5404 58.2527 27.8217C58.2527 29.103 57.3986 30.1886 56.23 30.5392C56.2308 30.526 56.231 30.513 56.2318 30.4998C56.2634 29.963 56.253 29.8924 56.253 25.8395C56.2531 25.6061 56.242 25.2944 56.23 25.1042ZM44.2647 5.0065C47.2842 5.0065 49.7263 7.5261 49.5991 10.5728C48.1555 10.0129 46.5706 9.7057 44.9355 9.7057C43.2921 9.7057 41.2922 9.51526 39.081 11.1435C39.05 11.1502 39.019 11.1568 38.9882 11.1638C38.9468 10.895 38.9253 10.6219 38.9253 10.3459C38.9253 7.40182 41.3205 5.0065 44.2647 5.0065ZM38.4151 22.6896C39.922 24.1909 41.9252 24.9853 43.982 24.9853H54.4684C54.4946 25.2867 54.5059 25.5795 54.5059 25.8395V29.8039C54.5059 33.6165 52.3264 37.1895 48.6598 38.8672C47.3381 39.4727 45.8839 39.7977 44.3343 39.7765C43.0262 39.7672 41.6316 39.476 40.3215 38.8811C36.5754 37.1811 34.4323 33.5846 34.4323 29.8039V25.8395C34.4323 25.49 34.457 25.084 34.4914 24.7684C35.9792 24.35 37.3141 23.6145 38.4151 22.6896ZM48.15 40.9532C48.15 42.6304 48.1718 42.8067 48.0756 43.2757C47.7339 44.9411 46.2569 46.1974 44.4919 46.1974C42.4749 46.1974 40.8339 44.5565 40.8339 42.5384V40.968C42.1004 41.3743 43.273 41.5255 44.5314 41.5255C45.7937 41.5256 47.0098 41.3241 48.15 40.9532ZM32.485 21.4851C32.485 18.3076 34.1879 15.4543 36.7953 13.8952C35.7126 16.1555 35.8313 19.0159 37.316 21.3295C35.9231 22.5084 34.2293 23.2065 32.485 23.3765V21.4851ZM31.0249 27.3484C31.185 26.3829 31.826 25.5851 32.7019 25.2127C32.6675 25.8501 32.6802 30.0223 32.7019 30.4305V30.4306C31.7301 30.0175 31.0476 29.0806 30.9906 27.972C31.0134 27.787 31.0264 27.5991 31.0264 27.4082C31.0264 27.3882 31.0252 27.3685 31.0249 27.3484ZM29.2729 27.2573C29.2506 27.4423 29.2376 27.6304 29.2376 27.8217C29.2376 27.8423 29.2389 27.8627 29.2391 27.8833C29.0581 28.952 28.2775 29.8194 27.2564 30.1257C27.2944 29.5205 27.2899 25.2265 27.2565 24.6907C28.379 25.0274 29.2089 26.0426 29.2729 27.2573ZM11.8996 10.1853H22.0174C25.2307 10.1853 27.8447 12.7994 27.8447 16.0127V22.9326C27.0577 22.9326 27.174 22.8245 26.4427 22.8245C20.3372 22.8245 20.6708 22.7835 20.4001 22.9326H13.7626C9.73434 22.9326 6.45761 19.654 6.45738 15.6278C6.45738 15.6277 6.45738 15.6275 6.45738 15.6274C6.45749 12.6243 8.90383 10.1853 11.8996 10.1853ZM3.73393 30.1147C2.58379 29.7527 1.74722 28.6763 1.74722 27.4082C1.74722 26.1399 2.58379 25.0635 3.73416 24.7017C3.73101 24.7514 3.73393 28.0583 3.73393 30.1147ZM4.2836 21.7979L3.8659 17.2783C3.77574 16.3024 4.12577 15.3642 4.77422 14.6613C4.5691 16.1924 4.86461 17.8792 5.46763 19.2525C4.96944 20.0538 4.56665 20.9247 4.2836 21.7979ZM5.45878 29.3903V25.426C5.45878 23.9103 5.80159 22.396 6.48556 21.0129C8.19726 23.3349 10.8891 24.6797 13.7627 24.6797H25.5046C25.5194 24.8782 25.6145 29.6372 25.4117 30.9385C24.6655 35.7057 20.5313 39.3646 15.5579 39.3646C9.6874 39.3648 5.45878 34.687 5.45878 29.3903ZM20.0005 42.3518L21.6808 43.1614L18.7729 45.8924L16.9788 44.3784C19.0015 43.0218 18.2584 43.5201 20.0005 42.3518ZM15.5295 43.2465L12.0035 40.8817V40.602C13.22 40.9748 14.3712 41.112 15.5579 41.112C16.6949 41.112 17.9046 40.9415 19.0555 40.5811V40.8817L15.5295 43.2465ZM11.0585 42.3518C13.6154 44.0665 13.383 43.9107 14.0803 44.3784L12.2861 45.8925L9.37826 43.1615L11.0585 42.3518ZM24.5689 54.9934H6.45749V43.8004H7.55579C7.68416 43.9912 7.56022 43.8509 11.3529 47.413C11.8414 47.8719 12.6103 47.9051 13.1371 47.4604L15.5295 45.4415L15.8418 45.705C15.9138 45.7656 17.8856 47.4312 17.9596 47.4893C18.4936 47.9084 19.2348 47.8554 19.706 47.4128L23.3072 44.0305C23.3072 44.0305 23.3072 44.0304 23.3073 44.0304L23.3074 44.0303C23.3808 43.9613 23.465 43.8568 23.5031 43.8001H24.5688L24.5689 54.9934ZM28.9504 54.9934H26.3162V43.8764C27.82 44.202 28.9504 45.5422 28.9504 47.142V54.9934ZM33.5604 54.9934H30.6995V47.0812C30.6995 45.3358 31.9249 43.8721 33.5604 43.5029V54.9934ZM34.3687 41.6648C32.4315 41.6648 30.7295 42.6877 29.7719 44.2211C28.8423 42.9001 27.3703 42.0532 25.4425 42.0532H23.2812C23.1888 41.9706 23.0856 41.8987 22.971 41.8436L20.8027 40.7989V39.871C23.9012 38.3141 26.2182 35.4236 26.9957 31.9574C28.1899 31.813 29.2445 31.2089 29.975 30.3263C30.6398 31.35 31.7044 32.0881 32.9587 32.3236C33.7195 35.7827 36.012 38.6743 39.0867 40.2471V41.6648C36.6225 41.6648 36.8468 41.6648 34.3687 41.6648ZM53.2316 54.9934H35.3076V43.412H39.1571C39.5731 45.9647 41.7934 47.933 44.4694 47.9441C44.477 47.9441 44.4845 47.9447 44.492 47.9447C44.4996 47.9447 44.507 47.9441 44.5146 47.9441C47.1385 47.9332 49.4014 46.021 49.8268 43.412H53.2316V54.9934ZM57.8397 54.9934H54.9788V43.5028C56.6142 43.872 57.8397 45.3357 57.8397 47.0811V54.9934Z" fill="#1B3E77"/>
</svg>
