<svg width="62" height="62" viewBox="0 0 62 62" fill="none" xmlns="http://www.w3.org/2000/svg">
<path d="M40.3379 47.0434L49.0147 33.8945C49.9966 32.7223 51.6561 32.4276 52.9684 33.193C54.6631 34.1829 55.0714 36.4914 53.8218 38.0222L46.2173 47.0435" stroke="#1B3E77" stroke-width="2" stroke-miterlimit="10" stroke-linecap="round" stroke-linejoin="round"/>
<path d="M56.5924 44.9077L60.2714 40.2009C61.5218 38.6706 61.1134 36.3607 59.4174 35.3715C58.1058 34.6064 56.4456 34.9012 55.4649 36.0732L46.2174 47.0434H25.4388V43.8834L33.9988 40.9089C35.0734 40.5355 35.7958 39.5066 35.7958 38.3496C35.7958 36.8562 34.6079 35.6456 33.1426 35.6456H25.3798C24.0801 35.6456 22.8154 36.075 21.7772 36.8719C19.995 38.2397 17.1934 40.4778 15.6826 42.1362C14.4671 43.4706 13.79 45.2225 13.79 47.0433V61H32.3545C33.7762 61 35.1865 60.7426 36.5198 60.2399L45.3231 56.9204C47.3289 55.9368 49.091 54.5046 50.4779 52.7301L53.8671 48.3941" stroke="#1B3E77" stroke-width="2" stroke-miterlimit="10" stroke-linecap="round" stroke-linejoin="round"/>
<path d="M1.00012 51.8512V46.5587V41.2663C1.00012 40.0529 1.96519 39.0693 3.15577 39.0693H11.699C12.854 39.0693 13.7902 40.0235 13.7902 41.2006V61.0004H3.15564C1.96507 61.0004 1 60.0167 1 58.8035V56.5163" stroke="#1B3E77" stroke-width="2" stroke-miterlimit="10" stroke-linecap="round" stroke-linejoin="round"/>
<path d="M21.7788 36.8717C16.0582 33.5849 12.1953 27.3348 12.1953 20.1652C12.1953 9.58051 20.6146 1 31.0004 1C41.3862 1 49.8055 9.58051 49.8055 20.1652C49.8055 27.5453 45.7124 33.9511 39.7136 37.1534" stroke="#1B3E77" stroke-width="2" stroke-miterlimit="10" stroke-linecap="round" stroke-linejoin="round"/>
<path d="M30.9606 14.7988C32.8232 14.7988 34.3332 13.2599 34.3332 11.3616C34.3332 9.46322 32.8232 7.92432 30.9606 7.92432C29.0979 7.92432 27.5879 9.46322 27.5879 11.3616C27.5879 13.2599 29.0979 14.7988 30.9606 14.7988Z" stroke="#1B3E77" stroke-width="2" stroke-miterlimit="10" stroke-linecap="round" stroke-linejoin="round"/>
<path d="M36.3275 29.5832C35.1254 31.2921 33.1598 32.4055 30.9392 32.4055C27.2799 32.4055 24.3135 29.3823 24.3135 25.6529C24.3135 21.9236 27.2799 18.9004 30.9392 18.9004" stroke="#1B3E77" stroke-width="2" stroke-miterlimit="10" stroke-linecap="round" stroke-linejoin="round"/>
<path d="M30.96 14.7993V23.1459H35.8721L40.9449 28.3158" stroke="#1B3E77" stroke-width="2" stroke-miterlimit="10" stroke-linecap="round" stroke-linejoin="round"/>
<path d="M30.96 18.9004H35.9524" stroke="#1B3E77" stroke-width="2" stroke-miterlimit="10" stroke-linecap="round" stroke-linejoin="round"/>
</svg>
