<svg width="60" height="60" viewBox="0 0 60 60" fill="none" xmlns="http://www.w3.org/2000/svg">
<g clip-path="url(#clip0_248_1144)">
<path d="M2.03679 49.8639V57.1139C2.03679 57.6661 1.58904 58.1139 1.03679 58.1139C0.484544 58.1139 0.0367939 57.6661 0.0367939 57.1139V49.8639C0.0367939 49.3116 0.484544 48.8639 1.03679 48.8639C1.58904 48.8639 2.03679 49.3116 2.03679 49.8639ZM16.5182 33.0684C16.5053 33.6125 16.0602 34.0449 15.5189 34.0449C13.6108 34.0449 11.5379 32.9632 10.4093 31.0192H8.69779C5.02492 31.0192 2.03679 34.0074 2.03679 37.6804V44.4416H7.75004V42.9889C7.75004 42.4366 8.19779 41.9889 8.75004 41.9889C9.30229 41.9889 9.75004 42.4366 9.75004 42.9889V57.1139C9.75004 57.6661 9.30229 58.1139 8.75004 58.1139C8.19779 58.1139 7.75004 57.6661 7.75004 57.1139V46.4415H1.00004C0.347294 46.4415 -0.140706 45.821 0.0367939 45.1761V37.6802C0.0367939 32.9045 3.92204 29.0191 8.69779 29.0191H10.2398L10.971 26.8117C8.28667 25.2031 6.74017 22.345 6.74017 19.3669C6.74017 17.7644 6.74017 9.83548 6.74017 8.24036C6.74017 4.73673 9.59067 1.88623 13.0943 1.88623H26.7863C27.3385 1.88623 27.7863 2.33398 27.7863 2.88623V5.77661C27.7863 10.6014 23.861 14.5266 19.0363 14.5266H8.74017V19.3669C8.74017 23.1702 11.9778 26.3549 16.0075 26.0011C19.4028 25.7025 22.0623 22.7571 22.0623 19.2956V17.357C22.0623 16.8047 22.51 16.357 23.0623 16.357C23.6145 16.357 24.0623 16.8047 24.0623 17.357V19.2956C24.0623 22.1991 22.6343 24.8865 20.2973 26.5057L21.2462 29.6555C21.439 30.2957 20.9597 30.9442 20.2883 30.9442C19.8585 30.9442 19.4615 30.6651 19.3312 30.2325L18.4955 27.4585C16.6697 28.1601 14.6399 28.2089 12.8053 27.6347L12.062 29.8785C12.7478 31.1719 14.078 32.0106 15.542 32.045C16.094 32.0581 16.531 32.5162 16.5182 33.0684ZM8.74017 12.5267H19.0363C22.7582 12.5267 25.7863 9.49861 25.7863 5.77673V3.88636H13.0943C10.6934 3.88636 8.74017 5.83961 8.74017 8.24048V12.5267ZM54.5643 29.6147C54.0515 29.4087 53.4695 29.6567 53.2633 30.1692C53.0572 30.6816 53.3054 31.2641 53.8178 31.4702C56.3584 32.4925 58.0002 34.9227 58.0002 37.6616V39.9889C58.0002 40.5411 58.4479 40.9889 59.0002 40.9889C59.5524 40.9889 60.0002 40.5411 60.0002 39.9889V37.6616C60 34.102 57.8664 30.9434 54.5643 29.6147ZM49.2759 30.916C48.8462 30.916 48.4492 30.6369 48.3188 30.2042L47.4829 27.4294C45.7288 28.101 43.7007 28.2014 41.7838 27.5982L41.0378 29.8504C41.7247 31.1457 43.057 31.9861 44.5237 32.0205C45.0758 32.0335 45.5128 32.4917 45.4999 33.0439C45.487 33.588 45.0419 34.0204 44.5007 34.0204C42.3357 34.0204 40.0342 32.6501 39.0419 30.3056C38.9473 30.0821 38.9372 29.8317 39.0135 29.6014L39.9505 26.773C37.3329 25.2004 35.712 22.3502 35.712 19.254V15.3952C35.712 14.8252 36.191 14.3782 36.7244 14.3954C41.0008 14.4461 45.3067 13.806 49.4832 12.4039C51.2154 11.8225 53.0535 13.0915 53.0535 14.9657V19.3251C53.0535 22.0754 51.7288 24.794 49.2858 26.4797L50.2339 29.6274C50.4268 30.2676 49.9474 30.916 49.2759 30.916ZM51.0534 19.3251V14.9657C51.0534 14.7369 50.947 14.5291 50.7617 14.3956C50.2944 14.0596 50.2365 14.3744 47.3772 15.1132C44.2354 15.9246 40.9887 16.355 37.712 16.3951V19.2539C37.712 22.7202 40.3755 25.67 43.7757 25.9691C47.8115 26.3246 51.0534 23.1316 51.0534 19.3251ZM34.6703 47.9685L35.5777 50.8097C35.7457 51.3359 35.4553 51.8985 34.9292 52.0666C34.4023 52.2346 33.8402 51.9439 33.6723 51.4181L32.8339 48.7931C30.9854 49.3896 29.0077 49.3842 27.1807 48.7981L26.4454 51.0564C27.1042 52.3755 28.4252 53.2337 29.8999 53.2706C30.452 53.2844 30.8884 53.7431 30.8745 54.2952C30.861 54.8389 30.416 55.2702 29.8754 55.2702C27.9528 55.2702 25.8398 54.1601 24.7399 52.1139H22.75C20.5444 52.1139 18.75 53.9082 18.75 56.1139V57.1139C18.75 57.6661 18.3023 58.1139 17.75 58.1139C17.1978 58.1139 16.75 57.6661 16.75 57.1139V56.1139C16.75 52.8055 19.4417 50.1139 22.75 50.1139H24.6489L25.3447 47.9769C22.5994 46.3709 20.75 43.3926 20.75 39.9889C20.75 34.011 26.3684 29.5795 32.1962 31.0045V14.3954C32.1962 7.52886 37.7824 1.94261 44.649 1.94261C51.5155 1.94261 57.1018 7.52886 57.1018 14.3954V24.6639C57.1018 25.2161 56.654 25.6639 56.1018 25.6639C55.5495 25.6639 55.1018 25.2161 55.1018 24.6639V14.3954C55.1018 8.63173 50.4127 3.94261 44.649 3.94261C38.8853 3.94261 34.1962 8.63173 34.1962 14.3954V31.7496C40.7082 35.0796 40.9795 44.2615 34.6703 47.9685ZM37.25 39.9889C37.25 35.9912 33.9977 32.7389 30 32.7389C26.0024 32.7389 22.75 35.9912 22.75 39.9889C22.75 43.9865 26.0024 47.2389 30 47.2389C33.9977 47.2389 37.25 43.9866 37.25 39.9889ZM39.9633 50.7612C39.4705 50.511 38.8688 50.7079 38.6189 51.2001C38.3688 51.6925 38.5653 52.2945 39.0578 52.5445C40.4102 53.2311 41.25 54.5989 41.25 56.1139V57.1139C41.25 57.6661 41.6978 58.1139 42.25 58.1139C42.8023 58.1139 43.25 57.6661 43.25 57.1139V56.1139C43.25 53.8417 41.9907 51.7906 39.9633 50.7612ZM59 44.4415H52.25V42.9889C52.25 42.4366 51.8023 41.9889 51.25 41.9889C50.6978 41.9889 50.25 42.4366 50.25 42.9889V57.1139C50.25 57.6661 50.6978 58.1139 51.25 58.1139C51.8023 58.1139 52.25 57.6661 52.25 57.1139V46.4415H58V57.1139C58 57.6661 58.4478 58.1139 59 58.1139C59.5523 58.1139 60 57.6661 60 57.1139V45.4415C60 44.8892 59.5523 44.4415 59 44.4415Z" fill="#1B3E77"/>
</g>
<defs>
<clipPath id="clip0_248_1144">
<rect width="60" height="60" fill="white"/>
</clipPath>
</defs>
</svg>
