<svg width="1440" height="396" viewBox="0 0 1440 396" fill="none" xmlns="http://www.w3.org/2000/svg">
<path d="M1416.14 3.87737L1404.95 1M1416.14 3.87737H1382.99M1416.14 3.87737L1427.69 6.84976M1416.14 3.87737H1439.61M1404.95 1L1409.02 1.00112L1413.05 1.00735L1416.99 1.02487L1420.81 1.05937L1424.47 1.11535L1427.92 1.19963L1431.12 1.31669L1434.1 1.46598L1436.65 1.6724L1438.97 1.91162L1439.61 1.99541V3.87737M1404.95 1H1372.33M1372.33 1H1339.72M1372.33 1L1382.99 3.87737M1339.72 1H1307.1M1339.72 1L1349.84 3.87737M1307.1 1H1274.48M1307.1 1L1316.69 3.87737M1274.48 1H1241.87M1274.48 1L1283.54 3.87737M1241.87 1H1209.25M1241.87 1L1250.39 3.87737M1209.25 1H1176.63M1209.25 1L1217.24 3.87737M1176.63 1H1144.02M1176.63 1L1184.09 3.87737M1144.02 1H1111.4M1144.02 1L1150.94 3.87737M1111.4 1H1078.78M1111.4 1L1117.79 3.87737M1078.78 1H1046.17M1078.78 1L1084.64 3.87737M1046.17 1H1013.55M1046.17 1L1051.49 3.87737M1013.55 1H980.933M1013.55 1L1014.73 1.71086L1016.53 2.78705L1018.34 3.87737M980.933 1H948.317M980.933 1L981.985 1.71086L985.194 3.87737M948.317 1H915.7M948.317 1L952.045 3.87737M915.7 1H883.083M915.7 1L916.886 2.06826L918.088 3.14898L918.491 3.51261L918.896 3.87737M883.083 1H850.467M883.083 1L884.072 2.06826L884.404 2.4268L884.738 2.78705L885.747 3.87737M850.467 1H817.85M850.467 1L852.598 3.87737M817.85 1L818.047 1.35457L818.244 1.71086L819.245 3.51261L819.448 3.87737M817.85 1H785.234M785.234 1H752.616M785.234 1L786.299 3.87737M752.616 1H720M752.616 1L752.814 2.06826L753.149 3.87737M720 1H687.384M720 1V3.87737M687.384 1H654.766M687.384 1L687.186 2.06826L686.851 3.87737M654.766 1H622.15M654.766 1L653.701 3.87737M622.15 1L621.953 1.35457L621.756 1.71086L620.755 3.51261L620.552 3.87737M622.15 1H589.534M589.534 1H556.916M589.534 1L587.673 3.51261L587.402 3.87737M556.916 1H524.3M556.916 1L555.928 2.06826L555.596 2.4268L554.927 3.14898L554.591 3.51261L554.253 3.87737M524.3 1H491.683M524.3 1L523.114 2.06826L521.913 3.14898L521.509 3.51261L521.104 3.87737M491.683 1H459.067M491.683 1L487.955 3.87737M459.067 1H426.45M459.067 1L458.015 1.71086L454.806 3.87737M426.45 1H393.833M426.45 1L421.656 3.87737M393.833 1H361.217M393.833 1L388.507 3.87737M361.217 1H328.6M361.217 1L355.357 3.87737M328.6 1H295.983M328.6 1L322.208 3.87737M295.983 1H263.367M295.983 1L289.059 3.87737M263.367 1H230.751M263.367 1L255.909 3.87737M230.751 1H198.133M230.751 1L222.76 3.87737M198.133 1H165.517M198.133 1L189.61 3.87737M165.517 1H132.9M165.517 1L156.461 3.87737M132.9 1H100.283M132.9 1L123.312 3.87737M100.283 1H67.6668M100.283 1L90.163 3.87737M67.6668 1H35.0504M67.6668 1L57.0136 3.87737M35.0504 1L30.9801 1.00112L26.9517 1.00735L23.0074 1.02487L19.1867 1.05937L15.5316 1.11535L12.0812 1.19963L8.87672 1.31669L5.90232 1.46598L3.34995 1.6724L1.0262 1.91162L0.387546 1.99543V3.87737M35.0504 1L23.8641 3.87737M90.163 3.87737H123.312M90.163 3.87737H57.0136M90.163 3.87737L79.7053 6.84976M123.312 3.87737L113.405 6.84976M123.312 3.87737H156.461M222.76 3.87737H255.909M222.76 3.87737H189.61M222.76 3.87737L220.722 4.61142L214.504 6.84976M255.909 3.87737L248.204 6.84976M255.909 3.87737H289.059M355.357 3.87737H388.507M355.357 3.87737H322.208M355.357 3.87737L353.863 4.61142L353.11 4.98014L349.303 6.84976M388.507 3.87737L387.828 4.24326L387.148 4.61142L383.003 6.84976M388.507 3.87737H421.656M487.955 3.87737L487.48 4.24326L484.102 6.84976M487.955 3.87737H521.104M487.955 3.87737H454.806M521.104 3.87737L520.289 4.61142L519.878 4.98014L519.467 5.35113L517.802 6.84976M521.104 3.87737H554.253M620.552 3.87737H653.701M620.552 3.87737H587.402M620.552 3.87737L618.901 6.84976M653.701 3.87737L653.566 4.24326L653.43 4.61142L653.293 4.98014L652.879 6.09705L652.601 6.84976M653.701 3.87737H686.851M753.149 3.87737H786.299M753.149 3.87737H720M753.149 3.87737L753.7 6.84976M786.299 3.87737L786.434 4.24326L786.57 4.61142L786.707 4.98014L787.399 6.84976M786.299 3.87737H819.448M885.747 3.87737H918.896M885.747 3.87737H852.598M885.747 3.87737L886.426 4.61142L887.802 6.09705L888.149 6.47256L888.499 6.84976M918.896 3.87737L919.711 4.61142L920.122 4.98014L920.534 5.35113L922.198 6.84976M918.896 3.87737H952.045M1018.34 3.87737H1051.49M1018.34 3.87737H985.194M1018.34 3.87737L1019.57 4.61142L1020.18 4.98014L1023.3 6.84976M1051.49 3.87737L1052.17 4.24326L1052.85 4.61142L1057 6.84976M1051.49 3.87737H1084.64M1150.94 3.87737H1184.09M1150.94 3.87737H1117.79M1150.94 3.87737L1152.71 4.61142L1153.6 4.98014L1158.1 6.84976M1184.09 3.87737L1191.8 6.84976M1184.09 3.87737H1217.24M1283.54 3.87737H1316.69M1283.54 3.87737H1250.39M1283.54 3.87737L1292.89 6.84976M1316.69 3.87737L1326.6 6.84976M1316.69 3.87737H1349.84M0.271359 30.7849H0.387546M33.6366 30.7849L46.2928 26.9875M33.6366 30.7849L20.4955 34.7277M33.6366 30.7849H71.7679M33.6366 30.7849H0.387546M46.2928 26.9875H8.86473M46.2928 26.9875L58.491 23.3274M46.2928 26.9875H83.7209M8.86473 26.9875L21.7405 23.3274M8.86473 26.9875H0.387546M8.86473 26.9875L0.387546 29.3966M46.1414 16.3907H81.6078M46.1414 16.3907L57.7137 13.101M46.1414 16.3907H10.6758M46.1414 16.3907L34.1576 19.7974M81.6078 16.3907L92.5714 13.101M81.6078 16.3907L70.2552 19.7974M81.6078 16.3907H117.074M57.7137 13.101H92.5714M57.7137 13.101L68.8954 9.9228M57.7137 13.101H22.8567M92.5714 13.101H127.428M92.5714 13.101L103.164 9.9228M0.0224927 90.7246H0.387546M30.7904 90.7246L47.1106 84.4287M30.7904 90.7246L13.6591 97.3339M30.7904 90.7246H80.0202M30.7904 90.7246H0.387546M47.1106 84.4287L62.676 78.424M47.1106 84.4287H95.174M47.1106 84.4287H0.387546M15.7243 78.424H62.676M15.7243 78.424L31.6472 72.6907M15.7243 78.424H0.387546M15.7243 78.424L0.387546 83.9461M46.8655 67.2108H91.7409M46.8655 67.2108L61.4257 61.9684M46.8655 67.2108H1.99018M46.8655 67.2108L31.6472 72.6907M91.7409 67.2108L105.331 61.9684M91.7409 67.2108L77.5368 72.6907M91.7409 67.2108H136.617M61.4257 61.9684H105.331M61.4257 61.9684H17.5211M61.4257 61.9684L75.3697 56.9477M105.331 61.9684L118.345 56.9477M105.331 61.9684H149.236M101.558 47.5182H142.787M101.558 47.5182L113.87 43.085M101.558 47.5182H60.3283M101.558 47.5182L88.735 52.1351M142.787 47.5182L154.278 43.085M142.787 47.5182L130.82 52.1351M142.787 47.5182H184.017M113.87 43.085H154.278M113.87 43.085H73.4612M113.87 43.085L125.701 38.825M154.278 43.085L165.321 38.825M154.278 43.085H194.687M148.03 30.7849H186.162M148.03 30.7849L158.577 26.9875M148.03 30.7849H109.899M148.03 30.7849L137.079 34.7277M186.162 30.7849L196.005 26.9875M186.162 30.7849L175.941 34.7277M186.162 30.7849H224.293M158.577 26.9875H196.005M158.577 26.9875H121.149M158.577 26.9875L168.742 23.3274M196.005 26.9875L205.493 23.3274M196.005 26.9875H233.433M188.006 16.3907H223.473M188.006 16.3907L197.142 13.101M188.006 16.3907H152.541M188.006 16.3907L178.546 19.7974M223.473 16.3907L231.999 13.101M223.473 16.3907L214.642 19.7974M223.473 16.3907H258.939M197.142 13.101H231.999M197.142 13.101L205.97 9.9228M197.142 13.101H162.285M231.999 13.101H266.857M231.999 13.101L240.239 9.9228M25.6092 199.878L48.5784 187.473M25.6092 199.878L1.01196 213.163M25.6092 199.878H95.0481M25.6092 199.878H0.387546M48.5784 187.473L70.0775 175.861M48.5784 187.473H115.72M48.5784 187.473H0.387546M48.1121 154.734H109.193M48.1121 154.734L67.7403 145.097M48.1121 154.734L27.2658 164.97M48.1121 154.734H0.387546M109.193 154.734L127.036 145.097M109.193 154.734L90.2417 164.97M109.193 154.734H170.274M67.7403 145.097H127.036M67.7403 145.097H8.44421M67.7403 145.097L86.2546 136.007M127.036 145.097L143.868 136.007M127.036 145.097H186.333M120.298 119.291H174.817M120.298 119.291L135.985 111.589M120.298 119.291H65.7801M120.298 119.291L103.746 127.419M174.817 119.291L189.077 111.589M174.817 119.291L159.769 127.419M174.817 119.291H229.335M135.985 111.589H189.077M135.985 111.589H82.8926M135.985 111.589L150.871 104.28M189.077 111.589L202.611 104.28M189.077 111.589H242.169M178.478 90.7246H227.708M178.478 90.7246L191.301 84.4287M178.478 90.7246H129.249M178.478 90.7246L165.018 97.3339M227.708 90.7246L239.365 84.4287M227.708 90.7246L215.471 97.3339M227.708 90.7246H276.937M191.301 84.4287H239.365M191.301 84.4287H143.238M191.301 84.4287L203.531 78.424M239.365 84.4287L250.483 78.424M239.365 84.4287H287.428M226.368 67.2108H271.244M226.368 67.2108L237.046 61.9684M226.368 67.2108H181.492M226.368 67.2108L215.208 72.6907M271.244 67.2108L280.951 61.9684M271.244 67.2108L261.098 72.6907M271.244 67.2108H316.119M237.046 61.9684H280.951M237.046 61.9684H193.141M237.046 61.9684L247.271 56.9477M280.951 61.9684L290.247 56.9477M280.951 61.9684H324.856M266.476 47.5182H307.705M266.476 47.5182L275.504 43.085M266.476 47.5182H225.246M266.476 47.5182L257.073 52.1351M307.705 47.5182L308.75 46.9543L315.913 43.085M307.705 47.5182L299.157 52.1351M307.705 47.5182H348.935M275.504 43.085H315.913M275.504 43.085H235.096M275.504 43.085L284.181 38.825M315.913 43.085L323.801 38.825M315.913 43.085H356.322M300.555 30.7849H338.687M300.555 30.7849L308.29 26.9875M300.555 30.7849H262.424M300.555 30.7849L292.525 34.7277M338.687 30.7849L345.718 26.9875M338.687 30.7849L335.982 32.2462L331.386 34.7277M338.687 30.7849H376.818M308.29 26.9875H345.718M308.29 26.9875H270.862M308.29 26.9875L315.744 23.3274M345.718 26.9875L352.495 23.3274M345.718 26.9875H383.146M329.871 16.3907H365.338M329.871 16.3907L336.571 13.101M329.871 16.3907H294.405M329.871 16.3907L322.934 19.7974M365.338 16.3907L369.926 13.9131L370.678 13.506L371.429 13.101M365.338 16.3907L359.03 19.7974M365.338 16.3907H400.804M336.571 13.101H371.429M336.571 13.101L343.045 9.9228M336.571 13.101H301.714M371.429 13.101H406.286M371.429 13.101L377.313 9.9228M50.7679 341.198H146.373M50.7679 341.198L80.8717 317.971M50.7679 341.198L17.6882 366.722M50.7679 341.198L0.387546 341.198M146.373 341.198L172.176 317.971M146.373 341.198L118.019 366.722M146.373 341.198H241.977M80.8717 317.971H172.176M80.8717 317.971L108.384 296.743M80.8717 317.971H0.387546M172.176 317.971L195.758 296.743M172.176 317.971H263.48M156.866 259.336H237.314M156.866 259.336L178.334 242.772M156.866 259.336H76.4183M156.866 259.336L133.625 277.268M237.314 259.336L255.715 242.772M237.314 259.336L217.393 277.268M237.314 259.336H317.761M178.334 242.772H255.715M178.334 242.772H100.953M178.334 242.772L198.226 227.424M255.715 242.772L272.765 227.424M255.715 242.772H333.096M233.927 199.878H303.365M233.927 199.878L250.005 187.473M233.927 199.878H164.487M233.927 199.878L216.708 213.163M303.365 199.878L317.147 187.473M303.365 199.878L288.607 213.163M303.365 199.878H372.804M250.005 187.473H317.147M250.005 187.473H182.863M250.005 187.473L265.054 175.861M317.147 187.473L330.047 175.861M317.147 187.473H384.29M292.435 154.734H353.516M292.435 154.734L304.926 145.097M292.435 154.734H231.355M292.435 154.734L279.169 164.97M353.516 154.734L364.222 145.097M353.516 154.734L342.145 164.97M353.516 154.734H414.597M304.926 145.097H364.222M304.926 145.097H245.629M304.926 145.097L316.707 136.007M364.222 145.097L374.321 136.007M364.222 145.097H423.518M338.372 119.291H392.89M338.372 119.291L348.354 111.589M338.372 119.291H283.853M338.372 119.291L327.838 127.419M392.89 119.291L401.446 111.589M392.89 119.291L383.862 127.419M392.89 119.291H447.409M348.354 111.589H401.446M348.354 111.589H295.262M348.354 111.589L357.827 104.28M401.446 111.589L409.566 104.28M401.446 111.589H454.539M375.396 90.7246H424.625M375.396 90.7246L383.556 84.4287M375.396 90.7246H326.166M375.396 90.7246L366.83 97.3339M424.625 90.7246L431.619 84.4287M424.625 90.7246L417.282 97.3339M424.625 90.7246H473.854M383.556 84.4287H431.619M383.556 84.4287H335.492M383.556 84.4287L391.338 78.424M431.619 84.4287L438.29 78.424M431.619 84.4287H479.682M405.87 67.2108H450.747M405.87 67.2108L412.666 61.9684M405.87 67.2108H360.995M405.87 67.2108L398.769 72.6907M450.747 67.2108L456.57 61.9684M450.747 67.2108L444.659 72.6907M450.747 67.2108H495.622M412.666 61.9684H456.57M412.666 61.9684H368.76M412.666 61.9684L419.173 56.9477M456.57 61.9684L462.148 56.9477M456.57 61.9684H500.476M431.393 47.5182H472.624M431.393 47.5182L437.139 43.085M431.393 47.5182H390.164M431.393 47.5182L425.409 52.1351M472.624 47.5182L471.993 48.0848L467.494 52.1351M472.624 47.5182L477.548 43.085M472.624 47.5182H513.853M437.139 43.085H477.548M437.139 43.085H396.731M437.139 43.085L442.661 38.825M477.548 43.085L482.281 38.825M477.548 43.085H517.957M453.081 30.7849H491.212M453.081 30.7849L458.003 26.9875M453.081 30.7849H414.95M453.081 30.7849L447.971 34.7277M491.212 30.7849L495.431 26.9875M491.212 30.7849L489.589 32.2462L488.494 33.2319L486.832 34.7277M491.212 30.7849H529.343M458.003 26.9875H495.431M458.003 26.9875H420.575M458.003 26.9875L462.746 23.3274M495.431 26.9875L496.973 25.5991L497.99 24.6841L499.497 23.3274M495.431 26.9875H532.859M471.737 16.3907H507.202M471.737 16.3907L474.948 13.9131L476 13.101M471.737 16.3907H436.27M471.737 16.3907L467.882 19.3648L467.322 19.7974M507.202 16.3907L509.956 13.9131L510.407 13.506L510.857 13.101M507.202 16.3907L505.327 18.0788L503.418 19.7974M507.202 16.3907H542.669M476 13.101H510.857M476 13.101L480.119 9.9228M476 13.101H441.143M510.857 13.101H545.714M510.857 13.101L514.388 9.9228M433.186 341.198H528.791M433.186 341.198L446.088 317.971M433.186 341.198H337.582M433.186 341.198L419.009 366.722M528.791 341.198L537.392 317.971M528.791 341.198L519.34 366.722M528.791 341.198H624.396M446.088 317.971H537.392M446.088 317.971H354.784M446.088 317.971L457.879 296.743M537.392 317.971L545.253 296.743M537.392 317.971H628.696M478.657 259.336H559.104M478.657 259.336L487.858 242.772M478.657 259.336H398.209M478.657 259.336L468.696 277.268M559.104 259.336L565.238 242.772M559.104 259.336L552.465 277.268M559.104 259.336H639.553M487.858 242.772H565.238M487.858 242.772H410.477M487.858 242.772L496.383 227.424M565.238 242.772L570.922 227.424M565.238 242.772H642.619M511.683 199.878H581.122M511.683 199.878L518.574 187.473M511.683 199.878H442.244M511.683 199.878L504.304 213.163M581.122 199.878L585.716 187.473M581.122 199.878L576.203 213.163M581.122 199.878H650.561M518.574 187.473H585.716M518.574 187.473H451.432M518.574 187.473L525.023 175.861M585.716 187.473L590.016 175.861M585.716 187.473H652.858M536.758 154.734H597.838M536.758 154.734L542.111 145.097M536.758 154.734H475.677M536.758 154.734L531.073 164.97M597.838 154.734L601.407 145.097M597.838 154.734L594.048 164.97M597.838 154.734H658.919M542.111 145.097H601.407M542.111 145.097H482.815M542.111 145.097L547.16 136.007M601.407 145.097L604.774 136.007M601.407 145.097H660.704M556.445 119.291H610.964M556.445 119.291L560.723 111.589M556.445 119.291H501.927M556.445 119.291L551.931 127.419M610.964 119.291L613.815 111.589M610.964 119.291L607.954 127.419M610.964 119.291H665.482M560.723 111.589H613.815M560.723 111.589H507.631M560.723 111.589L564.783 104.28M613.815 111.589L616.522 104.28M613.815 111.589H666.908M572.312 90.7246H621.541M572.312 90.7246L575.809 84.4287M572.312 90.7246H523.083M572.312 90.7246L568.642 97.3339M621.541 90.7246L623.873 84.4287M621.541 90.7246L619.094 97.3339M621.541 90.7246H670.771M575.809 84.4287H623.873M575.809 84.4287H527.746M575.809 84.4287L577.079 82.144L579.145 78.424M623.873 84.4287L626.097 78.424M623.873 84.4287H671.937M585.373 67.2108H630.249M585.373 67.2108L588.285 61.9684M585.373 67.2108H540.497M585.373 67.2108L583.104 71.2978L582.329 72.6907M630.249 67.2108L630.987 65.2179L632.19 61.9684M630.249 67.2108L628.219 72.6907M630.249 67.2108H675.125M588.285 61.9684L588.64 61.3288L591.074 56.9477M588.285 61.9684H632.19M588.285 61.9684H544.38M632.19 61.9684L632.897 60.0603L633.129 59.4309L633.362 58.8054L634.049 56.9477M632.19 61.9684H676.095M596.311 47.5182H637.541M596.311 47.5182L597.555 45.2793L597.862 44.7267L598.167 44.1765L598.472 43.6296L598.774 43.085M596.311 47.5182H555.082M596.311 47.5182L593.747 52.1351M637.541 47.5182L638.778 44.1765L638.981 43.6296L639.182 43.085M637.541 47.5182L635.832 52.1351M637.541 47.5182H678.771M598.774 43.085H639.182M598.774 43.085H558.365M598.774 43.085L600.264 40.4028L600.557 39.874L601.14 38.825M639.182 43.085L640.176 40.4028L640.372 39.874L640.566 39.3481L640.76 38.825M639.182 43.085H679.592M605.606 30.7849H643.738M605.606 30.7849L607.716 26.9875M605.606 30.7849H567.474M605.606 30.7849L605.066 31.7565L604.247 33.2319L603.416 34.7277M643.738 30.7849L643.558 31.2696L642.463 34.2267L642.277 34.7277M643.738 30.7849L645.144 26.9875M643.738 30.7849H681.869M607.716 26.9875H645.144M607.716 26.9875H570.288M607.716 26.9875L609.749 23.3274M645.144 26.9875L645.658 25.5991L645.827 25.1404L645.997 24.6841L646.499 23.3274M645.144 26.9875H682.572M613.602 16.3907H649.067M613.602 16.3907L614.978 13.9131L615.428 13.101M613.602 16.3907H578.135M613.602 16.3907L612.899 17.6541L612.664 18.0788L612.426 18.5057L611.709 19.7974M649.067 16.3907L649.222 15.9733L649.529 15.1437L649.834 14.3214L650.285 13.101M649.067 16.3907L648.442 18.0788L648.285 18.5057L647.966 19.3648L647.806 19.7974M649.067 16.3907H684.534M615.428 13.101H650.285M615.428 13.101L616.976 10.3142L617.194 9.9228M615.428 13.101H580.571M650.285 13.101L650.435 12.6978L650.584 12.2963L650.732 11.8965L650.879 11.4984L651.318 10.3142L651.463 9.9228M650.285 13.101H685.143M815.604 341.198H911.209M815.604 341.198L811.304 317.971M815.604 341.198H720M815.604 341.198L820.33 366.722M911.209 341.198L902.608 317.971M911.209 341.198L920.66 366.722M911.209 341.198H1006.81M811.304 317.971H902.608M811.304 317.971H720M811.304 317.971L807.374 296.743M902.608 317.971L894.747 296.743M902.608 317.971H993.912M800.447 259.336H880.896M800.447 259.336L797.381 242.772M800.447 259.336H720M800.447 259.336L803.768 277.268M880.896 259.336L874.762 242.772M880.896 259.336L887.536 277.268M880.896 259.336H961.343M797.381 242.772H874.762M797.381 242.772H720M797.381 242.772L794.539 227.424M874.762 242.772L869.078 227.424M874.762 242.772H952.142M789.439 199.878H858.878M789.439 199.878L787.142 187.473M789.439 199.878H720M789.439 199.878L791.899 213.163M858.878 199.878L854.284 187.473M858.878 199.878L863.797 213.163M858.878 199.878H928.317M787.142 187.473H854.284M787.142 187.473H720M787.142 187.473L784.992 175.861M854.284 187.473L849.985 175.861M854.284 187.473H921.426M781.081 154.734H842.162M781.081 154.734L779.296 145.097M781.081 154.734H720M781.081 154.734L782.976 164.97M842.162 154.734L838.593 145.097M842.162 154.734L845.952 164.97M842.162 154.734H903.242M779.296 145.097H838.593M779.296 145.097H720M779.296 145.097L777.613 136.007M838.593 145.097L835.226 136.007M838.593 145.097H897.889M774.518 119.291H829.036M774.518 119.291L773.092 111.589M774.518 119.291H720M774.518 119.291L776.023 127.419M829.036 119.291L826.185 111.589M829.036 119.291L832.046 127.419M829.036 119.291H883.555M773.092 111.589H826.185M773.092 111.589H720M773.092 111.589L771.739 104.28M826.185 111.589L823.478 104.28M826.185 111.589H879.277M769.229 90.7246H818.459M769.229 90.7246L768.063 84.4287M769.229 90.7246H720M769.229 90.7246L770.453 97.3339M818.459 90.7246L816.127 84.4287M818.459 90.7246L820.906 97.3339M818.459 90.7246H867.688M768.063 84.4287H816.127M768.063 84.4287H720M768.063 84.4287L766.952 78.424M816.127 84.4287L813.903 78.424M816.127 84.4287H864.191M764.875 67.2108H809.751M764.875 67.2108L763.905 61.9684M764.875 67.2108H720M764.875 67.2108L765.89 72.6907M809.751 67.2108L808.048 62.6114L807.81 61.9684M809.751 67.2108L811.781 72.6907M809.751 67.2108H854.627M763.905 61.9684L763.787 61.3288L762.975 56.9477M763.905 61.9684H807.81M763.905 61.9684H720M807.81 61.9684L807.103 60.0603L806.871 59.4309L806.638 58.8054L805.951 56.9477M807.81 61.9684H851.715M761.229 47.5182H802.459M761.229 47.5182L760.409 43.085M761.229 47.5182H720M761.229 47.5182L761.546 49.2272L761.653 49.8029L761.759 50.3814L761.975 51.5475L762.085 52.1351M802.459 47.5182L801.222 44.1765L800.817 43.085M802.459 47.5182L804.168 52.1351M802.459 47.5182H843.689M760.409 43.085H800.817M760.409 43.085H720M760.409 43.085L759.62 38.825M800.817 43.085L799.825 40.4028L799.628 39.874L799.434 39.3481L799.24 38.825M800.817 43.085H841.226M758.131 30.7849H796.262M758.131 30.7849L757.428 26.9875M758.131 30.7849H720M758.131 30.7849L758.861 34.7277M796.262 30.7849L796.442 31.2696L797.537 34.2267L797.723 34.7277M796.262 30.7849L794.856 26.9875M796.262 30.7849H834.394M757.428 26.9875H794.856M757.428 26.9875H720M757.428 26.9875L756.751 23.3274M794.856 26.9875L794.342 25.5991L794.173 25.1404L794.003 24.6841L793.501 23.3274M794.856 26.9875H832.284M755.467 16.3907H790.933M755.467 16.3907L754.857 13.101M755.467 16.3907H720M755.467 16.3907L756.097 19.7974M790.933 16.3907L790.778 15.9733L790.47 15.1437L790.318 14.7314L790.015 13.9131L789.865 13.506L789.714 13.101M790.933 16.3907L791.558 18.0788L791.715 18.5057L792.034 19.3648L792.194 19.7974M790.933 16.3907H826.399M754.857 13.101L754.783 12.6978L754.708 12.2963L754.634 11.8965L754.269 9.9228M754.857 13.101H789.714M754.857 13.101H720M789.714 13.101H824.572M789.714 13.101L789.416 12.2963L789.268 11.8965L789.121 11.4984L788.683 10.3142L788.537 9.9228M1198.02 341.198H1293.63M1198.02 341.198L1176.52 317.971M1198.02 341.198H1102.42M1198.02 341.198L1221.65 366.722M1293.63 341.198L1267.82 317.971M1293.63 341.198L1321.98 366.722M1293.63 341.198H1389.23M1176.52 317.971H1267.82M1176.52 317.971H1085.22M1176.52 317.971L1156.87 296.743M1267.82 317.971L1244.24 296.743M1267.82 317.971H1359.13M1122.24 259.336H1202.69M1122.24 259.336L1106.9 242.772M1122.24 259.336H1041.79M1122.24 259.336L1138.84 277.268M1202.69 259.336L1184.29 242.772M1202.69 259.336L1222.61 277.268M1202.69 259.336H1283.13M1106.9 242.772H1184.29M1106.9 242.772H1029.52M1106.9 242.772L1092.7 227.424M1184.29 242.772L1167.23 227.424M1184.29 242.772H1261.67M1067.2 199.878H1136.63M1067.2 199.878L1055.71 187.473M1067.2 199.878H997.756M1067.2 199.878L1079.49 213.163M1136.63 199.878L1122.85 187.473M1136.63 199.878L1151.39 213.163M1136.63 199.878H1206.07M1055.71 187.473H1122.85M1055.71 187.473H988.568M1055.71 187.473L1044.96 175.861M1122.85 187.473L1109.95 175.861M1122.85 187.473H1189.99M1025.4 154.734H1086.48M1025.4 154.734L1016.48 145.097M1025.4 154.734H964.323M1025.4 154.734L1034.88 164.97M1086.48 154.734L1075.78 145.097M1086.48 154.734L1097.86 164.97M1086.48 154.734H1147.57M1016.48 145.097H1075.78M1016.48 145.097H957.185M1016.48 145.097L1008.07 136.007M1075.78 145.097L1065.68 136.007M1075.78 145.097H1135.07M992.591 119.291H1047.11M992.591 119.291L985.461 111.589M992.591 119.291H938.073M992.591 119.291L1000.12 127.419M1047.11 119.291L1038.55 111.589M1047.11 119.291L1056.14 127.419M1047.11 119.291H1101.63M985.461 111.589H1038.55M985.461 111.589H932.369M985.461 111.589L978.695 104.28M1038.55 111.589L1030.43 104.28M1038.55 111.589H1091.65M966.146 90.7246H1015.38M966.146 90.7246L960.318 84.4287M966.146 90.7246H916.917M966.146 90.7246L972.265 97.3339M1015.38 90.7246L1008.38 84.4287M1015.38 90.7246L1022.72 97.3339M1015.38 90.7246H1064.6M960.318 84.4287H1008.38M960.318 84.4287H912.254M960.318 84.4287L954.759 78.424M1008.38 84.4287L1001.71 78.424M1008.38 84.4287H1056.44M944.378 67.2108L945 67.8826L945.626 68.5579L949.451 72.6907M944.378 67.2108H989.254M944.378 67.2108L939.525 61.9684M944.378 67.2108H899.503M989.254 67.2108L983.43 61.9684M989.254 67.2108L995.341 72.6907M989.254 67.2108H1034.13M939.525 61.9684H983.43M939.525 61.9684H895.62M939.525 61.9684L934.877 56.9477M983.43 61.9684L977.852 56.9477M983.43 61.9684H1027.33M926.147 47.5182H967.377M926.147 47.5182L922.043 43.085M926.147 47.5182H884.918M926.147 47.5182L930.421 52.1351M967.377 47.5182L964.275 44.7267L962.452 43.085M967.377 47.5182L972.506 52.1351M967.377 47.5182H1008.61M922.043 43.085H962.452M922.043 43.085H881.635M922.043 43.085L918.585 39.3481L918.1 38.825M962.452 43.085L957.72 38.825M962.452 43.085H1002.86M910.657 30.7849H948.788M910.657 30.7849L909.766 29.8218L907.141 26.9875M910.657 30.7849H872.526M910.657 30.7849L911.556 31.7565L913.382 33.7279L914.307 34.7277M948.788 30.7849L944.569 26.9875M948.788 30.7849L950.411 32.2462L951.506 33.2319L953.168 34.7277M948.788 30.7849H986.919M907.141 26.9875H944.569M907.141 26.9875H869.712M907.141 26.9875L904.588 24.2294L903.752 23.3274M944.569 26.9875L943.027 25.5991L942.01 24.6841L940.503 23.3274M944.569 26.9875H981.997M897.331 16.3907H932.798M897.331 16.3907L895.415 14.3214L894.286 13.101M897.331 16.3907H861.865M897.331 16.3907L900.485 19.7974M932.798 16.3907L930.044 13.9131L929.593 13.506L929.143 13.101M932.798 16.3907L934.673 18.0788L936.582 19.7974M932.798 16.3907H968.263M894.286 13.101H929.143M894.286 13.101L892.802 11.4984L892.07 10.7072L891.706 10.3142L891.344 9.9228M894.286 13.101H859.429M929.143 13.101H964M929.143 13.101L925.612 9.9228M1416.43 242.772H1339.05M1416.43 242.772L1390.85 227.424M1416.43 242.772H1439.61M1416.43 242.772L1439.61 256.685M1344.95 199.878H1414.39M1344.95 199.878L1324.28 187.473M1344.95 199.878H1275.51M1344.95 199.878L1367.09 213.163M1414.39 199.878L1391.42 187.473M1414.39 199.878L1438.99 213.163M1414.39 199.878H1439.61M1324.28 187.473H1391.42M1324.28 187.473H1257.14M1324.28 187.473L1304.93 175.861M1391.42 187.473L1369.92 175.861M1391.42 187.473H1439.61M1269.73 154.734H1330.81M1269.73 154.734L1253.67 145.097M1269.73 154.734H1208.65M1269.73 154.734L1286.78 164.97M1330.81 154.734L1312.96 145.097M1330.81 154.734L1349.76 164.97M1330.81 154.734H1391.89M1253.67 145.097H1312.96M1253.67 145.097H1194.37M1253.67 145.097L1238.52 136.007M1312.96 145.097L1296.13 136.007M1312.96 145.097H1372.26M1210.66 119.291H1265.18M1210.66 119.291L1197.83 111.589M1210.66 119.291H1156.15M1210.66 119.291L1224.21 127.419M1265.18 119.291L1250.92 111.589M1265.18 119.291L1280.23 127.419M1265.18 119.291H1319.7M1197.83 111.589H1250.92M1197.83 111.589H1144.74M1197.83 111.589L1185.65 104.28M1250.92 111.589L1237.39 104.28M1250.92 111.589H1304.02M1163.06 90.7246H1212.29M1163.06 90.7246L1152.57 84.4287M1163.06 90.7246H1113.83M1163.06 90.7246L1174.08 97.3339M1212.29 90.7246L1200.64 84.4287M1212.29 90.7246L1224.53 97.3339M1212.29 90.7246H1261.52M1152.57 84.4287H1200.64M1152.57 84.4287H1104.51M1152.57 84.4287L1142.57 78.424M1200.64 84.4287L1189.52 78.424M1200.64 84.4287H1248.7M1123.88 67.2108H1168.76M1123.88 67.2108L1115.14 61.9684M1123.88 67.2108H1079M1123.88 67.2108L1133.01 72.6907M1168.76 67.2108L1159.05 61.9684M1168.76 67.2108L1178.9 72.6907M1168.76 67.2108H1213.63M1115.14 61.9684H1159.05M1115.14 61.9684H1071.24M1115.14 61.9684L1106.78 56.9477M1159.05 61.9684L1149.75 56.9477M1159.05 61.9684H1202.95M1091.07 47.5182H1132.29M1091.07 47.5182L1083.68 43.085M1091.07 47.5182H1049.84M1091.07 47.5182L1098.76 52.1351M1132.29 47.5182L1124.09 43.085M1132.29 47.5182L1140.84 52.1351M1132.29 47.5182H1173.52M1083.68 43.085H1124.09M1083.68 43.085H1043.27M1083.68 43.085L1076.58 38.825M1124.09 43.085L1116.2 38.825M1124.09 43.085H1164.5M1063.18 30.7849H1101.31M1063.18 30.7849L1056.85 26.9875M1063.18 30.7849H1025.05M1063.18 30.7849L1064.8 31.7565L1065.62 32.2462L1069.75 34.7277M1101.31 30.7849L1094.28 26.9875M1101.31 30.7849L1108.61 34.7277M1101.31 30.7849H1139.44M1056.85 26.9875H1094.28M1056.85 26.9875H1019.43M1056.85 26.9875L1050.75 23.3274M1094.28 26.9875L1087.51 23.3274M1094.28 26.9875H1131.71M1039.2 16.3907H1074.66M1039.2 16.3907L1033.71 13.101M1039.2 16.3907H1003.73M1039.2 16.3907L1044.87 19.7974M1074.66 16.3907L1070.07 13.9131L1069.32 13.506L1068.57 13.101M1074.66 16.3907L1080.97 19.7974M1074.66 16.3907H1110.13M1033.71 13.101H1068.57M1033.71 13.101L1029.07 10.3142L1028.42 9.9228M1033.71 13.101H998.857M1068.57 13.101H1103.43M1068.57 13.101L1062.69 9.9228M1428.74 119.291L1410.2 111.589M1428.74 119.291H1374.22M1428.74 119.291L1439.61 123.809M1428.74 119.291H1439.61M1410.2 111.589H1357.11M1410.2 111.589L1392.61 104.28M1410.2 111.589H1439.61M1359.98 90.7246H1409.21M1359.98 90.7246L1344.83 84.4287M1359.98 90.7246H1310.75M1359.98 90.7246L1375.89 97.3339M1409.21 90.7246L1392.89 84.4287M1409.21 90.7246L1426.34 97.3339M1409.21 90.7246H1439.61M1344.83 84.4287H1392.89M1344.83 84.4287H1296.76M1344.83 84.4287L1330.37 78.424M1392.89 84.4287L1377.32 78.424M1392.89 84.4287H1439.61M1303.38 67.2108H1348.26M1303.38 67.2108L1290.76 61.9684M1303.38 67.2108H1258.51M1303.38 67.2108L1316.57 72.6907M1348.26 67.2108L1334.67 61.9684M1348.26 67.2108L1362.46 72.6907M1348.26 67.2108H1393.13M1290.76 61.9684H1334.67M1290.76 61.9684H1246.86M1290.76 61.9684L1278.68 56.9477M1334.67 61.9684L1321.66 56.9477M1334.67 61.9684H1378.57M1255.98 47.5182H1297.21M1255.98 47.5182L1245.31 43.085M1255.98 47.5182H1214.75M1255.98 47.5182L1267.1 52.1351M1297.21 47.5182L1285.72 43.085M1297.21 47.5182L1309.18 52.1351M1297.21 47.5182H1338.44M1245.31 43.085H1285.72M1245.31 43.085H1204.9M1245.31 43.085L1235.06 38.825M1285.72 43.085L1274.68 38.825M1285.72 43.085H1326.13M1215.71 30.7849H1253.84M1215.71 30.7849L1206.57 26.9875M1215.71 30.7849H1177.58M1215.71 30.7849L1225.2 34.7277M1253.84 30.7849L1243.99 26.9875M1253.84 30.7849L1264.06 34.7277M1253.84 30.7849H1291.97M1206.57 26.9875H1243.99M1206.57 26.9875H1169.14M1206.57 26.9875L1197.76 23.3274M1243.99 26.9875L1234.51 23.3274M1243.99 26.9875H1281.42M1181.06 16.3907H1216.53M1181.06 16.3907L1173.14 13.101M1181.06 16.3907H1145.59M1181.06 16.3907L1189.26 19.7974M1216.53 16.3907L1208 13.101M1216.53 16.3907L1225.36 19.7974M1216.53 16.3907H1251.99M1173.14 13.101H1208M1173.14 13.101L1165.49 9.9228M1173.14 13.101H1138.29M1208 13.101H1242.86M1208 13.101L1199.76 9.9228M1420.9 47.5182L1406.95 43.085M1420.9 47.5182H1379.67M1420.9 47.5182L1435.43 52.1351M1420.9 47.5182H1439.61M1406.95 43.085H1366.54M1406.95 43.085L1393.54 38.825M1406.95 43.085H1439.61M1368.23 30.7849H1406.36M1368.23 30.7849L1356.28 26.9875M1368.23 30.7849H1330.1M1368.23 30.7849L1380.64 34.7277M1406.36 30.7849L1393.71 26.9875M1406.36 30.7849L1419.5 34.7277M1406.36 30.7849H1439.61M1356.28 26.9875H1393.71M1356.28 26.9875H1318.85M1356.28 26.9875L1344.76 23.3274M1393.71 26.9875L1381.51 23.3274M1393.71 26.9875H1431.14M1322.93 16.3907H1358.39M1322.93 16.3907L1312.57 13.101M1322.93 16.3907H1287.46M1322.93 16.3907L1333.65 19.7974M1358.39 16.3907L1347.43 13.101M1358.39 16.3907L1369.74 19.7974M1358.39 16.3907H1393.86M1312.57 13.101H1347.43M1312.57 13.101L1302.57 9.9228M1312.57 13.101H1277.71M1347.43 13.101H1382.29M1347.43 13.101L1336.84 9.9228M1369.74 19.7974L1381.51 23.3274M1369.74 19.7974H1405.84M1369.74 19.7974H1333.65M1393.86 16.3907L1382.29 13.101M1393.86 16.3907L1405.84 19.7974M1393.86 16.3907H1429.32M1382.29 13.101H1417.14M1382.29 13.101L1371.1 9.9228M1336.84 9.9228H1302.57M1336.84 9.9228H1371.1M1336.84 9.9228L1326.6 6.84976M1405.84 19.7974L1418.26 23.3274M1405.84 19.7974H1439.61M1429.32 16.3907L1417.14 13.101M1429.32 16.3907L1439.61 19.1688M1429.32 16.3907H1439.61M1417.14 13.101L1405.37 9.9228M1417.14 13.101H1439.61M1371.1 9.9228H1405.37M1371.1 9.9228L1360.29 6.84976M1405.37 9.9228L1393.99 6.84976M1405.37 9.9228H1439.61M1381.51 23.3274H1418.26M1381.51 23.3274H1344.76M1431.14 26.9875L1418.26 23.3274M1431.14 26.9875L1439.61 29.3966M1431.14 26.9875H1439.61M1418.26 23.3274H1439.61M1344.76 23.3274H1308.01M1344.76 23.3274L1333.65 19.7974M1333.65 19.7974H1297.55M1419.5 34.7277L1433.16 38.825M1419.5 34.7277H1380.64M1419.5 34.7277H1439.61M1439.73 30.7849H1439.61M1433.16 38.825H1393.54M1433.16 38.825L1439.61 40.7613M1433.16 38.825H1439.61M1393.54 38.825H1353.92M1393.54 38.825L1380.64 34.7277M1380.64 34.7277H1341.78M1225.36 19.7974L1234.51 23.3274M1225.36 19.7974H1261.45M1225.36 19.7974H1189.26M1251.99 16.3907L1242.86 13.101M1251.99 16.3907L1261.45 19.7974M1251.99 16.3907H1287.46M1242.86 13.101H1277.71M1242.86 13.101L1234.03 9.9228M1199.76 9.9228H1234.03M1199.76 9.9228L1191.8 6.84976M1199.76 9.9228H1165.49M1261.45 19.7974L1271.26 23.3274M1261.45 19.7974H1297.55M1287.46 16.3907L1277.71 13.101M1287.46 16.3907L1297.55 19.7974M1277.71 13.101L1268.3 9.9228M1234.03 9.9228H1268.3M1234.03 9.9228L1225.5 6.84976M1297.55 19.7974L1308.01 23.3274M1302.57 9.9228H1268.3M1302.57 9.9228L1292.89 6.84976M1268.3 9.9228L1259.2 6.84976M1234.51 23.3274H1271.26M1234.51 23.3274H1197.76M1281.42 26.9875L1271.26 23.3274M1281.42 26.9875L1291.97 30.7849M1281.42 26.9875H1318.85M1271.26 23.3274H1308.01M1197.76 23.3274H1161.01M1197.76 23.3274L1189.26 19.7974M1308.01 23.3274L1318.85 26.9875M1189.26 19.7974H1153.16M1291.97 30.7849L1302.92 34.7277M1291.97 30.7849H1330.1M1318.85 26.9875L1330.1 30.7849M1330.1 30.7849L1341.78 34.7277M1264.06 34.7277L1274.68 38.825M1264.06 34.7277H1302.92M1264.06 34.7277H1225.2M1302.92 34.7277L1314.3 38.825M1302.92 34.7277H1341.78M1341.78 34.7277L1353.92 38.825M1274.68 38.825H1314.3M1274.68 38.825H1235.06M1326.13 43.085L1314.3 38.825M1326.13 43.085L1338.44 47.5182M1326.13 43.085H1366.54M1314.3 38.825H1353.92M1235.06 38.825H1195.44M1235.06 38.825L1225.2 34.7277M1353.92 38.825L1366.54 43.085M1225.2 34.7277H1186.34M1338.44 47.5182L1351.27 52.1351M1338.44 47.5182H1379.67M1366.54 43.085L1379.67 47.5182M1379.67 47.5182L1393.35 52.1351M1309.18 52.1351L1321.66 56.9477M1309.18 52.1351H1351.27M1309.18 52.1351H1267.1M1351.27 52.1351L1364.63 56.9477M1351.27 52.1351H1393.35M1393.35 52.1351L1407.61 56.9477M1393.35 52.1351H1435.43M1435.43 52.1351H1439.61M1435.43 52.1351L1439.61 53.4625M1321.66 56.9477H1364.63M1321.66 56.9477H1278.68M1378.57 61.9684L1364.63 56.9477M1378.57 61.9684L1393.13 67.2108M1378.57 61.9684H1422.48M1364.63 56.9477H1407.61M1278.68 56.9477H1235.7M1278.68 56.9477L1267.1 52.1351M1407.61 56.9477L1422.48 61.9684M1407.61 56.9477H1439.61M1267.1 52.1351H1225.01M1393.13 67.2108L1408.35 72.6907M1393.13 67.2108H1438.01M1422.48 61.9684L1438.01 67.2108M1422.48 61.9684H1439.61M1439.84 56.9477H1439.61M1438.01 67.2108L1439.61 67.7518M1438.01 67.2108H1439.61M1362.46 72.6907L1377.32 78.424M1362.46 72.6907H1408.35M1362.46 72.6907H1316.57M1408.35 72.6907L1424.28 78.424M1408.35 72.6907H1439.61M1440 67.8826L1439.61 67.7518M1377.32 78.424H1424.28M1377.32 78.424H1330.37M1424.28 78.424H1439.61M1424.28 78.424L1439.61 83.9461M1330.37 78.424H1283.42M1330.37 78.424L1316.57 72.6907M1316.57 72.6907H1270.68M1426.34 97.3339H1375.89M1426.34 97.3339L1439.61 102.454M1426.34 97.3339H1439.61M1439.98 90.7246H1439.61M1375.89 97.3339H1325.43M1375.89 97.3339L1392.61 104.28M1439.76 102.51L1439.61 102.454M1080.97 19.7974L1087.51 23.3274M1080.97 19.7974H1117.07M1080.97 19.7974H1044.87M1110.13 16.3907L1103.43 13.101M1110.13 16.3907L1117.07 19.7974M1110.13 16.3907H1145.59M1103.43 13.101H1138.29M1103.43 13.101L1096.96 9.9228M1062.69 9.9228H1096.96M1062.69 9.9228L1060.53 8.7584L1057 6.84976M1062.69 9.9228H1028.42M1117.07 19.7974L1124.26 23.3274M1117.07 19.7974H1153.16M1145.59 16.3907L1138.29 13.101M1145.59 16.3907L1153.16 19.7974M1138.29 13.101L1131.22 9.9228M1096.96 9.9228H1131.22M1096.96 9.9228L1090.7 6.84976M1153.16 19.7974L1161.01 23.3274M1165.49 9.9228L1158.1 6.84976M1165.49 9.9228H1131.22M1131.22 9.9228L1130.36 9.53259L1128.64 8.7584L1124.4 6.84976M1087.51 23.3274H1124.26M1087.51 23.3274H1050.75M1131.71 26.9875L1124.26 23.3274M1131.71 26.9875L1139.44 30.7849M1131.71 26.9875H1169.14M1124.26 23.3274H1161.01M1050.75 23.3274H1014M1050.75 23.3274L1044.87 19.7974M1161.01 23.3274L1169.14 26.9875M1044.87 19.7974H1008.78M1139.44 30.7849L1147.48 34.7277M1139.44 30.7849H1177.58M1169.14 26.9875L1170.18 27.454L1177.58 30.7849M1177.58 30.7849L1186.34 34.7277M1108.61 34.7277L1109.55 35.2316L1116.2 38.825M1108.61 34.7277H1147.48M1108.61 34.7277H1069.75M1147.48 34.7277L1155.82 38.825M1147.48 34.7277H1186.34M1186.34 34.7277L1195.44 38.825M1116.2 38.825H1155.82M1116.2 38.825H1076.58M1164.5 43.085L1155.82 38.825M1164.5 43.085L1173.52 47.5182M1164.5 43.085H1204.9M1155.82 38.825H1195.44M1076.58 38.825H1036.96M1076.58 38.825L1069.75 34.7277M1195.44 38.825L1204.9 43.085M1069.75 34.7277H1030.89M1173.52 47.5182L1182.93 52.1351M1173.52 47.5182H1214.75M1204.9 43.085L1214.75 47.5182M1214.75 47.5182L1225.01 52.1351M1140.84 52.1351L1149.75 56.9477M1140.84 52.1351H1182.93M1140.84 52.1351H1098.76M1182.93 52.1351L1192.73 56.9477M1182.93 52.1351H1225.01M1225.01 52.1351L1235.7 56.9477M1149.75 56.9477H1192.73M1149.75 56.9477H1106.78M1202.95 61.9684L1192.73 56.9477M1202.95 61.9684L1213.63 67.2108M1202.95 61.9684H1246.86M1192.73 56.9477H1235.7M1106.78 56.9477H1063.8M1106.78 56.9477L1098.76 52.1351M1235.7 56.9477L1246.86 61.9684M1098.76 52.1351H1056.67M1213.63 67.2108L1224.79 72.6907M1213.63 67.2108H1258.51M1246.86 61.9684L1258.51 67.2108M1258.51 67.2108L1270.68 72.6907M1178.9 72.6907L1189.52 78.424M1178.9 72.6907H1224.79M1178.9 72.6907H1133.01M1224.79 72.6907L1236.47 78.424M1224.79 72.6907H1270.68M1270.68 72.6907L1283.42 78.424M1189.52 78.424H1236.47M1189.52 78.424H1142.57M1248.7 84.4287L1236.47 78.424M1248.7 84.4287L1261.52 90.7246M1248.7 84.4287H1296.76M1236.47 78.424H1283.42M1142.57 78.424H1095.61M1142.57 78.424L1133.01 72.6907M1283.42 78.424L1296.76 84.4287M1133.01 72.6907H1087.12M1261.52 90.7246L1274.98 97.3339M1261.52 90.7246H1310.75M1296.76 84.4287L1310.75 90.7246M1310.75 90.7246L1325.43 97.3339M1224.53 97.3339L1237.39 104.28M1224.53 97.3339H1274.98M1224.53 97.3339H1174.08M1274.98 97.3339L1289.13 104.28M1274.98 97.3339H1325.43M1325.43 97.3339L1340.87 104.28M1237.39 104.28H1289.13M1237.39 104.28H1185.65M1304.02 111.589L1289.13 104.28M1304.02 111.589L1319.7 119.291M1304.02 111.589H1357.11M1289.13 104.28H1340.87M1185.65 104.28H1133.91M1185.65 104.28L1174.08 97.3339M1340.87 104.28L1357.11 111.589M1340.87 104.28H1392.61M1174.08 97.3339H1123.62M1319.7 119.291L1336.25 127.419M1319.7 119.291H1374.22M1357.11 111.589L1374.22 119.291M1392.61 104.28H1439.61M1374.22 119.291L1392.28 127.419M1280.23 127.419L1296.13 136.007M1280.23 127.419H1336.25M1280.23 127.419H1224.21M1336.25 127.419L1353.75 136.007M1336.25 127.419H1392.28M1392.28 127.419L1411.36 136.007M1392.28 127.419H1439.61M1296.13 136.007H1353.75M1296.13 136.007H1238.52M1372.26 145.097L1353.75 136.007M1372.26 145.097L1391.89 154.734M1372.26 145.097H1431.56M1353.75 136.007H1411.36M1238.52 136.007H1180.91M1238.52 136.007L1224.21 127.419M1411.36 136.007L1431.56 145.097M1411.36 136.007H1439.61M1224.21 127.419H1168.18M1391.89 154.734L1412.73 164.97M1391.89 154.734H1439.61M1431.56 145.097H1439.61M1431.56 145.097L1439.61 148.723M1349.76 164.97L1369.92 175.861M1349.76 164.97H1412.73M1349.76 164.97H1286.78M1412.73 164.97L1434.91 175.861M1412.73 164.97H1439.61M1369.92 175.861H1434.91M1369.92 175.861H1304.93M1434.91 175.861L1439.61 178.168M1434.91 175.861H1439.61M1304.93 175.861H1239.94M1304.93 175.861L1286.78 164.97M1286.78 164.97H1223.81M1438.99 213.163H1367.09M1438.99 213.163H1439.61M1438.99 213.163L1439.61 213.5M1367.09 213.163H1295.19M1367.09 213.163L1390.85 227.424M936.582 19.7974L938.036 21.106L938.525 21.5466L940.503 23.3274M936.582 19.7974H972.679M936.582 19.7974H900.485M968.263 16.3907L965.052 13.9131L964 13.101M968.263 16.3907L972.119 19.3648L972.679 19.7974M968.263 16.3907H1003.73M964 13.101H998.857M964 13.101L959.881 9.9228M925.612 9.9228H959.881M925.612 9.9228L924.318 8.7584L922.198 6.84976M925.612 9.9228H891.344M972.679 19.7974L973.807 20.6677L977.254 23.3274M972.679 19.7974H1008.78M1003.73 16.3907L998.857 13.101M1003.73 16.3907L1008.78 19.7974M998.857 13.101L995.311 10.7072L994.149 9.9228M959.881 9.9228H994.149M959.881 9.9228L955.898 6.84976M1008.78 19.7974L1014 23.3274M1028.42 9.9228L1027.77 9.53259L1023.3 6.84976M1028.42 9.9228H994.149M994.149 9.9228L992.424 8.7584L989.598 6.84976M940.503 23.3274H977.254M940.503 23.3274H903.752M981.997 26.9875L977.254 23.3274M981.997 26.9875L986.919 30.7849M981.997 26.9875H1019.43M977.254 23.3274H1014M903.752 23.3274H867.002M903.752 23.3274L900.485 19.7974M1014 23.3274L1019.43 26.9875M900.485 19.7974H864.388M986.919 30.7849L990.09 33.2319L990.734 33.7279L992.029 34.7277M986.919 30.7849H1025.05M1019.43 26.9875L1025.05 30.7849M1025.05 30.7849L1030.89 34.7277M953.168 34.7277L957.72 38.825M953.168 34.7277H992.029M953.168 34.7277H914.307M992.029 34.7277L997.339 38.825M992.029 34.7277H1030.89M1030.89 34.7277L1036.96 38.825M957.72 38.825H997.339M957.72 38.825H918.1M1002.86 43.085L999.384 40.4028L998.7 39.874L997.339 38.825M1002.86 43.085L1008.61 47.5182M1002.86 43.085H1043.27M997.339 38.825H1036.96M918.1 38.825H878.48M918.1 38.825L914.307 34.7277M1036.96 38.825L1043.27 43.085M914.307 34.7277H875.445M1008.61 47.5182L1014.59 52.1351M1008.61 47.5182H1049.84M1043.27 43.085L1049.84 47.5182M1049.84 47.5182L1056.67 52.1351M972.506 52.1351L975.151 54.5159L975.821 55.1194L977.852 56.9477M972.506 52.1351H1014.59M972.506 52.1351H930.421M1014.59 52.1351L1020.83 56.9477M1014.59 52.1351H1056.67M1056.67 52.1351L1063.8 56.9477M977.852 56.9477H1020.83M977.852 56.9477H934.877M1027.33 61.9684L1020.83 56.9477M1027.33 61.9684L1034.13 67.2108M1027.33 61.9684H1071.24M1020.83 56.9477H1063.8M934.877 56.9477H891.901M934.877 56.9477L933.745 55.7256L930.421 52.1351M1063.8 56.9477L1071.24 61.9684M930.421 52.1351H888.338M1034.13 67.2108L1041.23 72.6907M1034.13 67.2108H1079M1071.24 61.9684L1079 67.2108M1079 67.2108L1087.12 72.6907M995.341 72.6907L1001.71 78.424M995.341 72.6907H1041.23M995.341 72.6907H949.451M1041.23 72.6907L1048.66 78.424M1041.23 72.6907H1087.12M1087.12 72.6907L1095.61 78.424M1001.71 78.424H1048.66M1001.71 78.424H954.759M1056.44 84.4287L1048.66 78.424M1056.44 84.4287L1064.6 90.7246M1056.44 84.4287H1104.51M1048.66 78.424H1095.61M954.759 78.424H907.807M954.759 78.424L949.451 72.6907M1095.61 78.424L1104.51 84.4287M949.451 72.6907H903.561M1064.6 90.7246L1073.17 97.3339M1064.6 90.7246H1113.83M1104.51 84.4287L1113.83 90.7246M1113.83 90.7246L1123.62 97.3339M1022.72 97.3339L1030.43 104.28M1022.72 97.3339H1073.17M1022.72 97.3339H972.265M1073.17 97.3339L1082.17 104.28M1073.17 97.3339H1123.62M1123.62 97.3339L1133.91 104.28M1030.43 104.28H1082.17M1030.43 104.28H978.695M1091.65 111.589L1082.17 104.28M1091.65 111.589L1101.63 119.291M1091.65 111.589H1144.74M1082.17 104.28H1133.91M978.695 104.28H926.956M978.695 104.28L972.265 97.3339M1133.91 104.28L1144.74 111.589M972.265 97.3339H921.812M1101.63 119.291L1112.16 127.419M1101.63 119.291H1156.15M1144.74 111.589L1156.15 119.291M1156.15 119.291L1168.18 127.419M1056.14 127.419L1065.68 136.007M1056.14 127.419H1112.16M1056.14 127.419H1000.12M1112.16 127.419L1123.29 136.007M1112.16 127.419H1168.18M1168.18 127.419L1180.91 136.007M1065.68 136.007H1123.29M1065.68 136.007H1008.07M1135.07 145.097L1123.29 136.007M1135.07 145.097L1147.57 154.734M1135.07 145.097H1194.37M1123.29 136.007H1180.91M1008.07 136.007H950.453M1008.07 136.007L1000.12 127.419M1180.91 136.007L1194.37 145.097M1000.12 127.419H944.093M1147.57 154.734L1160.83 164.97M1147.57 154.734H1208.65M1194.37 145.097L1208.65 154.734M1208.65 154.734L1223.81 164.97M1097.86 164.97L1109.95 175.861M1097.86 164.97H1160.83M1097.86 164.97H1034.88M1160.83 164.97L1174.95 175.861M1160.83 164.97H1223.81M1223.81 164.97L1239.94 175.861M1109.95 175.861H1174.95M1109.95 175.861H1044.96M1189.99 187.473L1174.95 175.861M1189.99 187.473L1206.07 199.878M1189.99 187.473H1257.14M1174.95 175.861H1239.94M1044.96 175.861H979.969M1044.96 175.861L1034.88 164.97M1239.94 175.861L1257.14 187.473M1034.88 164.97H971.903M1206.07 199.878L1223.29 213.163M1206.07 199.878H1275.51M1257.14 187.473L1275.51 199.878M1275.51 199.878L1295.19 213.163M1151.39 213.163L1167.23 227.424M1151.39 213.163H1223.29M1151.39 213.163H1079.49M1223.29 213.163L1241.77 227.424M1223.29 213.163H1295.19M1295.19 213.163L1316.31 227.424M1167.23 227.424H1241.77M1167.23 227.424H1092.7M1261.67 242.772L1241.77 227.424M1261.67 242.772L1283.13 259.336M1261.67 242.772H1339.05M1241.77 227.424H1316.31M1092.7 227.424H1018.16M1092.7 227.424L1079.49 213.163M1316.31 227.424L1339.05 242.772M1316.31 227.424H1390.85M1079.49 213.163H1007.6M1283.13 259.336L1306.37 277.268M1283.13 259.336H1363.58M1339.05 242.772L1363.58 259.336M1390.85 227.424H1439.61M1363.58 259.336L1390.14 277.268M1363.58 259.336H1439.61M1222.61 277.268L1244.24 296.743M1222.61 277.268H1306.37M1222.61 277.268H1138.84M1306.37 277.268L1331.62 296.743M1306.37 277.268H1390.14M1390.14 277.268L1418.99 296.743M1390.14 277.268H1439.61M1244.24 296.743H1331.62M1244.24 296.743H1156.87M1359.13 317.971L1331.62 296.743M1359.13 317.971L1389.23 341.198M1359.13 317.971H1439.61M1331.62 296.743H1418.99M1156.87 296.743H1069.49M1156.87 296.743L1138.84 277.268M1418.99 296.743H1439.61M1418.99 296.743L1439.61 310.667M1138.84 277.268H1055.07M1389.23 341.198L1422.31 366.722M1389.23 341.198H1439.61M1321.98 366.722L1353.28 394.9M1321.98 366.722H1422.31M1321.98 366.722H1221.65M1422.31 366.722L1439.61 380.071M1422.31 366.722H1439.61M1353.28 394.9H1247.74M1353.28 394.9L1439.61 394.899M1247.74 394.9H1142.19M1247.74 394.9L1221.65 366.722M1221.65 366.722H1121.32M792.194 19.7974L792.355 20.2317L792.516 20.6677L792.679 21.106L792.841 21.5466L793.335 22.8789L793.501 23.3274M792.194 19.7974H828.291M792.194 19.7974H756.097M826.399 16.3907L825.022 13.9131L824.572 13.101M826.399 16.3907L827.574 18.5057L828.291 19.7974M826.399 16.3907H861.865M824.572 13.101H859.429M824.572 13.101L823.242 10.7072L822.806 9.9228M788.537 9.9228L788.393 9.53259L787.822 7.98985L787.399 6.84976M788.537 9.9228H822.806M788.537 9.9228H754.269M828.291 19.7974L828.532 20.2317L828.775 20.6677L829.018 21.106L829.263 21.5466L830.251 23.3274M828.291 19.7974H864.388M861.865 16.3907L860.03 13.9131L859.429 13.101M861.865 16.3907L864.388 19.7974M859.429 13.101L858.241 11.4984L857.364 10.3142L857.075 9.9228M822.806 9.9228L822.59 9.53259L822.16 8.7584L821.732 7.98985L821.521 7.60813L821.099 6.84976M822.806 9.9228H857.075M864.388 19.7974L866.34 22.4327L867.002 23.3274M891.344 9.9228L889.201 7.60813L888.499 6.84976M891.344 9.9228H857.075M857.075 9.9228L855.08 7.2281L854.798 6.84976M793.501 23.3274H830.251M793.501 23.3274H756.751M832.284 26.9875L830.251 23.3274M832.284 26.9875L834.394 30.7849M832.284 26.9875H869.712M830.251 23.3274H867.002M756.751 23.3274H720M756.751 23.3274L756.097 19.7974M867.002 23.3274L869.712 26.9875M756.097 19.7974H720M834.394 30.7849L834.934 31.7565L835.753 33.2319L836.584 34.7277M834.394 30.7849H872.526M869.712 26.9875L870.059 27.454L872.526 30.7849M872.526 30.7849L872.884 31.2696L873.245 31.7565L873.607 32.2462L875.445 34.7277M797.723 34.7277L799.24 38.825M797.723 34.7277H836.584M797.723 34.7277H758.861M836.584 34.7277L838.86 38.825M836.584 34.7277H875.445M875.445 34.7277L877.71 37.7855L878.094 38.3041L878.48 38.825M799.24 38.825H838.86M799.24 38.825H759.62M841.226 43.085L841.528 43.6296L841.833 44.1765L842.138 44.7267L843.689 47.5182M841.226 43.085L840.031 40.9338L839.736 40.4028L839.443 39.874L838.86 38.825M841.226 43.085H881.635M838.86 38.825H878.48M759.62 38.825H720M759.62 38.825L758.861 34.7277M878.48 38.825L881.635 43.085M758.861 34.7277H720M843.689 47.5182L845.927 51.5475L846.253 52.1351M843.689 47.5182H884.918M881.635 43.085L882.444 44.1765L884.918 47.5182M884.918 47.5182L886.184 49.2272L888.338 52.1351M804.168 52.1351L805.051 54.5159L805.273 55.1194L805.951 56.9477M804.168 52.1351H846.253M804.168 52.1351H762.085M846.253 52.1351L848.926 56.9477M846.253 52.1351H888.338M888.338 52.1351L891.901 56.9477M805.951 56.9477H848.926M805.951 56.9477H762.975M851.715 61.9684L848.926 56.9477M851.715 61.9684L854.627 67.2108M851.715 61.9684H895.62M848.926 56.9477H891.901M762.975 56.9477H720M762.975 56.9477L762.749 55.7256L762.304 53.3193L762.085 52.1351M891.901 56.9477L895.62 61.9684M762.085 52.1351H720M854.627 67.2108L856.897 71.2978L857.671 72.6907M854.627 67.2108H899.503M895.62 61.9684L899.503 67.2108M899.503 67.2108L901.509 69.9202L903.561 72.6907M811.781 72.6907L813.903 78.424M811.781 72.6907H857.671M811.781 72.6907H765.89M857.671 72.6907L860.855 78.424M857.671 72.6907H903.561M903.561 72.6907L907.807 78.424M813.903 78.424H860.855M813.903 78.424H766.952M864.191 84.4287L863.342 82.9012L860.855 78.424M864.191 84.4287L867.688 90.7246M864.191 84.4287H912.254M860.855 78.424H907.807M766.952 78.424H720M766.952 78.424L765.89 72.6907M907.807 78.424L912.254 84.4287M765.89 72.6907H720M867.688 90.7246L871.359 97.3339M867.688 90.7246H916.917M912.254 84.4287L916.917 90.7246M916.917 90.7246L921.812 97.3339M820.906 97.3339L823.478 104.28M820.906 97.3339H871.359M820.906 97.3339H770.453M871.359 97.3339L875.217 104.28M871.359 97.3339H921.812M921.812 97.3339L926.956 104.28M823.478 104.28H875.217M823.478 104.28H771.739M879.277 111.589L875.217 104.28M879.277 111.589L883.555 119.291M879.277 111.589H932.369M875.217 104.28H926.956M771.739 104.28H720M771.739 104.28L770.61 98.1833L770.453 97.3339M926.956 104.28L932.369 111.589M770.453 97.3339H720M883.555 119.291L888.069 127.419M883.555 119.291H938.073M932.369 111.589L936.618 117.327L938.073 119.291M938.073 119.291L944.093 127.419M832.046 127.419L835.226 136.007M832.046 127.419H888.069M832.046 127.419H776.023M888.069 127.419L892.84 136.007M888.069 127.419H944.093M944.093 127.419L950.453 136.007M835.226 136.007H892.84M835.226 136.007H777.613M897.889 145.097L892.84 136.007M897.889 145.097L903.242 154.734M897.889 145.097H957.185M892.84 136.007H950.453M777.613 136.007H720M777.613 136.007L776.023 127.419M950.453 136.007L957.185 145.097M776.023 127.419H720M903.242 154.734L908.927 164.97M903.242 154.734H964.323M957.185 145.097L964.323 154.734M964.323 154.734L971.903 164.97M845.952 164.97L849.985 175.861M845.952 164.97H908.927M845.952 164.97H782.976M908.927 164.97L914.977 175.861M908.927 164.97H971.903M971.903 164.97L979.969 175.861M849.985 175.861H914.977M849.985 175.861H784.992M921.426 187.473L914.977 175.861M921.426 187.473L928.317 199.878M921.426 187.473H988.568M914.977 175.861H979.969M784.992 175.861H720M784.992 175.861L782.976 164.97M979.969 175.861L988.568 187.473M782.976 164.97H720M928.317 199.878L935.696 213.163M928.317 199.878H997.756M988.568 187.473L997.756 199.878M997.756 199.878L1007.6 213.163M863.797 213.163L869.078 227.424M863.797 213.163H935.696M863.797 213.163H791.899M935.696 213.163L943.617 227.424M935.696 213.163H1007.6M1007.6 213.163L1018.16 227.424M869.078 227.424H943.617M869.078 227.424H794.539M952.142 242.772L943.617 227.424M952.142 242.772L961.343 259.336M952.142 242.772H1029.52M943.617 227.424H1018.16M794.539 227.424H720M794.539 227.424L791.899 213.163M1018.16 227.424L1029.52 242.772M791.899 213.163H720M961.343 259.336L971.304 277.268M961.343 259.336H1041.79M1029.52 242.772L1041.79 259.336M1041.79 259.336L1055.07 277.268M887.536 277.268L894.747 296.743M887.536 277.268H971.304M887.536 277.268H803.768M971.304 277.268L982.121 296.743M971.304 277.268H1055.07M1055.07 277.268L1069.49 296.743M894.747 296.743H982.121M894.747 296.743H807.374M993.912 317.971L982.121 296.743M993.912 317.971L1006.81 341.198M993.912 317.971H1085.22M982.121 296.743H1069.49M807.374 296.743H720M807.374 296.743L803.768 277.268M1069.49 296.743L1085.22 317.971M803.768 277.268H720M1006.81 341.198L1020.99 366.722M1006.81 341.198H1102.42M1085.22 317.971L1102.42 341.198M1102.42 341.198L1121.32 366.722M920.66 366.722L931.095 394.9M920.66 366.722H1020.99M920.66 366.722H820.33M1020.99 366.722L1036.64 394.9M1020.99 366.722H1121.32M1121.32 366.722L1142.19 394.9M1036.64 394.9H931.095M1036.64 394.9H1142.19M931.095 394.9H825.548M825.548 394.9H720M825.548 394.9L820.33 366.722M820.33 366.722H720M647.806 19.7974L647.645 20.2317L647.484 20.6677L647.321 21.106L647.159 21.5466L646.83 22.4327L646.665 22.8789L646.499 23.3274M647.806 19.7974H683.903M647.806 19.7974H611.709M684.534 16.3907L685.143 13.101M684.534 16.3907L683.903 19.7974M684.534 16.3907H720M685.143 13.101L685.217 12.6978L685.292 12.2963L685.366 11.8965L685.732 9.9228M685.143 13.101H720M651.463 9.9228L651.607 9.53259L652.178 7.98985L652.601 6.84976M651.463 9.9228H685.732M651.463 9.9228H617.194M683.903 19.7974L683.822 20.2317L683.742 20.6677L683.66 21.106L683.25 23.3274M683.903 19.7974H720M720 16.3907V13.101M720 16.3907V19.7974M720 13.101V9.9228M685.732 9.9228H720M685.732 9.9228L685.947 8.7584L686.019 8.37328L686.3 6.84976M720 19.7974V23.3274M754.269 9.9228L754.054 8.7584L753.982 8.37328L753.911 7.98985L753.84 7.60813L753.77 7.2281L753.7 6.84976M754.269 9.9228H720M720 9.9228V6.84976M646.499 23.3274H683.25M646.499 23.3274H609.749M682.572 26.9875L682.485 27.454L682.399 27.9234L681.869 30.7849M682.572 26.9875L683.25 23.3274M682.572 26.9875H720M683.25 23.3274H720M609.749 23.3274H572.998M609.749 23.3274L610.245 22.4327L610.492 21.9888L610.737 21.5466L610.983 21.106L611.225 20.6677L611.468 20.2317L611.709 19.7974M720 23.3274V26.9875M611.709 19.7974H575.612M681.869 30.7849L681.139 34.7277M681.869 30.7849H720M720 26.9875V30.7849M720 30.7849V34.7277M642.277 34.7277L640.76 38.825M642.277 34.7277H681.139M642.277 34.7277H603.416M681.139 34.7277L680.38 38.825M681.139 34.7277H720M720 34.7277V38.825M640.76 38.825H680.38M640.76 38.825H601.14M679.592 43.085L680.38 38.825M679.592 43.085L678.771 47.5182M679.592 43.085H720M680.38 38.825H720M601.14 38.825H561.52M601.14 38.825L603.416 34.7277M720 38.825V43.085M603.416 34.7277H564.555M678.771 47.5182L678.454 49.2272L678.133 50.9628L677.915 52.1351M678.771 47.5182H720M720 43.085V47.5182M720 47.5182V52.1351M635.832 52.1351L634.949 54.5159L634.727 55.1194L634.049 56.9477M635.832 52.1351H677.915M635.832 52.1351H593.747M677.915 52.1351L677.697 53.3193L677.251 55.7256L677.025 56.9477M677.915 52.1351H720M720 52.1351V56.9477M634.049 56.9477H677.025M634.049 56.9477H591.074M676.095 61.9684L676.213 61.3288L677.025 56.9477M676.095 61.9684L675.125 67.2108M676.095 61.9684H720M677.025 56.9477H720M591.074 56.9477H548.099M591.074 56.9477L593.747 52.1351M720 56.9477V61.9684M593.747 52.1351H551.662M675.125 67.2108L674.11 72.6907M675.125 67.2108H720M720 61.9684V67.2108M720 67.2108V72.6907M628.219 72.6907L626.097 78.424M628.219 72.6907H674.11M628.219 72.6907H582.329M674.11 72.6907L673.048 78.424M674.11 72.6907H720M720 72.6907V78.424M626.097 78.424H673.048M626.097 78.424H579.145M671.937 84.4287L673.048 78.424M671.937 84.4287L670.771 90.7246M671.937 84.4287H720M673.048 78.424H720M579.145 78.424H532.193M579.145 78.424L582.329 72.6907M720 78.424V84.4287M582.329 72.6907H536.439M670.771 90.7246L669.547 97.3339M670.771 90.7246H720M720 84.4287V90.7246M720 90.7246V97.3339M619.094 97.3339L616.522 104.28M619.094 97.3339H669.547M619.094 97.3339H568.642M669.547 97.3339L668.261 104.28M669.547 97.3339H720M720 97.3339V104.28M616.522 104.28H668.261M616.522 104.28H564.783M666.908 111.589L668.261 104.28M666.908 111.589L665.482 119.291M666.908 111.589H720M668.261 104.28H720M564.783 104.28H513.044M564.783 104.28L568.642 97.3339M720 104.28V111.589M568.642 97.3339H518.188M665.482 119.291L663.977 127.419M665.482 119.291H720M720 111.589V119.291M720 119.291V127.419M607.954 127.419L604.774 136.007M607.954 127.419H663.977M607.954 127.419H551.931M663.977 127.419L662.387 136.007M663.977 127.419H720M720 127.419V136.007M604.774 136.007H662.387M604.774 136.007H547.16M660.704 145.097L662.387 136.007M660.704 145.097L658.919 154.734M660.704 145.097H720M662.387 136.007H720M547.16 136.007H489.547M547.16 136.007L551.931 127.419M720 136.007V145.097M551.931 127.419H495.907M658.919 154.734L657.024 164.97M658.919 154.734H720M720 145.097V154.734M720 154.734V164.97M594.048 164.97L590.016 175.861M594.048 164.97H657.024M594.048 164.97H531.073M657.024 164.97L655.008 175.861M657.024 164.97H720M720 164.97V175.861M590.016 175.861H655.008M590.016 175.861H525.023M652.858 187.473L655.008 175.861M652.858 187.473L650.561 199.878M652.858 187.473H720M655.008 175.861H720M525.023 175.861H460.031M525.023 175.861L531.073 164.97M720 175.861V187.473M531.073 164.97H468.097M650.561 199.878L648.101 213.163M650.561 199.878H720M720 187.473V199.878M720 199.878V213.163M576.203 213.163L570.922 227.424M576.203 213.163H648.101M576.203 213.163H504.304M648.101 213.163L645.461 227.424M648.101 213.163H720M720 213.163V227.424M570.922 227.424H645.461M570.922 227.424H496.383M642.619 242.772L645.461 227.424M642.619 242.772L639.553 259.336M642.619 242.772H720M645.461 227.424H720M496.383 227.424H421.844M496.383 227.424L504.304 213.163M720 227.424V242.772M504.304 213.163H432.405M639.553 259.336L636.232 277.268M639.553 259.336H720M720 242.772V259.336M720 259.336V277.268M552.465 277.268L545.253 296.743M552.465 277.268H636.232M552.465 277.268H468.696M636.232 277.268L632.626 296.743M636.232 277.268H720M720 277.268V296.743M545.253 296.743H632.626M545.253 296.743H457.879M628.696 317.971L632.626 296.743M628.696 317.971L624.396 341.198M628.696 317.971H720M632.626 296.743H720M457.879 296.743H370.505M457.879 296.743L468.696 277.268M720 296.743V317.971M468.696 277.268H384.929M624.396 341.198L619.67 366.722M624.396 341.198H720M720 317.971V341.198M720 341.198V366.722M519.34 366.722L508.905 394.9M519.34 366.722H619.67M519.34 366.722H419.009M619.67 366.722L614.452 394.9M619.67 366.722H720M720 366.722V394.9M614.452 394.9H508.905M614.452 394.9H720M508.905 394.9H403.358M403.358 394.9H297.81M403.358 394.9L419.009 366.722M419.009 366.722H318.679M503.418 19.7974L501.475 21.5466L499.497 23.3274M503.418 19.7974H539.515M503.418 19.7974H467.322M542.669 16.3907L545.714 13.101M542.669 16.3907L539.515 19.7974M542.669 16.3907H578.135M545.714 13.101H580.571M545.714 13.101L547.93 10.7072L548.657 9.9228M514.388 9.9228H548.657M514.388 9.9228L515.682 8.7584L517.802 6.84976M514.388 9.9228H480.119M539.515 19.7974L536.248 23.3274M539.515 19.7974H575.612M578.135 16.3907L580.571 13.101M578.135 16.3907L575.612 19.7974M580.571 13.101L581.759 11.4984L582.636 10.3142L582.925 9.9228M548.657 9.9228H582.925M548.657 9.9228L550.799 7.60813L551.501 6.84976M575.612 19.7974L573.66 22.4327L572.998 23.3274M617.194 9.9228L617.41 9.53259L617.841 8.7584L618.479 7.60813L618.901 6.84976M617.194 9.9228H582.925M582.925 9.9228L583.214 9.53259L583.788 8.7584L585.201 6.84976M499.497 23.3274H536.248M499.497 23.3274H462.746M532.859 26.9875L533.29 26.5226L533.718 26.0594L535.412 24.2294L536.248 23.3274M532.859 26.9875L530.235 29.8218L529.343 30.7849M532.859 26.9875H570.288M536.248 23.3274H572.998M462.746 23.3274H425.996M462.746 23.3274L466.193 20.6677L467.322 19.7974M572.998 23.3274L570.288 26.9875M467.322 19.7974H431.224M529.343 30.7849L528.895 31.2696L528.444 31.7565L527.079 33.2319L526.618 33.7279L525.693 34.7277M529.343 30.7849H567.474M570.288 26.9875L569.941 27.454L567.474 30.7849M567.474 30.7849L567.116 31.2696L566.755 31.7565L566.393 32.2462L564.555 34.7277M486.832 34.7277L482.281 38.825M486.832 34.7277H525.693M486.832 34.7277H447.971M525.693 34.7277L521.9 38.825M525.693 34.7277H564.555M564.555 34.7277L561.52 38.825M482.281 38.825H521.9M482.281 38.825H442.661M517.957 43.085L521.9 38.825M517.957 43.085L513.853 47.5182M517.957 43.085H558.365M521.9 38.825H561.52M442.661 38.825H403.041M442.661 38.825L447.971 34.7277M561.52 38.825L558.365 43.085M447.971 34.7277H409.109M513.853 47.5182L509.579 52.1351M513.853 47.5182H555.082M558.365 43.085L557.557 44.1765L555.082 47.5182M555.082 47.5182L553.816 49.2272L552.53 50.9628L551.662 52.1351M467.494 52.1351L464.849 54.5159L462.148 56.9477M467.494 52.1351H509.579M467.494 52.1351H425.409M509.579 52.1351L505.123 56.9477M509.579 52.1351H551.662M551.662 52.1351L548.099 56.9477M462.148 56.9477H505.123M462.148 56.9477H419.173M500.476 61.9684L505.123 56.9477M500.476 61.9684L495.622 67.2108M500.476 61.9684H544.38M505.123 56.9477H548.099M419.173 56.9477H376.197M419.173 56.9477L425.409 52.1351M548.099 56.9477L544.38 61.9684M425.409 52.1351H383.326M495.622 67.2108L494.375 68.5579L490.549 72.6907M495.622 67.2108H540.497M544.38 61.9684L540.497 67.2108M540.497 67.2108L540 67.8826L538.491 69.9202L536.439 72.6907M444.659 72.6907L438.29 78.424M444.659 72.6907H490.549M444.659 72.6907H398.769M490.549 72.6907L485.241 78.424M490.549 72.6907H536.439M536.439 72.6907L532.193 78.424M438.29 78.424H485.241M438.29 78.424H391.338M479.682 84.4287L483.188 80.6431L485.241 78.424M479.682 84.4287L473.854 90.7246M479.682 84.4287H527.746M485.241 78.424H532.193M391.338 78.424H344.386M391.338 78.424L398.769 72.6907M532.193 78.424L527.746 84.4287M398.769 72.6907H352.878M473.854 90.7246L467.735 97.3339M473.854 90.7246H523.083M527.746 84.4287L523.083 90.7246M523.083 90.7246L518.188 97.3339M417.282 97.3339L409.566 104.28M417.282 97.3339H467.735M417.282 97.3339H366.83M467.735 97.3339L461.305 104.28M467.735 97.3339H518.188M518.188 97.3339L513.044 104.28M409.566 104.28H461.305M409.566 104.28H357.827M454.539 111.589L461.305 104.28M454.539 111.589L447.409 119.291M454.539 111.589H507.631M461.305 104.28H513.044M357.827 104.28H306.089M357.827 104.28L366.83 97.3339M513.044 104.28L507.631 111.589M366.83 97.3339H316.377M447.409 119.291L439.885 127.419M447.409 119.291H501.927M507.631 111.589L501.927 119.291M501.927 119.291L495.907 127.419M383.862 127.419L374.321 136.007M383.862 127.419H439.885M383.862 127.419H327.838M439.885 127.419L431.934 136.007M439.885 127.419H495.907M495.907 127.419L489.547 136.007M374.321 136.007H431.934M374.321 136.007H316.707M423.518 145.097L431.934 136.007M423.518 145.097L414.597 154.734M423.518 145.097H482.815M431.934 136.007H489.547M316.707 136.007H259.094M316.707 136.007L327.838 127.419M489.547 136.007L482.815 145.097M327.838 127.419H271.816M414.597 154.734L405.121 164.97M414.597 154.734H475.677M482.815 145.097L475.677 154.734M475.677 154.734L468.097 164.97M342.145 164.97L330.047 175.861M342.145 164.97H405.121M342.145 164.97H279.169M405.121 164.97L395.039 175.861M405.121 164.97H468.097M468.097 164.97L460.031 175.861M330.047 175.861H395.039M330.047 175.861H265.054M384.29 187.473L395.039 175.861M384.29 187.473L372.804 199.878M384.29 187.473H451.432M395.039 175.861H460.031M265.054 175.861H200.062M265.054 175.861L279.169 164.97M460.031 175.861L451.432 187.473M279.169 164.97H216.193M372.804 199.878L360.506 213.163M372.804 199.878H442.244M451.432 187.473L442.244 199.878M442.244 199.878L432.405 213.163M288.607 213.163L272.765 227.424M288.607 213.163H360.506M288.607 213.163H216.708M360.506 213.163L347.304 227.424M360.506 213.163H432.405M432.405 213.163L421.844 227.424M272.765 227.424H347.304M272.765 227.424H198.226M333.096 242.772L347.304 227.424M333.096 242.772L317.761 259.336M333.096 242.772H410.477M347.304 227.424H421.844M198.226 227.424H123.687M198.226 227.424L216.708 213.163M421.844 227.424L410.477 242.772M216.708 213.163H144.809M317.761 259.336L301.161 277.268M317.761 259.336H398.209M410.477 242.772L398.209 259.336M398.209 259.336L384.929 277.268M217.393 277.268L195.758 296.743M217.393 277.268H301.161M217.393 277.268H133.625M301.161 277.268L283.132 296.743M301.161 277.268H384.929M384.929 277.268L370.505 296.743M195.758 296.743H283.132M195.758 296.743H108.384M263.48 317.971L283.132 296.743M263.48 317.971L241.977 341.198M263.48 317.971H354.784M283.132 296.743H370.505M108.384 296.743H21.0104M108.384 296.743L133.625 277.268M370.505 296.743L354.784 317.971M133.625 277.268H49.8579M241.977 341.198L218.349 366.722M241.977 341.198H337.582M354.784 317.971L337.582 341.198M337.582 341.198L318.679 366.722M118.019 366.722L86.7156 394.9M118.019 366.722H218.349M118.019 366.722H17.6882M218.349 366.722L192.263 394.9M218.349 366.722H318.679M318.679 366.722L297.81 394.9M192.263 394.9H86.7156M192.263 394.9H297.81M86.7156 394.9L0.387546 394.899M17.6882 366.722L0.387546 380.071M17.6882 366.722H0.387546M359.03 19.7974L352.495 23.3274M359.03 19.7974H395.127M359.03 19.7974H322.934M400.804 16.3907L406.286 13.101M400.804 16.3907L395.127 19.7974M400.804 16.3907H436.27M406.286 13.101H441.143M406.286 13.101L411.582 9.9228M377.313 9.9228H411.582M377.313 9.9228L379.47 8.7584L383.003 6.84976M377.313 9.9228H343.045M395.127 19.7974L389.245 23.3274M395.127 19.7974H431.224M436.27 16.3907L441.143 13.101M436.27 16.3907L431.224 19.7974M441.143 13.101L444.689 10.7072L445.851 9.9228M411.582 9.9228L412.232 9.53259L416.703 6.84976M411.582 9.9228H445.851M431.224 19.7974L425.996 23.3274M480.119 9.9228L484.102 6.84976M480.119 9.9228H445.851M445.851 9.9228L447.576 8.7584L450.403 6.84976M352.495 23.3274H389.245M352.495 23.3274H315.744M383.146 26.9875L389.245 23.3274M383.146 26.9875L376.818 30.7849M383.146 26.9875H420.575M389.245 23.3274H425.996M315.744 23.3274H278.994M315.744 23.3274L322.934 19.7974M425.996 23.3274L420.575 26.9875M322.934 19.7974H286.837M376.818 30.7849L375.198 31.7565L370.247 34.7277M376.818 30.7849H414.95M420.575 26.9875L414.95 30.7849M414.95 30.7849L409.109 34.7277M331.386 34.7277L330.454 35.2316L323.801 38.825M331.386 34.7277H370.247M331.386 34.7277H292.525M370.247 34.7277L363.421 38.825M370.247 34.7277H409.109M409.109 34.7277L408.364 35.2316L403.041 38.825M323.801 38.825H363.421M323.801 38.825H284.181M356.322 43.085L363.421 38.825M356.322 43.085L348.935 47.5182M356.322 43.085H396.731M363.421 38.825H403.041M284.181 38.825H244.561M284.181 38.825L292.525 34.7277M403.041 38.825L396.731 43.085M292.525 34.7277H253.663M348.935 47.5182L341.241 52.1351M348.935 47.5182H390.164M396.731 43.085L390.164 47.5182M390.164 47.5182L383.326 52.1351M299.157 52.1351L290.247 56.9477M299.157 52.1351H341.241M299.157 52.1351H257.073M341.241 52.1351L333.222 56.9477M341.241 52.1351H383.326M383.326 52.1351L376.197 56.9477M290.247 56.9477H333.222M290.247 56.9477H247.271M324.856 61.9684L333.222 56.9477M324.856 61.9684L316.119 67.2108M324.856 61.9684H368.76M333.222 56.9477H376.197M247.271 56.9477H204.296M247.271 56.9477L257.073 52.1351M376.197 56.9477L368.76 61.9684M257.073 52.1351H214.988M316.119 67.2108L306.988 72.6907M316.119 67.2108H360.995M368.76 61.9684L360.995 67.2108M360.995 67.2108L352.878 72.6907M261.098 72.6907L250.483 78.424M261.098 72.6907H306.988M261.098 72.6907H215.208M306.988 72.6907L297.435 78.424M306.988 72.6907H352.878M352.878 72.6907L344.386 78.424M250.483 78.424H297.435M250.483 78.424H203.531M287.428 84.4287L297.435 78.424M287.428 84.4287L276.937 90.7246M287.428 84.4287H335.492M297.435 78.424H344.386M203.531 78.424H156.579M203.531 78.424L215.208 72.6907M344.386 78.424L335.492 84.4287M215.208 72.6907H169.317M276.937 90.7246L265.924 97.3339M276.937 90.7246H326.166M335.492 84.4287L326.166 90.7246M326.166 90.7246L316.377 97.3339M215.471 97.3339L202.611 104.28M215.471 97.3339H265.924M215.471 97.3339H165.018M265.924 97.3339L254.349 104.28M265.924 97.3339H316.377M316.377 97.3339L306.089 104.28M202.611 104.28H254.349M202.611 104.28H150.871M242.169 111.589L254.349 104.28M242.169 111.589L229.335 119.291M242.169 111.589H295.262M254.349 104.28H306.089M150.871 104.28H99.1326M150.871 104.28L165.018 97.3339M306.089 104.28L295.262 111.589M165.018 97.3339H114.565M229.335 119.291L215.792 127.419M229.335 119.291H283.853M295.262 111.589L283.853 119.291M283.853 119.291L271.816 127.419M159.769 127.419L143.868 136.007M159.769 127.419H215.792M159.769 127.419H103.746M215.792 127.419L201.481 136.007M215.792 127.419H271.816M271.816 127.419L259.094 136.007M143.868 136.007H201.481M143.868 136.007H86.2546M186.333 145.097L201.481 136.007M186.333 145.097L170.274 154.734M186.333 145.097H245.629M201.481 136.007H259.094M86.2546 136.007H28.6413M86.2546 136.007L103.746 127.419M259.094 136.007L245.629 145.097M103.746 127.419H47.7231M170.274 154.734L153.217 164.97M170.274 154.734H231.355M245.629 145.097L231.355 154.734M231.355 154.734L216.193 164.97M90.2417 164.97L70.0775 175.861M90.2417 164.97H153.217M90.2417 164.97H27.2658M153.217 164.97L135.07 175.861M153.217 164.97H216.193M216.193 164.97L200.062 175.861M70.0775 175.861H135.07M70.0775 175.861H5.08526M115.72 187.473L135.07 175.861M115.72 187.473L95.0481 199.878M115.72 187.473H182.863M135.07 175.861H200.062M5.08526 175.861L27.2658 164.97M5.08526 175.861H0.387546M5.08526 175.861L0.387546 178.168M200.062 175.861L182.863 187.473M27.2658 164.97H0.387546M95.0481 199.878L72.911 213.163M95.0481 199.878H164.487M182.863 187.473L164.487 199.878M164.487 199.878L144.809 213.163M1.01196 213.163H72.911M1.01196 213.163H0.387546M1.01196 213.163L0.387546 213.5M72.911 213.163L49.1473 227.424M72.911 213.163H144.809M144.809 213.163L123.687 227.424M23.5726 242.772L49.1473 227.424M23.5726 242.772H100.953M23.5726 242.772H0.387546M23.5726 242.772L0.387546 256.685M49.1473 227.424H123.687M49.1473 227.424H0.387546M123.687 227.424L100.953 242.772M100.953 242.772L76.4183 259.336M76.4183 259.336L49.8579 277.268M76.4183 259.336H0.387546M49.8579 277.268L21.0104 296.743M49.8579 277.268H0.387546M21.0104 296.743H0.387546M21.0104 296.743L0.387546 310.667M214.642 19.7974L205.493 23.3274M214.642 19.7974H250.74M214.642 19.7974H178.546M258.939 16.3907L266.857 13.101M258.939 16.3907L250.74 19.7974M258.939 16.3907H294.405M266.857 13.101H301.714M266.857 13.101L274.507 9.9228M240.239 9.9228H274.507M240.239 9.9228L248.204 6.84976M240.239 9.9228H205.97M250.74 19.7974L242.243 23.3274M250.74 19.7974H286.837M294.405 16.3907L301.714 13.101M294.405 16.3907L286.837 19.7974M301.714 13.101L308.776 9.9228M274.507 9.9228L275.445 9.53259L281.904 6.84976M274.507 9.9228H308.776M286.837 19.7974L278.994 23.3274M343.045 9.9228L349.303 6.84976M343.045 9.9228H308.776M308.776 9.9228L309.642 9.53259L315.603 6.84976M205.493 23.3274H242.243M205.493 23.3274H168.742M233.433 26.9875L242.243 23.3274M233.433 26.9875L224.293 30.7849M233.433 26.9875H270.862M242.243 23.3274H278.994M168.742 23.3274H131.992M168.742 23.3274L178.546 19.7974M278.994 23.3274L270.862 26.9875M178.546 19.7974H142.449M224.293 30.7849L214.802 34.7277M224.293 30.7849H262.424M270.862 26.9875L269.824 27.454L262.424 30.7849M262.424 30.7849L253.663 34.7277M175.941 34.7277L165.321 38.825M175.941 34.7277H214.802M175.941 34.7277H137.079M214.802 34.7277L204.941 38.825M214.802 34.7277H253.663M253.663 34.7277L244.561 38.825M165.321 38.825H204.941M165.321 38.825H125.701M194.687 43.085L204.941 38.825M194.687 43.085L184.017 47.5182M194.687 43.085H235.096M204.941 38.825H244.561M125.701 38.825H86.0814M125.701 38.825L137.079 34.7277M244.561 38.825L235.096 43.085M137.079 34.7277H98.2181M184.017 47.5182L172.904 52.1351M184.017 47.5182H225.246M235.096 43.085L225.246 47.5182M225.246 47.5182L214.988 52.1351M130.82 52.1351L118.345 56.9477M130.82 52.1351H172.904M130.82 52.1351H88.735M172.904 52.1351L161.321 56.9477M172.904 52.1351H214.988M214.988 52.1351L204.296 56.9477M118.345 56.9477H161.321M118.345 56.9477H75.3697M149.236 61.9684L161.321 56.9477M149.236 61.9684L136.617 67.2108M149.236 61.9684H193.141M161.321 56.9477H204.296M75.3697 56.9477H32.3946M75.3697 56.9477L88.735 52.1351M204.296 56.9477L193.141 61.9684M88.735 52.1351H46.6511M136.617 67.2108L123.427 72.6907M136.617 67.2108H181.492M193.141 61.9684L181.492 67.2108M181.492 67.2108L169.317 72.6907M77.5368 72.6907L62.676 78.424M77.5368 72.6907H123.427M77.5368 72.6907H31.6472M123.427 72.6907L109.628 78.424M123.427 72.6907H169.317M169.317 72.6907L156.579 78.424M62.676 78.424H109.628M95.174 84.4287L109.628 78.424M95.174 84.4287L80.0202 90.7246M95.174 84.4287H143.238M109.628 78.424H156.579M156.579 78.424L143.238 84.4287M31.6472 72.6907H0.387546M80.0202 90.7246L64.1122 97.3339M80.0202 90.7246H129.249M143.238 84.4287L129.249 90.7246M129.249 90.7246L114.565 97.3339M13.6591 97.3339H64.1122M13.6591 97.3339H0.387546M13.6591 97.3339L0.387546 102.454M64.1122 97.3339L47.3932 104.28M64.1122 97.3339H114.565M114.565 97.3339L99.1326 104.28M29.8002 111.589L47.3932 104.28M29.8002 111.589L11.2619 119.291M29.8002 111.589H82.8926M29.8002 111.589H0.387546M47.3932 104.28H99.1326M47.3932 104.28H0.387546M99.1326 104.28L82.8926 111.589M0.241375 102.51L0.387546 102.454M11.2619 119.291H65.7801M11.2619 119.291H0.387546M11.2619 119.291L0.387546 123.809M82.8926 111.589L65.7801 119.291M65.7801 119.291L47.7231 127.419M47.7231 127.419L28.6413 136.007M47.7231 127.419H0.387546M8.44421 145.097L28.6413 136.007M8.44421 145.097H0.387546M8.44421 145.097L0.387546 148.723M28.6413 136.007H0.387546M70.2552 19.7974L58.491 23.3274M70.2552 19.7974H106.352M70.2552 19.7974H34.1576M117.074 16.3907L127.428 13.101M117.074 16.3907L106.352 19.7974M117.074 16.3907H152.541M127.428 13.101H162.285M127.428 13.101L137.433 9.9228M103.164 9.9228H137.433M103.164 9.9228L113.405 6.84976M103.164 9.9228H68.8954M106.352 19.7974L95.2415 23.3274M106.352 19.7974H142.449M152.541 16.3907L162.285 13.101M152.541 16.3907L142.449 19.7974M162.285 13.101L171.701 9.9228M137.433 9.9228H171.701M137.433 9.9228L147.105 6.84976M142.449 19.7974L131.992 23.3274M205.97 9.9228L214.504 6.84976M205.97 9.9228H171.701M171.701 9.9228L180.805 6.84976M58.491 23.3274H95.2415M58.491 23.3274H21.7405M83.7209 26.9875L95.2415 23.3274M83.7209 26.9875L71.7679 30.7849M83.7209 26.9875H121.149M95.2415 23.3274H131.992M21.7405 23.3274L34.1576 19.7974M21.7405 23.3274H0.387546M131.992 23.3274L121.149 26.9875M34.1576 19.7974H0.387546M71.7679 30.7849L59.3568 34.7277M71.7679 30.7849H109.899M121.149 26.9875L109.899 30.7849M109.899 30.7849L98.2181 34.7277M20.4955 34.7277L6.84157 38.825M20.4955 34.7277H59.3568M20.4955 34.7277H0.387546M59.3568 34.7277L46.4615 38.825M59.3568 34.7277H98.2181M98.2181 34.7277L86.0814 38.825M33.0527 43.085L46.4615 38.825M33.0527 43.085L19.099 47.5182M33.0527 43.085H73.4612M33.0527 43.085H0.387546M46.4615 38.825H6.84157M46.4615 38.825H86.0814M6.84157 38.825L0.387546 40.7613M6.84157 38.825H0.387546M86.0814 38.825L73.4612 43.085M19.099 47.5182L4.56654 52.1351M19.099 47.5182H60.3283M19.099 47.5182H0.387546M73.4612 43.085L60.3283 47.5182M60.3283 47.5182L46.6511 52.1351M4.56654 52.1351H46.6511M4.56654 52.1351L0.387546 53.4626M4.56654 52.1351H0.387546M46.6511 52.1351L32.3946 56.9477M17.5211 61.9684L32.3946 56.9477M17.5211 61.9684L1.99018 67.2108M17.5211 61.9684H0.387546M32.3946 56.9477H0.387546M0.162665 56.9477H0.387546M1.99018 67.2108H0.387546M1.99018 67.2108L0.387546 67.7518M0 67.8826L0.387546 67.7518M10.6758 16.3907L22.8567 13.101M10.6758 16.3907H0.387546M10.6758 16.3907L0.387546 19.1688M22.8567 13.101L34.6269 9.9228M22.8567 13.101H0.387546M68.8954 9.9228L79.7053 6.84976M68.8954 9.9228H34.6269M34.6269 9.9228L46.0057 6.84976M34.6269 9.9228H0.387546M1191.8 6.84976H1225.5M1191.8 6.84976H1158.1M1217.24 3.87737L1219.28 4.61142L1225.5 6.84976M1217.24 3.87737H1250.39M1225.5 6.84976H1259.2M1250.39 3.87737L1252.56 4.61142L1253.66 4.98014L1259.2 6.84976M1259.2 6.84976H1292.89M1292.89 6.84976H1326.6M1158.1 6.84976H1124.4M1326.6 6.84976H1360.29M1360.29 6.84976L1349.84 3.87737M1360.29 6.84976H1393.99M1349.84 3.87737H1382.99M1057 6.84976H1090.7M1057 6.84976H1023.3M1084.64 3.87737L1086.14 4.61142L1086.89 4.98014L1090.7 6.84976M1084.64 3.87737H1117.79M1090.7 6.84976H1124.4M1117.79 3.87737L1124.4 6.84976M1023.3 6.84976H989.598M922.198 6.84976H955.898M922.198 6.84976H888.499M952.045 3.87737L952.52 4.24326L952.996 4.61142L953.475 4.98014L955.898 6.84976M952.045 3.87737H985.194M955.898 6.84976H989.598M985.194 3.87737L989.598 6.84976M888.499 6.84976H854.798M787.399 6.84976H821.099M787.399 6.84976H753.7M819.448 3.87737L821.099 6.84976M819.448 3.87737H852.598M821.099 6.84976H854.798M852.598 3.87737L852.869 4.24326L853.141 4.61142L853.415 4.98014L854.798 6.84976M753.7 6.84976H720M652.601 6.84976H686.3M652.601 6.84976H618.901M686.851 3.87737L686.3 6.84976M686.851 3.87737H720M686.3 6.84976H720M720 3.87737V6.84976M618.901 6.84976H585.201M517.802 6.84976H551.501M517.802 6.84976H484.102M554.253 3.87737L553.574 4.61142L552.198 6.09705L551.501 6.84976M554.253 3.87737H587.402M551.501 6.84976H585.201M587.402 3.87737L587.131 4.24326L586.859 4.61142L586.585 4.98014L585.201 6.84976M484.102 6.84976H450.403M383.003 6.84976H416.703M383.003 6.84976H349.303M421.656 3.87737L420.433 4.61142L419.817 4.98014L416.703 6.84976M421.656 3.87737H454.806M416.703 6.84976H450.403M454.806 3.87737L454.263 4.24326L450.403 6.84976M349.303 6.84976H315.603M248.204 6.84976H281.904M248.204 6.84976H214.504M289.059 3.87737L287.292 4.61142L286.403 4.98014L281.904 6.84976M289.059 3.87737H322.208M281.904 6.84976H315.603M322.208 3.87737L321.394 4.24326L315.603 6.84976M214.504 6.84976H180.805M113.405 6.84976H147.105M113.405 6.84976H79.7053M156.461 3.87737L147.105 6.84976M156.461 3.87737H189.61M147.105 6.84976H180.805M189.61 3.87737L187.437 4.61142L186.342 4.98014L180.805 6.84976M79.7053 6.84976H46.0057M23.8641 3.87737L12.3061 6.84976M23.8641 3.87737H57.0136M23.8641 3.87737H0.387546M12.3061 6.84976H46.0057M12.3061 6.84976L0.387546 9.91528M12.3061 6.84976H0.387546M57.0136 3.87737L54.2955 4.61142L46.0057 6.84976M1382.99 3.87737L1385.7 4.61142L1393.99 6.84976M1393.99 6.84976H1427.69M1427.69 6.84976L1439.61 9.9153M1427.69 6.84976H1439.61M1439.61 148.723V145.097M1439.61 148.723V154.734M1439.61 145.097V136.007M1439.61 154.734V156.531V164.97M1439.61 164.97V175.861M1439.61 78.424V72.6907M1439.61 78.424V83.9461M1439.61 3.87737V6.84976M1439.61 6.84976V9.9153M1439.61 9.9153L1439.64 9.9228H1439.61M1439.61 9.9153V9.9228M1439.61 9.9228V13.101M1439.61 13.101V16.3907M1439.61 16.3907V19.1688M1439.61 19.1688V19.7974M1439.61 19.7974V23.3274M1439.61 23.3274V26.9875M1439.61 26.9875V29.3966M1439.61 29.3966V30.7849M1439.61 30.7849V34.7277M1439.61 34.7277V38.825M1439.61 38.825V40.7613M1439.61 40.7613V43.085M1439.61 43.085V47.5182M1439.61 47.5182V52.1351M1439.61 52.1351V53.4625M1439.61 53.4625V56.9477M1439.61 56.9477V61.9684M1439.61 61.9684V67.2108M1439.61 67.2108V67.7518M1439.61 67.7518V72.6907M1439.61 84.4287V90.7246M1439.61 84.4287V83.9461M1439.61 90.7246V97.3339M1439.61 97.3339V102.454M1439.61 102.454V104.28M1439.61 104.28V111.589M1439.61 111.589V119.291M1439.61 119.291V123.809M1439.61 123.809V127.419M1439.61 127.419V136.007M1439.61 175.861V178.168M1439.61 178.168V187.473M1439.61 187.473V199.878M1439.61 199.878V213.163M1439.61 213.163V213.5M1439.61 213.5V227.424M1439.61 227.424V242.772M1439.61 242.772V256.685M1439.61 256.685V259.336M1439.61 259.336V277.268M1439.61 277.268V296.743M1439.61 296.743V310.667M1439.61 310.667V317.971M1439.61 317.971V341.198M1439.61 341.198V366.722M1439.61 366.722V380.071M1439.61 380.071V394.899M1439.61 394.899V395H0.387546V394.899M0.387546 84.4287V90.7246M0.387546 84.4287V83.9461M0.387546 83.9461V78.424M0.387546 78.424V72.6907M0.387546 72.6907V67.7518M0.387546 67.7518V67.2108M0.387546 67.2108V61.9684M0.387546 61.9684V56.9477M0.387546 56.9477V53.4626M0.387546 53.4626V52.1351M0.387546 52.1351V47.5182M0.387546 47.5182V43.085M0.387546 43.085V40.7613M0.387546 40.7613V38.825M0.387546 38.825V34.7277M0.387546 34.7277V30.7849M0.387546 30.7849V29.3966M0.387546 29.3966V26.9875M0.387546 26.9875V23.3274M0.387546 23.3274V19.7974M0.387546 19.7974V19.1688M0.387546 19.1688V16.3907M0.387546 16.3907V13.101M0.387546 13.101V9.9228M0.387546 9.9228H0.35831L0.387546 9.91528M0.387546 9.9228V9.91528M0.387546 9.91528V6.84976M0.387546 6.84976V3.87737M0.387546 394.899V380.071M0.387546 380.071V366.722M0.387546 366.722V341.198M0.387546 341.198V317.971M0.387546 317.971V310.667M0.387546 310.667V296.743M0.387546 296.743V277.268M0.387546 277.268V259.336M0.387546 259.336V256.685M0.387546 256.685V242.772M0.387546 242.772V227.424M0.387546 227.424V213.5M0.387546 213.5V213.163M0.387546 213.163V199.878M0.387546 199.878V187.473M0.387546 187.473V178.168M0.387546 178.168V175.861M0.387546 175.861V164.97M0.387546 164.97V154.734M0.387546 154.734V148.723M0.387546 148.723V145.097M0.387546 145.097V136.007M0.387546 136.007V127.419M0.387546 127.419V123.809M0.387546 123.809V119.291M0.387546 119.291V111.589M0.387546 111.589V104.28M0.387546 104.28V102.454M0.387546 102.454V97.3339M0.387546 97.3339V90.7246" stroke="url(#paint0_linear_388_2710)" stroke-width="1.8895" stroke-miterlimit="10" stroke-linecap="round" stroke-linejoin="round"/>
<defs>
<linearGradient id="paint0_linear_388_2710" x1="720" y1="1" x2="720" y2="277.242" gradientUnits="userSpaceOnUse">
<stop stop-color="#CED2DF" stop-opacity="0"/>
<stop offset="1" stop-color="#DFE7FF" stop-opacity="0.45"/>
</linearGradient>
</defs>
</svg>
