<svg width="264" height="264" viewBox="0 0 264 264" fill="none" xmlns="http://www.w3.org/2000/svg">
<path d="M230.477 224.477C223.658 231.525 217.556 235.668 212.884 238.796C167.32 269.299 115.235 260.507 99.1321 257.502C73.1515 252.654 51.2203 249.234 32.3775 232.165C-10.4392 193.38 -8.35663 112.472 24.3605 62.353C28.2398 56.4103 60.9073 7.85942 113.105 1.01823C114.381 0.850928 115.334 0.755635 116.168 0.667062C124.243 -0.190098 174.281 -4.71418 215.082 29.5588C220.922 34.4648 230.321 43.3139 239.037 56.8103C270.907 106.159 271.008 182.59 230.477 224.477Z" fill="url(#paint0_linear_388_2647)"/>
<path d="M248.95 264H157.597C149.319 264 142.547 256.951 142.547 248.337V36.5839C142.547 27.9691 149.319 20.9207 157.597 20.9207H248.95C257.228 20.9207 264 27.9691 264 36.5839V248.337C264 256.952 257.228 264 248.95 264Z" fill="#1B3E77" fill-opacity="0.9"/>
<path d="M258.719 40.1349V244.786C258.719 252.855 252.376 259.457 244.623 259.457H161.924C156.26 259.457 151.346 255.933 149.113 250.887C148.287 249.026 147.828 246.96 147.828 244.786V40.1349C147.828 32.0658 154.171 25.4641 161.924 25.4641H244.623C252.376 25.464 258.719 32.0657 258.719 40.1349Z" fill="white"/>
<path d="M227.88 33.0119H178.666C174.004 33.0119 170.226 29.079 170.226 24.2275H236.321C236.321 29.0789 232.542 33.0119 227.88 33.0119Z" fill="#1B3E77" fill-opacity="0.9"/>
<path d="M224.374 28.8849C224.618 27.8082 223.977 26.7292 222.943 26.475C221.908 26.2207 220.872 26.8875 220.627 27.9642C220.383 29.0409 221.024 30.1199 222.058 30.3742C223.093 30.6284 224.13 29.9616 224.374 28.8849Z" fill="white"/>
<path d="M203.274 165.571C225.795 165.571 244.053 146.569 244.053 123.13C244.053 99.6901 225.795 80.6885 203.274 80.6885C180.752 80.6885 162.495 99.6901 162.495 123.13C162.495 146.569 180.752 165.571 203.274 165.571Z" fill="#F7DF00"/>
<path d="M203.138 161.349C223.419 161.349 239.859 144.238 239.859 123.13C239.859 102.022 223.419 84.9111 203.138 84.9111C182.857 84.9111 166.416 102.022 166.416 123.13C166.416 144.238 182.857 161.349 203.138 161.349Z" fill="#F46C07"/>
<path d="M203.896 160.794C223.908 160.794 240.131 143.91 240.131 123.082C240.131 102.254 223.908 85.3691 203.896 85.3691C183.883 85.3691 167.66 102.254 167.66 123.082C167.66 143.91 183.883 160.794 203.896 160.794Z" fill="#EBB707"/>
<path d="M203.137 155.275C220.195 155.275 234.023 140.883 234.023 123.13C234.023 105.376 220.195 90.9839 203.137 90.9839C186.078 90.9839 172.25 105.376 172.25 123.13C172.25 140.883 186.078 155.275 203.137 155.275Z" fill="#F46C07"/>
<path d="M203.716 155.275C220.455 155.275 234.024 141.153 234.024 123.731C234.024 106.31 220.455 92.187 203.716 92.187C186.977 92.187 173.407 106.31 173.407 123.731C173.407 141.153 186.977 155.275 203.716 155.275Z" fill="#F7A101"/>
<path d="M206.151 140.427V144.496H202.328V140.472C196.829 139.801 192.49 136.18 191.03 131.351L195.669 129.16C196.915 132.603 199.407 134.793 202.328 135.419V125.762L199.922 125.002C194.638 123.348 192.061 120.039 192.061 115.747C192.061 110.292 196.185 106.492 202.328 106.179V102.021H206.151V106.492C210.662 107.475 214.013 110.605 215.344 114.45L210.662 116.686C209.846 114.227 208.256 112.483 206.151 111.678V121.336L207.526 121.783C212.81 123.482 215.516 126.432 215.516 130.904C215.516 136.09 211.822 139.756 206.151 140.427ZM202.328 120.128V111.186C199.407 111.41 197.517 113.154 197.517 115.479C197.517 117.535 198.891 119.055 201.469 119.86L202.328 120.128ZM210.061 131.306C210.061 129.026 208.729 127.819 206.194 127.014H206.151V135.375C208.6 134.838 210.061 133.273 210.061 131.306Z" fill="#F7DF00"/>
<path d="M234.105 225.398H172.442C167.679 225.398 163.818 221.38 163.818 216.423V210.899C163.818 205.943 167.679 201.924 172.442 201.924H234.105C238.868 201.924 242.729 205.942 242.729 210.899V216.423C242.729 221.38 238.868 225.398 234.105 225.398Z" fill="#1B3E77"/>
<path d="M189.178 223.389V207.513H194.543C195.788 207.513 196.806 207.737 197.597 208.187C198.393 208.631 198.982 209.234 199.365 209.993C199.747 210.753 199.938 211.601 199.938 212.536C199.938 213.471 199.747 214.322 199.365 215.086C198.987 215.851 198.403 216.461 197.613 216.916C196.822 217.366 195.809 217.59 194.574 217.59H190.729V215.885H194.512C195.365 215.885 196.049 215.738 196.566 215.443C197.083 215.148 197.458 214.75 197.69 214.249C197.928 213.743 198.047 213.172 198.047 212.536C198.047 211.9 197.928 211.332 197.69 210.831C197.458 210.329 197.08 209.936 196.558 209.652C196.036 209.363 195.344 209.218 194.481 209.218H191.101V223.389H189.178Z" fill="white"/>
<path d="M199.833 223.389H197.818L203.648 207.513H205.632L211.462 223.389H209.446L204.702 210.024H204.578L199.833 223.389ZM200.578 217.187H208.702V218.893H200.578V217.187Z" fill="white"/>
<path d="M208.671 207.513H210.873L215.276 214.924H215.462L219.865 207.513H222.067L216.331 216.846V223.389H214.408V216.846L208.671 207.513Z" fill="white"/>
<path d="M98.6845 172.156V152.486C98.6845 142.937 91.2471 135.197 82.0725 135.197C72.898 135.197 65.4604 142.937 65.4604 152.486V172.156" stroke="#3C59D3" stroke-width="3.33397" stroke-miterlimit="10"/>
<path d="M49.6089 263.614H142.546L141.812 255.745L132.994 161.294H56.5738L49.6089 263.614Z" fill="#A2C3F2"/>
<path d="M62.5446 161.294H49.6089L38 263.613H68.7802L62.5446 161.294Z" fill="#4F52FF"/>
<path d="M67.7188 262.509L56.0436 250.219L55.7782 161.294L54.1198 250.15L38.7959 263.13L55.1811 251.462L67.7188 262.509Z" fill="#1B3E77"/>
<path d="M112.495 172.156V152.486C112.495 142.937 105.058 135.197 95.883 135.197C86.7084 135.197 79.271 142.937 79.271 152.486V172.156" stroke="#3C59D3" stroke-width="3.33397" stroke-miterlimit="10"/>
<path d="M62.5444 161.294L68.7801 263.614H142.546L141.812 255.745C108.818 246.683 82.3407 221.089 71.2243 187.512L62.5444 161.294Z" fill="#4F52FF"/>
<path d="M112.495 175.071C114.043 175.071 115.297 173.766 115.297 172.156C115.297 170.545 114.043 169.24 112.495 169.24C110.948 169.24 109.694 170.545 109.694 172.156C109.694 173.766 110.948 175.071 112.495 175.071Z" fill="#546BEF"/>
<path d="M79.2708 175.071C80.818 175.071 82.0723 173.766 82.0723 172.156C82.0723 170.545 80.818 169.24 79.2708 169.24C77.7235 169.24 76.4692 170.545 76.4692 172.156C76.4692 173.766 77.7235 175.071 79.2708 175.071Z" fill="#546BEF"/>
<path d="M161.388 191.128V175.455C161.388 167.847 155.462 161.679 148.152 161.679C140.842 161.679 134.916 167.847 134.916 175.455V191.128" stroke="#D87B00" stroke-width="2.65643" stroke-miterlimit="10"/>
<path d="M122.286 264H196.336L195.751 257.73L188.725 182.473H127.835L122.286 264Z" fill="#FF928E"/>
<path d="M132.592 182.474H122.285L113.035 264H137.56L132.592 182.474Z" fill="#FE7062"/>
<path d="M172.391 193.451C173.624 193.451 174.623 192.411 174.623 191.128C174.623 189.845 173.624 188.805 172.391 188.805C171.158 188.805 170.159 189.845 170.159 191.128C170.159 192.411 171.158 193.451 172.391 193.451Z" fill="#D87B00"/>
<path d="M145.919 193.451C147.152 193.451 148.151 192.411 148.151 191.128C148.151 189.845 147.152 188.805 145.919 188.805C144.686 188.805 143.687 189.845 143.687 191.128C143.687 192.411 144.686 193.451 145.919 193.451Z" fill="#D87B00"/>
<path d="M136.715 263.119L127.412 253.328L127.201 182.474L125.879 253.273L113.669 263.615L126.725 254.318L136.715 263.119Z" fill="#FF928E"/>
<path d="M172.392 191.128V175.455C172.392 167.847 166.466 161.679 159.156 161.679C151.845 161.679 145.919 167.847 145.919 175.455V191.128" stroke="#D87B00" stroke-width="2.65643" stroke-miterlimit="10"/>
<path d="M132.592 182.473L137.561 264H196.336L195.751 257.73C169.462 250.51 148.365 230.117 139.508 203.363L132.592 182.473Z" fill="#FE7062"/>
<defs>
<linearGradient id="paint0_linear_388_2647" x1="285.944" y1="303.581" x2="100.694" y2="106.897" gradientUnits="userSpaceOnUse">
<stop stop-color="#DAE3FE"/>
<stop offset="1" stop-color="#E9EFFD"/>
</linearGradient>
</defs>
</svg>
