<svg width="50" height="50" viewBox="0 0 50 50" fill="none" xmlns="http://www.w3.org/2000/svg">
<path d="M20.3776 8.10465C21.5524 7.10355 22.1398 6.603 22.7539 6.30947C24.1743 5.63057 25.8255 5.63057 27.2459 6.30947C27.8601 6.603 28.4474 7.10355 29.6222 8.10465C30.0897 8.50309 30.3235 8.70231 30.5732 8.86965C31.1455 9.25325 31.7882 9.51948 32.4641 9.65293C32.759 9.71114 33.0652 9.73558 33.6775 9.78444C35.2161 9.90722 35.9854 9.96861 36.6272 10.1953C38.1116 10.7196 39.2792 11.8872 39.8035 13.3717C40.0302 14.0135 40.0916 14.7827 40.2144 16.3213C40.2633 16.9336 40.2877 17.2398 40.3459 17.5347C40.4794 18.2106 40.7456 18.8534 41.1292 19.4257C41.2965 19.6754 41.4957 19.9091 41.8942 20.3767C42.8953 21.5514 43.3958 22.1388 43.6894 22.7529C44.3683 24.1733 44.3683 25.8246 43.6894 27.245C43.3958 27.8591 42.8953 28.4464 41.8942 29.6212C41.4957 30.0887 41.2965 30.3225 41.1292 30.5722C40.7456 31.1445 40.4794 31.7872 40.3459 32.4632C40.2877 32.758 40.2633 33.0642 40.2144 33.6766C40.0916 35.2151 40.0302 35.9844 39.8035 36.6262C39.2792 38.1106 38.1116 39.2782 36.6272 39.8026C35.9854 40.0292 35.2161 40.0906 33.6775 40.2134C33.0652 40.2623 32.759 40.2867 32.4641 40.3449C31.7882 40.4784 31.1455 40.7446 30.5732 41.1282C30.3235 41.2955 30.0897 41.4948 29.6222 41.8932C28.4474 42.8943 27.8601 43.3949 27.2459 43.6884C25.8255 44.3673 24.1743 44.3673 22.7539 43.6884C22.1398 43.3949 21.5524 42.8943 20.3776 41.8932C19.9101 41.4948 19.6763 41.2955 19.4267 41.1282C18.8543 40.7446 18.2116 40.4784 17.5357 40.3449C17.2408 40.2867 16.9346 40.2623 16.3223 40.2134C14.7837 40.0906 14.0145 40.0292 13.3726 39.8026C11.8882 39.2782 10.7206 38.1106 10.1963 36.6262C9.96958 35.9844 9.9082 35.2151 9.78542 33.6766C9.73655 33.0642 9.71212 32.758 9.6539 32.4632C9.52046 31.7872 9.25423 31.1445 8.87063 30.5722C8.70329 30.3225 8.50407 30.0887 8.10563 29.6212C7.10453 28.4464 6.60397 27.8591 6.31045 27.245C5.63154 25.8246 5.63154 24.1733 6.31045 22.7529C6.60397 22.1388 7.10453 21.5514 8.10563 20.3767C8.50407 19.9091 8.70329 19.6754 8.87063 19.4257C9.25423 18.8534 9.52046 18.2106 9.6539 17.5347C9.71212 17.2398 9.73655 16.9336 9.78542 16.3213C9.9082 14.7827 9.96958 14.0135 10.1963 13.3717C10.7206 11.8872 11.8882 10.7196 13.3726 10.1953C14.0145 9.96861 14.7837 9.90722 16.3223 9.78444C16.9346 9.73558 17.2408 9.71114 17.5357 9.65293C18.2116 9.51948 18.8543 9.25325 19.4267 8.86965C19.6763 8.70231 19.9101 8.50309 20.3776 8.10465Z" stroke="#4782FF" stroke-width="1.5"/>
<path d="M17.7085 26.0415L21.8752 30.2082L32.2918 19.7915" stroke="#4782FF" stroke-width="1.5" stroke-linecap="round" stroke-linejoin="round"/>
</svg>
