<svg width="50" height="50" viewBox="0 0 50 50" fill="none" xmlns="http://www.w3.org/2000/svg">
<path d="M8.3102 30.5427L5.14355 27.376C3.85189 26.0844 3.85189 23.9593 5.14355 22.6677L8.3102 19.501C8.85187 18.9593 9.28937 17.8968 9.28937 17.1468V12.6676C9.28937 10.8342 10.7894 9.33429 12.6227 9.33429H17.1019C17.8519 9.33429 18.9144 8.89685 19.456 8.35518L22.6227 5.18848C23.9144 3.89681 26.0394 3.89681 27.331 5.18848L30.4978 8.35518C31.0394 8.89685 32.1019 9.33429 32.8519 9.33429H37.3311C39.1644 9.33429 40.6644 10.8342 40.6644 12.6676V17.1468C40.6644 17.8968 41.1019 18.9593 41.6435 19.501L44.8102 22.6677C46.1019 23.9593 46.1019 26.0844 44.8102 27.376L41.6435 30.5427C41.1019 31.0844 40.6644 32.1469 40.6644 32.8969V37.3759C40.6644 39.2092 39.1644 40.7094 37.3311 40.7094H32.8519C32.1019 40.7094 31.0394 41.1469 30.4978 41.6885L27.331 44.8552C26.0394 46.1469 23.9144 46.1469 22.6227 44.8552L19.456 41.6885C18.9144 41.1469 17.8519 40.7094 17.1019 40.7094H12.6227C10.7894 40.7094 9.28937 39.2092 9.28937 37.3759V32.8969C9.28937 32.1261 8.85187 31.0636 8.3102 30.5427Z" stroke="#4782FF" stroke-width="1.5" stroke-linecap="round" stroke-linejoin="round"/>
<path d="M18.75 31.25L31.25 18.75" stroke="#4782FF" stroke-width="1.5" stroke-linecap="round" stroke-linejoin="round"/>
<path d="M30.1967 30.2082H30.2154" stroke="#4782FF" stroke-width="1.5" stroke-linecap="round" stroke-linejoin="round"/>
<path d="M19.7802 19.7917H19.7989" stroke="#4782FF" stroke-width="1.5" stroke-linecap="round" stroke-linejoin="round"/>
</svg>
