<svg width="19" height="18" viewBox="0 0 19 18" fill="none" xmlns="http://www.w3.org/2000/svg">
<g clip-path="url(#clip0_415_22)">
<path d="M1.1045 8.9999L0.547699 8.7767C0.490285 8.91996 0.490285 9.07984 0.547699 9.2231L1.1045 8.9999ZM17.9045 8.9999L18.4613 9.2231C18.5187 9.07984 18.5187 8.91996 18.4613 8.7767L17.9045 8.9999ZM9.5045 14.3999C6.7277 14.3999 4.7777 13.0175 3.5009 11.5991C2.80362 10.8184 2.2184 9.94439 1.7621 9.0023L1.6661 8.7863L1.6613 8.7779L1.1045 8.9999L0.547699 9.2231V9.2255L0.551299 9.2303L0.582499 9.3059L0.676099 9.5135C1.18235 10.5613 1.83264 11.5331 2.6081 12.4007C4.0325 13.9835 6.2813 15.5999 9.5045 15.5999V14.3999ZM1.1045 8.9999L1.6613 9.2231L1.6661 9.2135C1.69573 9.14047 1.72774 9.06843 1.7621 8.9975C2.2184 8.05542 2.80362 7.18143 3.5009 6.4007C4.7765 4.9823 6.7277 3.5999 9.5045 3.5999V2.3999C6.2813 2.3999 4.0313 4.0175 2.6081 5.5991C1.83264 6.46672 1.18235 7.43854 0.676099 8.4863C0.632475 8.5798 0.590865 8.67422 0.551299 8.7695L0.548899 8.7743V8.7755H0.546499L1.1045 8.9999ZM9.5045 3.5999C12.2813 3.5999 14.2313 4.9823 15.5081 6.4007C16.2054 7.18143 16.7906 8.05542 17.2469 8.9975L17.3429 9.2135L17.3477 9.2219L17.9045 8.9999L18.4613 8.7767V8.7743L18.4577 8.7695L18.4265 8.6939L18.3329 8.4863C17.8267 7.43854 17.1764 6.46672 16.4009 5.5991C14.9765 4.0175 12.7277 2.3999 9.5045 2.3999V3.5999ZM17.9045 8.9999L17.3477 8.7767L17.3441 8.7863L17.3261 8.8283L17.2469 9.0023C16.7906 9.94439 16.2054 10.8184 15.5081 11.5991C14.2325 13.0175 12.2813 14.3999 9.5045 14.3999V15.5999C12.7277 15.5999 14.9777 13.9823 16.4009 12.4019C17.1764 11.5339 17.8267 10.5617 18.3329 9.5135C18.3765 9.42001 18.4181 9.32559 18.4577 9.2303L18.4601 9.2255V9.2243L18.4613 9.2231L17.9045 8.9999ZM9.5045 10.7999C9.02711 10.7999 8.56927 10.6103 8.23171 10.2727C7.89414 9.93513 7.7045 9.47729 7.7045 8.9999H6.5045C6.5045 9.79555 6.82057 10.5586 7.38318 11.1212C7.94579 11.6838 8.70885 11.9999 9.5045 11.9999V10.7999ZM11.3045 8.9999C11.3045 9.47729 11.1149 9.93513 10.7773 10.2727C10.4397 10.6103 9.98189 10.7999 9.5045 10.7999V11.9999C10.3001 11.9999 11.0632 11.6838 11.6258 11.1212C12.1884 10.5586 12.5045 9.79555 12.5045 8.9999H11.3045ZM9.5045 7.1999C9.98189 7.1999 10.4397 7.38954 10.7773 7.72711C11.1149 8.06468 11.3045 8.52251 11.3045 8.9999H12.5045C12.5045 8.20425 12.1884 7.44119 11.6258 6.87858C11.0632 6.31597 10.3001 5.9999 9.5045 5.9999V7.1999ZM9.5045 5.9999C8.70885 5.9999 7.94579 6.31597 7.38318 6.87858C6.82057 7.44119 6.5045 8.20425 6.5045 8.9999H7.7045C7.7045 8.52251 7.89414 8.06468 8.23171 7.72711C8.56927 7.38954 9.02711 7.1999 9.5045 7.1999V5.9999Z" fill="black"/>
</g>
<defs>
<clipPath id="clip0_415_22">
<rect width="18" height="18" fill="white" transform="translate(0.504395)"/>
</clipPath>
</defs>
</svg>
