<svg width="12" height="12" viewBox="0 0 12 12" fill="none" xmlns="http://www.w3.org/2000/svg">
<path d="M0.548713 4.92086C0.548713 2.38911 2.60682 0.331005 5.13857 0.331005C7.67032 0.331005 9.72842 2.38911 9.72842 4.92086C9.72842 5.90762 9.40702 6.82108 8.87135 7.55974L11.4482 10.1422C11.6004 10.3001 11.6794 10.5088 11.6794 10.7343C11.6794 11.2023 11.3354 11.5632 10.8561 11.5632C10.6362 11.5632 10.4163 11.4899 10.2585 11.3264L7.66468 8.73258C6.94293 9.22314 6.08022 9.51071 5.13857 9.51071C2.60682 9.51071 0.548713 7.45261 0.548713 4.92086ZM1.74411 4.92086C1.74411 6.79289 3.2609 8.31532 5.13857 8.31532C7.01059 8.31532 8.53303 6.79289 8.53303 4.92086C8.53303 3.04883 7.01059 1.5264 5.13857 1.5264C3.2609 1.5264 1.74411 3.04883 1.74411 4.92086Z" fill="#3C3C43" fill-opacity="0.6"/>
</svg>
