<svg width="14" height="12" viewBox="0 0 14 12" fill="none" xmlns="http://www.w3.org/2000/svg">
<path d="M11.0833 4.84812V1.91668C11.0833 1.27325 10.5601 0.75 9.91665 0.75H1.16665C0.523223 0.75 0 1.27322 0 1.91668V7.75C0 8.39343 0.523223 8.91668 1.16668 8.91668H7.70771C8.08987 10.2612 9.32621 11.25 10.7917 11.25C11.3556 11.25 11.9102 11.1016 12.3961 10.8205C12.5354 10.7399 12.5833 10.5616 12.5024 10.422C12.4217 10.2824 12.2432 10.2343 12.1039 10.3158C11.7068 10.5454 11.2531 10.6667 10.7916 10.6667C9.34412 10.6667 8.16665 9.48917 8.16665 8.04168C8.16665 6.59418 9.34415 5.41668 10.7916 5.41668C12.2391 5.41668 13.4166 6.59418 13.4166 8.04168V8.33335C13.4166 8.65491 13.1549 8.91668 12.8333 8.91668C12.5118 8.91668 12.25 8.65491 12.25 8.33335V7.16668C12.25 7.00546 12.1195 6.875 11.9583 6.875C11.8799 6.875 11.8094 6.90675 11.757 6.95703C11.4992 6.72732 11.1633 6.58332 10.7916 6.58332C9.98758 6.58332 9.33332 7.23758 9.33332 8.04165C9.33332 8.84572 9.98758 9.5 10.7917 9.5C11.2263 9.5 11.6128 9.30501 11.8802 9.00229C12.0915 9.30244 12.4391 9.5 12.8334 9.5C13.4768 9.5 14 8.97678 14 8.33332V8.04165C14 6.37103 12.716 4.99616 11.0833 4.84812ZM1.16668 1.33332H9.91668C9.92882 1.33332 9.93899 1.33953 9.95096 1.34027L5.78151 4.7627C5.63311 4.85613 5.41806 4.83674 5.3215 4.77752L1.13274 1.34021C1.14458 1.3395 1.15464 1.33332 1.16668 1.33332ZM10.5 4.84812C8.86728 4.99616 7.58332 6.37103 7.58332 8.04168C7.58332 8.14011 7.58937 8.23713 7.59809 8.33335H1.16668C0.845113 8.33335 0.583352 8.07159 0.583352 7.75003V1.91668C0.583352 1.83407 0.60159 1.75606 0.632707 1.6848L4.97716 5.2475C5.14691 5.3583 5.34204 5.4167 5.5417 5.4167C5.73368 5.4167 5.92137 5.36259 6.08658 5.26005C6.1031 5.25122 6.11877 5.24069 6.13359 5.22844L10.4506 1.68475C10.4818 1.75606 10.5 1.83407 10.5 1.9167V4.84812H10.5ZM10.7917 8.91668C10.3092 8.91668 9.91668 8.52418 9.91668 8.04168C9.91668 7.55917 10.3092 7.16668 10.7917 7.16668C11.2742 7.16668 11.6667 7.55917 11.6667 8.04168C11.6667 8.52418 11.2742 8.91668 10.7917 8.91668Z" fill="#8D8D8D"/>
</svg>
