<svg width="50" height="50" viewBox="0 0 50 50" fill="none" xmlns="http://www.w3.org/2000/svg">
<path d="M43.5625 23.1665C43.5625 33.354 36.1667 42.8956 26.0625 45.6873C25.375 45.8748 24.625 45.8748 23.9375 45.6873C13.8333 42.8956 6.4375 33.354 6.4375 23.1665V14.0206C6.4375 12.3123 7.7292 10.3748 9.33336 9.72894L20.9375 4.979C23.5417 3.9165 26.4792 3.9165 29.0833 4.979L40.6875 9.72894C42.2708 10.3748 43.5834 12.3123 43.5834 14.0206L43.5625 23.1665Z" stroke="#4782FF" stroke-width="1.5" stroke-linecap="round" stroke-linejoin="round"/>
<path d="M25.0002 26.0418C27.3013 26.0418 29.1668 24.1763 29.1668 21.8752C29.1668 19.574 27.3013 17.7085 25.0002 17.7085C22.699 17.7085 20.8335 19.574 20.8335 21.8752C20.8335 24.1763 22.699 26.0418 25.0002 26.0418Z" stroke="#4782FF" stroke-width="1.5" stroke-miterlimit="10" stroke-linecap="round" stroke-linejoin="round"/>
<path d="M25 26.042V32.292" stroke="#4782FF" stroke-width="1.5" stroke-miterlimit="10" stroke-linecap="round" stroke-linejoin="round"/>
</svg>
