<svg width="176" height="16" viewBox="0 0 176 16" fill="none" xmlns="http://www.w3.org/2000/svg">
<g clip-path="url(#clip0_415_1615)">
<path d="M96.3367 15.9507V15.95H96.3407V10.082C96.3407 7.21133 95.7227 5 92.3667 5C90.7533 5 89.6707 5.88533 89.2287 6.72467H89.182V5.268H86V15.95H89.3133V10.6607C89.3133 9.268 89.5773 7.92133 91.302 7.92133C93.0013 7.92133 93.0267 9.51067 93.0267 10.75V15.9507H96.3367Z" fill="white"/>
<path d="M80.2639 5.31836H83.5812V16.0004H80.2639V5.31836Z" fill="white"/>
<path d="M81.9213 0C80.8607 0 80 0.860667 80 1.92133C80 2.982 80.8607 3.86067 81.9213 3.86067C82.982 3.86067 83.8427 2.982 83.8427 1.92133C83.842 0.860667 82.9813 0 81.9213 0V0Z" fill="white"/>
</g>
<g clip-path="url(#clip1_415_1615)">
<path d="M131 0H125C122.239 0 120 2.239 120 5V11C120 13.761 122.239 16 125 16H131C133.761 16 136 13.761 136 11V5C136 2.239 133.761 0 131 0ZM134.5 11C134.5 12.93 132.93 14.5 131 14.5H125C123.07 14.5 121.5 12.93 121.5 11V5C121.5 3.07 123.07 1.5 125 1.5H131C132.93 1.5 134.5 3.07 134.5 5V11Z" fill="white"/>
<path d="M128 4C125.791 4 124 5.791 124 8C124 10.209 125.791 12 128 12C130.209 12 132 10.209 132 8C132 5.791 130.209 4 128 4ZM128 10.5C126.622 10.5 125.5 9.378 125.5 8C125.5 6.621 126.622 5.5 128 5.5C129.378 5.5 130.5 6.621 130.5 8C130.5 9.378 129.378 10.5 128 10.5Z" fill="white"/>
<path d="M132.3 4.23298C132.594 4.23298 132.833 3.99435 132.833 3.69999C132.833 3.40562 132.594 3.16699 132.3 3.16699C132.006 3.16699 131.767 3.40562 131.767 3.69999C131.767 3.99435 132.006 4.23298 132.3 4.23298Z" fill="white"/>
</g>
<path d="M10.6648 2.65667H12.1254V0.112667C11.8734 0.078 11.0068 0 9.99742 0C7.89142 0 6.44876 1.32467 6.44876 3.75933V6H4.12476V8.844H6.44876V16H9.29809V8.84467H11.5281L11.8821 6.00067H9.29742V4.04133C9.29809 3.21933 9.51942 2.65667 10.6648 2.65667Z" fill="white"/>
<g clip-path="url(#clip2_415_1615)">
<path fill-rule="evenodd" clip-rule="evenodd" d="M173.306 2.67206C171.903 1.26709 170.036 0.493011 168.048 0.492188C163.951 0.492188 160.617 3.82645 160.615 7.92453C160.615 9.23456 160.957 10.5134 161.607 11.6406L160.553 15.4922L164.493 14.4586C165.579 15.0508 166.801 15.3629 168.045 15.3633H168.048C172.145 15.3633 175.479 12.0287 175.481 7.93048C175.482 5.94434 174.709 4.07693 173.306 2.67206ZM168.048 14.108H168.046C166.937 14.1075 165.85 13.8096 164.901 13.2469L164.676 13.1129L162.337 13.7263L162.961 11.4466L162.815 11.2128C162.196 10.2292 161.87 9.09228 161.87 7.92499C161.871 4.51877 164.643 1.74756 168.051 1.74756C169.701 1.74811 171.252 2.39154 172.418 3.5593C173.585 4.72705 174.227 6.27923 174.226 7.93002C174.225 11.3365 171.453 14.108 168.048 14.108ZM171.437 9.48102C171.251 9.388 170.338 8.93884 170.168 8.87677C169.998 8.81479 169.874 8.78393 169.75 8.96979C169.626 9.15564 169.27 9.57403 169.162 9.6979C169.053 9.82187 168.945 9.83743 168.759 9.74441C168.574 9.65149 167.975 9.45529 167.266 8.82257C166.714 8.33011 166.341 7.72192 166.233 7.53607C166.124 7.35004 166.232 7.25922 166.314 7.15704C166.515 6.90738 166.717 6.64563 166.778 6.52176C166.84 6.3978 166.809 6.28931 166.763 6.19638C166.717 6.10345 166.345 5.1893 166.19 4.81732C166.039 4.45532 165.887 4.50421 165.772 4.49853C165.664 4.49313 165.54 4.49203 165.416 4.49203C165.293 4.49203 165.091 4.53845 164.921 4.72449C164.751 4.91043 164.271 5.35968 164.271 6.27383C164.271 7.18799 164.937 8.0711 165.03 8.19507C165.122 8.31903 166.339 10.1949 168.202 10.9993C168.645 11.1909 168.991 11.305 169.261 11.3906C169.706 11.532 170.111 11.512 170.431 11.4642C170.788 11.4109 171.53 11.0149 171.684 10.5811C171.839 10.1472 171.839 9.77545 171.793 9.6979C171.746 9.62045 171.622 9.57403 171.437 9.48102Z" fill="white"/>
</g>
<path d="M46.2781 10.1205L46.0135 13.8432C46.3921 13.8432 46.5561 13.6805 46.7528 13.4852L48.5281 11.7885L52.2068 14.4825C52.8815 14.8585 53.3568 14.6605 53.5388 13.8619L55.9535 2.54721C56.1675 1.54988 55.5935 1.15921 54.9361 1.40388L40.7428 6.83788C39.7741 7.21388 39.7888 7.75388 40.5781 7.99855L44.2068 9.12721L52.6355 3.85321C53.0321 3.59055 53.3928 3.73588 53.0961 3.99855L46.2781 10.1205Z" fill="white"/>
<defs>
<clipPath id="clip0_415_1615">
<rect width="16" height="16" fill="white" transform="translate(80)"/>
</clipPath>
<clipPath id="clip1_415_1615">
<rect width="16" height="16" fill="white" transform="translate(120)"/>
</clipPath>
<clipPath id="clip2_415_1615">
<rect width="16" height="16" fill="white" transform="translate(160)"/>
</clipPath>
</defs>
</svg>
